<?xml version="1.0" encoding="iso-8859-1"?>
<!-- Generator: Adobe Illustrator 19.0.0, SVG Export Plug-In . SVG Version: 6.00 Build 0)  -->
<svg version="1.1" id="Layer_1" xmlns="http://www.w3.org/2000/svg" xmlns:xlink="http://www.w3.org/1999/xlink" x="0px" y="0px"
	 viewBox="0 0 512 512" style="enable-background:new 0 0 512 512;" xml:space="preserve">
<circle style="fill:#273B7A;" cx="256" cy="256" r="256"/>
<path style="fill:#121149;" d="M512,256c0-2.179-0.028-4.351-0.083-6.516L388.291,125.857l-82.068,158.529l23.754,23.754
	L123.852,414.746l94.491,94.491C230.634,511.048,243.205,512,256,512C397.384,512,512,397.384,512,256z"/>
<path style="fill:#FFAD9E;" d="M244.583,365.554h131.786c8.737,0,15.82-7.083,15.82-15.82V136.235c0-8.737-7.084-15.82-15.82-15.82
	H244.583c-8.737,0-15.82,7.084-15.82,15.82v213.499C228.762,358.471,235.846,365.554,244.583,365.554z"/>
<path style="fill:#FFFFFF;" d="M135.632,420.03h131.786c8.737,0,15.82-7.083,15.82-15.82V190.711c0-8.737-7.083-15.82-15.82-15.82
	H135.632c-8.737,0-15.82,7.084-15.82,15.82v213.499C119.811,412.946,126.895,420.03,135.632,420.03z"/>
<path style="fill:#D0D1D3;" d="M267.417,174.89h-67.156V420.03h67.156c8.737,0,15.82-7.083,15.82-15.82V190.711
	C283.238,181.974,276.154,174.89,267.417,174.89z"/>
<path style="fill:#273B7A;" d="M208.081,274.472c16.906-3.45,29.665-18.434,29.665-36.345c0-20.454-16.639-37.095-37.093-37.095
	s-37.095,16.641-37.095,37.095c0,17.911,12.76,32.894,29.667,36.345v111.987h14.857v-15.257h23.983v-14.857h-23.983v-9.576h23.983
	v-14.857h-23.983L208.081,274.472L208.081,274.472z M178.414,238.127c0-12.264,9.976-22.238,22.238-22.238
	c12.262,0,22.237,9.975,22.237,22.238c0,12.262-9.976,22.237-22.237,22.237C188.39,260.365,178.414,250.389,178.414,238.127z"/>
<path style="fill:#121149;" d="M208.081,274.472c16.906-3.45,29.665-18.434,29.665-36.345c0-20.454-16.639-37.095-37.093-37.095
	c-0.133,0-0.26,0.019-0.391,0.019v14.857c0.131-0.002,0.259-0.019,0.391-0.019c12.262,0,22.237,9.975,22.237,22.238
	c0,12.262-9.976,22.237-22.237,22.237c-0.133,0-0.26-0.017-0.391-0.019v126.114h7.82v-15.257h23.983v-14.857h-23.983v-9.576h23.983
	v-14.857h-23.983L208.081,274.472L208.081,274.472z"/>
<rect x="337.713" y="120.415" style="fill:#59595B;" width="27.238" height="245.139"/>
<g>
</g>
<g>
</g>
<g>
</g>
<g>
</g>
<g>
</g>
<g>
</g>
<g>
</g>
<g>
</g>
<g>
</g>
<g>
</g>
<g>
</g>
<g>
</g>
<g>
</g>
<g>
</g>
<g>
</g>
</svg>
