<?xml version="1.0" encoding="UTF-8"?>
<svg width="15px" height="14px" viewBox="0 0 15 14" version="1.1" xmlns="http://www.w3.org/2000/svg" xmlns:xlink="http://www.w3.org/1999/xlink">
    <!-- Generator: Sketch 40.3 (33839) - http://www.bohemiancoding.com/sketch -->
    <title>66</title>
    <desc>Created with Sketch.</desc>
    <defs></defs>
    <g id="e-journal" stroke="none" stroke-width="1" fill="none" fill-rule="evenodd">
        <g id="e-journal-adding-marks" transform="translate(-951.000000, -389.000000)" fill="#7FD2F2">
            <g id="Main-Content" transform="translate(15.000000, 91.000000)">
                <g id="title,-date,-descr" transform="translate(355.000000, 275.000000)">
                    <path d="M593.187456,31.4376318 L591.312427,31.4376318 C591.053673,31.4376318 590.843669,31.6476351 590.843669,31.9063892 L590.843669,33.7814185 C590.843669,34.0404069 591.053673,34.2501758 591.312427,34.2501758 L593.187456,34.2501758 C593.446444,34.2501758 593.656213,34.0404069 593.656213,33.7814185 L593.656213,31.9063892 C593.656213,31.6476351 593.446444,31.4376318 593.187456,31.4376318 L593.187456,31.4376318 Z M585.687573,31.4376318 L583.812544,31.4376318 C583.553556,31.4376318 583.343787,31.6476351 583.343787,31.9063892 L583.343787,33.7814185 C583.343787,34.0404069 583.553556,34.2501758 583.812544,34.2501758 L585.687573,34.2501758 C585.946327,34.2501758 586.156331,34.0404069 586.156331,33.7814185 L586.156331,31.9063892 C586.156331,31.6476351 585.946327,31.4376318 585.687573,31.4376318 L585.687573,31.4376318 Z M589.437397,31.4376318 L587.562368,31.4376318 C587.303614,31.4376318 587.093845,31.6476351 587.093845,31.9063892 L587.093845,33.7814185 C587.093845,34.0404069 587.303614,34.2501758 587.562368,34.2501758 L589.437397,34.2501758 C589.696386,34.2501758 589.906155,34.0404069 589.906155,33.7814185 L589.906155,31.9063892 C589.906155,31.6476351 589.696386,31.4376318 589.437397,31.4376318 L589.437397,31.4376318 Z M592.718699,33.3126611 L591.781184,33.3126611 L591.781184,32.3751465 L592.718699,32.3751465 L592.718699,33.3126611 L592.718699,33.3126611 Z M585.218816,33.3126611 L584.281301,33.3126611 L584.281301,32.3751465 L585.218816,32.3751465 L585.218816,33.3126611 L585.218816,33.3126611 Z M588.96864,33.3126611 L588.031125,33.3126611 L588.031125,32.3751465 L588.96864,32.3751465 L588.96864,33.3126611 L588.96864,33.3126611 Z M589.437397,27.6875732 L587.562368,27.6875732 C587.303614,27.6875732 587.093845,27.8975765 587.093845,28.1563306 L587.093845,30.0313599 C587.093845,30.2903483 587.303614,30.5001172 587.562368,30.5001172 L589.437397,30.5001172 C589.696386,30.5001172 589.906155,30.2903483 589.906155,30.0313599 L589.906155,28.1563306 C589.906155,27.8975765 589.696386,27.6875732 589.437397,27.6875732 L589.437397,27.6875732 Z M585.687573,27.6875732 L583.812544,27.6875732 C583.553556,27.6875732 583.343787,27.8975765 583.343787,28.1563306 L583.343787,30.0313599 C583.343787,30.2903483 583.553556,30.5001172 583.812544,30.5001172 L585.687573,30.5001172 C585.946327,30.5001172 586.156331,30.2903483 586.156331,30.0313599 L586.156331,28.1563306 C586.156331,27.8975765 585.946327,27.6875732 585.687573,27.6875732 L585.687573,27.6875732 Z M593.187456,27.6875732 L591.312427,27.6875732 C591.053673,27.6875732 590.843669,27.8975765 590.843669,28.1563306 L590.843669,30.0313599 C590.843669,30.2903483 591.053673,30.5001172 591.312427,30.5001172 L593.187456,30.5001172 C593.446444,30.5001172 593.656213,30.2903483 593.656213,30.0313599 L593.656213,28.1563306 C593.656213,27.8975765 593.446444,27.6875732 593.187456,27.6875732 L593.187456,27.6875732 Z M588.96864,29.5626025 L588.031125,29.5626025 L588.031125,28.6250879 L588.96864,28.6250879 L588.96864,29.5626025 L588.96864,29.5626025 Z M585.218816,29.5626025 L584.281301,29.5626025 L584.281301,28.6250879 L585.218816,28.6250879 L585.218816,29.5626025 L585.218816,29.5626025 Z M592.718699,29.5626025 L591.781184,29.5626025 L591.781184,28.6250879 L592.718699,28.6250879 L592.718699,29.5626025 L592.718699,29.5626025 Z M595.062485,35.1876904 L581.937515,35.1876904 L581.937515,24.8750293 L583.343787,24.8750293 L583.343787,25.3437866 C583.343787,25.602775 583.553556,25.8125439 583.812544,25.8125439 L585.218816,25.8125439 C585.47757,25.8125439 585.687573,25.602775 585.687573,25.3437866 L585.687573,24.8750293 L591.312427,24.8750293 L591.312427,25.3437866 C591.312427,25.602775 591.52243,25.8125439 591.781184,25.8125439 L593.187456,25.8125439 C593.446444,25.8125439 593.656213,25.602775 593.656213,25.3437866 L593.656213,24.8750293 L595.062485,24.8750293 L595.062485,35.1876904 L595.062485,35.1876904 Z M592.249941,23.9375146 L592.718699,23.9375146 L592.718699,24.8750293 L592.249941,24.8750293 L592.249941,23.9375146 L592.249941,23.9375146 Z M584.281301,23.9375146 L584.750059,23.9375146 L584.750059,24.8750293 L584.281301,24.8750293 L584.281301,23.9375146 L584.281301,23.9375146 Z M595.531243,23.9375146 L593.656213,23.9375146 L593.656213,23.4687573 C593.656213,23.2100033 593.446444,23 593.187456,23 L591.781184,23 C591.52243,23 591.312427,23.2100033 591.312427,23.4687573 L591.312427,23.9375146 L585.687573,23.9375146 L585.687573,23.4687573 C585.687573,23.2100033 585.47757,23 585.218816,23 L583.812544,23 C583.553556,23 583.343787,23.2100033 583.343787,23.4687573 L583.343787,23.9375146 L581.468757,23.9375146 C581.209769,23.9375146 581,24.1475179 581,24.406272 L581,35.6564478 C581,35.9154362 581.209769,36.1252051 581.468757,36.1252051 L595.531243,36.1252051 C595.789997,36.1252051 596,35.9154362 596,35.6564478 L596,24.406272 C596,24.1475179 595.789997,23.9375146 595.531243,23.9375146 L595.531243,23.9375146 Z" id="66"></path>
                </g>
            </g>
        </g>
    </g>
</svg>