<?xml version="1.0" encoding="UTF-8"?>
<svg width="22px" height="22px" viewBox="0 0 22 22" version="1.1" xmlns="http://www.w3.org/2000/svg" xmlns:xlink="http://www.w3.org/1999/xlink">
    <!-- Generator: Sketch 40.3 (33839) - http://www.bohemiancoding.com/sketch -->
    <title>81</title>
    <desc>Created with Sketch.</desc>
    <defs>
        <filter x="-50%" y="-50%" width="200%" height="200%" filterUnits="objectBoundingBox" id="filter-1">
            <feOffset dx="0" dy="1" in="SourceAlpha" result="shadowOffsetOuter1"></feOffset>
            <feGaussianBlur stdDeviation="1.5" in="shadowOffsetOuter1" result="shadowBlurOuter1"></feGaussianBlur>
            <feColorMatrix values="0 0 0 0 0   0 0 0 0 0   0 0 0 0 0  0 0 0 0.19 0" type="matrix" in="shadowBlurOuter1" result="shadowMatrixOuter1"></feColorMatrix>
            <feMerge>
                <feMergeNode in="shadowMatrixOuter1"></feMergeNode>
                <feMergeNode in="SourceGraphic"></feMergeNode>
            </feMerge>
        </filter>
    </defs>
    <g id="Meetings" stroke="none" stroke-width="1" fill="none" fill-rule="evenodd">
        <g id="Meetings-add" transform="translate(-1385.000000, -386.000000)" fill="#00BD7B">
            <g id="Main-Content" transform="translate(15.000000, 91.000000)">
                <g id="profile-header" filter="url(#filter-1)">
                    <g id="Add-or-go-back" transform="translate(0.000000, 200.000000)">
                        <g id="More-btn-hover" transform="translate(1363.000000, 41.000000)">
                            <g id="Group">
                                <g transform="translate(0.000000, 10.000000)" id="81">
                                    <path d="M10.651994,62 C10.7724598,62 10.8995755,61.9692947 11.0302719,61.9130018 L14.6992351,60.2805054 C15.0148504,60.1397729 15.4376316,59.8506317 15.6821439,59.6049896 L25.7007538,49.5822805 C25.8936013,49.3903726 26,49.1319367 26,48.8581481 C26,48.5843595 25.8936013,48.3259236 25.7007538,48.1340157 L23.8664,46.2993763 C23.6735525,46.1074684 23.4167634,46 23.1430938,46 C22.86968,46 22.6128909,46.1074684 22.4197876,46.2993763 L12.1454117,56.5779626 C11.8980859,56.8261634 11.6108607,57.2560371 11.4776066,57.5810011 L10.0767763,60.9841676 C9.92485126,61.3526307 10.032273,61.6033904 10.1097701,61.7185351 C10.228957,61.8976491 10.4266642,62 10.651994,62 L10.651994,62 Z M14.9588376,58.8808572 L14.9588376,58.8808572 L13.1244839,57.0462178 L21.6084978,48.5587718 L23.4428516,50.3934112 L14.9588376,58.8808572 L14.9588376,58.8808572 Z M23.1430938,47.0235087 L24.9774475,48.8581481 L24.1661578,49.6692787 L22.3320598,47.8346394 L23.1430938,47.0235087 L23.1430938,47.0235087 Z M12.4236851,57.9699344 C12.4385195,57.9341116 12.4589808,57.8931713 12.4814882,57.8496722 L14.0705623,59.4412282 L11.3144279,60.6643211 L12.4236851,57.9699344 L12.4236851,57.9699344 Z"></path>
                                </g>
                            </g>
                        </g>
                    </g>
                </g>
            </g>
        </g>
    </g>
</svg>