<?xml version="1.0" standalone="no"?>
<!DOCTYPE svg PUBLIC "-//W3C//DTD SVG 1.1//EN" "http://www.w3.org/Graphics/SVG/1.1/DTD/svg11.dtd" >
<svg xmlns="http://www.w3.org/2000/svg" xmlns:xlink="http://www.w3.org/1999/xlink" version="1.1">
<metadata>
Created by FontForge 20160405 at Mon Oct 17 03:26:52 2016
 By www-data
Circe Rounded is an extension for popular Circe typeface, with rounded terminals. Bold and ExtraBold faces have two variants with different radius of the terminals. Circe Rounded is even more friendly than the original Circe. The type is designed by Alexandra Korolkova  and Alexander Lubovenko and released by ParaType in 2015.
</metadata>
<defs>
<font id="CirceRounded" horiz-adv-x="564" >
  <font-face 
    font-family="Circe Rounded"
    font-weight="400"
    font-stretch="normal"
    units-per-em="1000"
    panose-1="2 15 5 2 2 2 3 2 2 3"
    ascent="773"
    descent="-227"
    x-height="417"
    cap-height="700"
    bbox="-525 -320 1454 923"
    underline-thickness="50"
    underline-position="-100"
    stemh="65"
    stemv="75"
    unicode-range="U+0020-FB02"
  />
<missing-glyph horiz-adv-x="225" 
 />
    <glyph glyph-name="uniF350.var.accented" unicode="&#xf350;`" horiz-adv-x="570" 
d="M469 20l-55 120h-261l-56 -122c-8 -17 -21 -25 -39 -25c-20 0 -37 17 -37 37c0 5 1 10 3 15l213 448c11 25 27 37 49 37s38 -12 49 -37l210 -441c3 -5 4 -11 4 -18c0 -21 -17 -41 -40 -41c-19 0 -33 9 -40 27zM189 220h189l-94 202zM245 647l86 96c5 6 11 9 19 9
c9 0 15 -3 20 -10l11 -13c5 -5 7 -12 7 -20c0 -10 -3 -18 -10 -25l-91 -83c-6 -6 -13 -9 -21 -9c-9 0 -16 3 -23 10c-6 6 -9 13 -9 20c0 8 4 16 11 25z" />
    <glyph glyph-name="uniF355.var.accented" unicode="&#xf355;`" horiz-adv-x="488" 
d="M169 225v-145h221c23 0 42 -19 42 -40s-19 -40 -42 -40h-264c-23 0 -42 19 -42 42v441c0 23 19 42 42 42h256c23 0 42 -19 42 -40s-19 -40 -42 -40h-213v-140h188c23 0 42 -19 42 -40s-19 -40 -42 -40h-188zM212 647l86 96c5 6 12 9 19 9c9 0 15 -3 20 -10l11 -13
c5 -5 7 -12 7 -20c0 -10 -3 -18 -10 -25l-91 -83c-6 -6 -13 -9 -21 -9c-9 0 -16 3 -23 10c-6 6 -9 13 -9 20c0 8 4 16 11 25z" />
    <glyph glyph-name="uniF358.var.accented" unicode="&#xf358;`" horiz-adv-x="656" 
d="M572 488v-453c0 -23 -19 -42 -42 -42c-24 0 -43 19 -43 42v355l-316 -376c-12 -14 -26 -21 -43 -21c-27 0 -44 18 -44 45v450c0 23 19 42 43 42c23 0 42 -19 42 -42v-353l310 369c15 17 31 26 48 26c25 0 45 -19 45 -42zM282 647l86 96c5 6 12 9 19 9c9 0 15 -3 20 -10
l11 -13c5 -5 7 -12 7 -20c0 -10 -3 -18 -10 -25l-91 -83c-6 -6 -13 -9 -21 -9c-9 0 -16 3 -23 10c-6 6 -9 13 -9 20c0 8 4 16 11 25z" />
    <glyph glyph-name="uniF35E.var.accented" unicode="&#xf35e;`" horiz-adv-x="655" 
d="M328 -9c-83 0 -152 25 -206 75c-55 50 -82 115 -82 196c0 77 27 141 81 193c54 51 123 77 207 77c83 0 151 -25 206 -75c54 -50 81 -115 81 -195c0 -79 -27 -143 -81 -194c-55 -51 -123 -77 -206 -77zM328 452c-57 0 -104 -18 -141 -53c-38 -36 -57 -82 -57 -137
c0 -54 19 -99 57 -136s85 -55 141 -55c60 0 108 18 144 54c35 36 53 82 53 137s-19 101 -56 137c-38 35 -85 53 -141 53zM293 647l86 96c5 6 11 9 19 9c9 0 15 -3 20 -10l11 -13c5 -5 7 -12 7 -20c0 -10 -3 -18 -10 -25l-91 -83c-6 -6 -13 -9 -21 -9c-9 0 -16 3 -23 10
c-6 6 -9 13 -9 20c0 8 4 16 11 25z" />
    <glyph glyph-name="uniF363.var.accented" unicode="&#xf363;`" horiz-adv-x="524" 
d="M33 487c0 24 16 43 43 43c17 0 30 -8 40 -23l177 -278l133 276c8 17 21 25 38 25c23 0 39 -16 39 -37c0 -5 -2 -11 -5 -18l-172 -351c-41 -84 -87 -124 -152 -124c-32 0 -64 17 -64 44c0 24 13 36 38 36c9 0 17 -1 22 -2c3 -1 6 -1 10 -1c21 0 41 17 59 50l10 18
l-208 315c-5 7 -8 16 -8 27zM229 647l86 96c5 6 11 9 19 9c9 0 15 -3 20 -10l11 -13c5 -5 7 -12 7 -20c0 -10 -3 -18 -10 -25l-91 -83c-6 -6 -13 -9 -21 -9c-9 0 -16 3 -23 10c-6 6 -9 13 -9 20c0 8 4 16 11 25z" />
    <glyph glyph-name="uniF36B.var.accented" unicode="&#xf36b;`" horiz-adv-x="706" 
d="M537 35v453c0 23 19 42 43 42c23 0 42 -19 42 -42v-453c0 -23 -19 -42 -42 -42c-24 0 -43 19 -43 42zM169 262v-182c27 -1 47 -2 62 -2c87 0 131 32 131 97c0 60 -43 90 -129 90c-17 0 -38 -1 -64 -3zM221 -2c-20 0 -81 1 -95 1c-24 1 -42 20 -42 43v446
c0 23 19 42 43 42c23 0 42 -19 42 -42v-146c28 2 52 3 71 3c140 0 212 -63 212 -168c0 -111 -87 -179 -231 -179zM292 647l86 96c5 6 12 9 19 9c9 0 15 -3 20 -10l11 -13c5 -5 7 -12 7 -20c0 -10 -3 -18 -10 -25l-91 -83c-6 -6 -13 -9 -21 -9c-9 0 -16 3 -23 10
c-6 6 -9 13 -9 20c0 8 4 16 11 25z" />
    <glyph glyph-name="uniF36D.var.accented" unicode="&#xf36d;`" horiz-adv-x="548" 
d="M22 68c0 7 2 14 6 21c7 11 17 17 30 17c7 0 16 -2 27 -7c38 -18 83 -27 135 -27c111 0 188 56 201 156h-236c-20 0 -37 17 -37 40s17 40 37 40h235c-19 93 -92 145 -205 145c-51 0 -92 -8 -123 -23c-8 -3 -15 -5 -21 -5c-13 0 -23 5 -30 16c-5 7 -7 14 -7 20
c0 13 9 26 26 37c39 23 92 35 159 35c86 0 156 -25 210 -74c53 -49 80 -115 80 -196c0 -82 -27 -148 -81 -197c-55 -49 -127 -74 -218 -74c-69 0 -124 13 -165 39c-15 10 -23 22 -23 37zM183 647l86 96c5 6 11 9 19 9c9 0 15 -3 20 -10l11 -13c5 -5 7 -12 7 -20
c0 -10 -3 -18 -10 -25l-91 -83c-6 -6 -13 -9 -21 -9c-9 0 -16 3 -23 10c-6 6 -9 13 -9 20c0 8 4 16 11 25z" />
    <glyph glyph-name="uniF36E.var.accented" unicode="&#xf36e;`" horiz-adv-x="871" 
d="M280 228h-111v-193c0 -23 -19 -42 -42 -42c-24 0 -43 19 -43 42v453c0 23 19 42 43 42c23 0 42 -19 42 -42v-180h112c9 66 38 120 87 162s110 63 184 63c85 0 152 -25 203 -74s76 -115 76 -196c0 -80 -25 -145 -76 -195c-51 -51 -119 -76 -203 -76c-74 0 -136 22 -186 65
s-79 100 -86 171zM554 453c-55 0 -99 -18 -134 -53s-52 -81 -52 -137c0 -55 17 -101 52 -137s79 -54 134 -54c57 0 103 18 137 54c33 36 50 82 50 137c0 113 -75 190 -187 190zM383 647l86 96c5 6 11 9 19 9c9 0 15 -3 20 -10l11 -13c5 -5 7 -12 7 -20c0 -10 -3 -18 -10 -25
l-91 -83c-6 -6 -13 -9 -21 -9c-9 0 -16 3 -23 10c-6 6 -9 13 -9 20c0 8 4 16 11 25z" />
    <glyph glyph-name="uniF36F.var.accented" unicode="&#xf36f;`" horiz-adv-x="519" 
d="M275 528c33 0 73 -1 118 -2c24 -1 42 -20 42 -43v-448c0 -23 -19 -42 -42 -42c-24 0 -43 19 -43 42v145h-112l-123 -165c-11 -15 -24 -22 -39 -22c-21 0 -38 17 -38 38c0 10 3 19 9 27l105 139c-60 27 -103 79 -103 148c0 105 77 183 226 183zM230 260h120v185
c-34 2 -62 3 -83 3c-83 0 -128 -41 -128 -98c0 -47 42 -82 91 -90zM227 647l86 96c5 6 11 9 19 9c9 0 15 -3 20 -10l11 -13c5 -5 7 -12 7 -20c0 -10 -3 -18 -10 -25l-91 -83c-6 -6 -13 -9 -21 -9c-9 0 -16 3 -23 10c-6 6 -9 13 -9 20c0 8 4 16 11 25z" />
    <glyph glyph-name="uniF371.var.accented" unicode="&#xf371;`" horiz-adv-x="488" 
d="M132 608c-27 0 -48 18 -48 46c0 25 21 43 48 43c23 0 43 -18 43 -43c0 -28 -20 -46 -43 -46zM378 608c-25 0 -46 18 -46 46c0 25 21 43 46 43c24 0 44 -18 44 -43c0 -28 -20 -46 -44 -46zM312 690l-59 -77c-9 -11 -18 -17 -28 -17c-6 0 -12 2 -17 5c-8 5 -12 11 -12 20
c0 7 2 15 7 24l45 84c7 13 18 19 33 19c7 0 15 -2 22 -6c11 -7 17 -17 17 -29c0 -8 -3 -16 -8 -23zM169 225v-145h221c23 0 42 -19 42 -40s-19 -40 -42 -40h-264c-23 0 -42 19 -42 42v441c0 23 19 42 42 42h256c23 0 42 -19 42 -40s-19 -40 -42 -40h-213v-140h188
c23 0 42 -19 42 -40s-19 -40 -42 -40h-188z" />
    <glyph glyph-name="afii10017.var.accented" unicode="&#x410;`" horiz-adv-x="685" 
d="M581 21l-81 191h-319l-80 -191c-7 -19 -20 -28 -38 -28c-25 0 -40 18 -40 39c0 4 1 10 4 18l268 621c10 23 26 34 49 34s39 -11 48 -34l267 -618c2 -6 3 -12 3 -17c0 -23 -16 -43 -41 -43c-19 0 -32 9 -40 28zM215 292h252l-126 299zM303 796l147 78c4 2 8 3 12 3
c11 0 18 -5 23 -15l8 -18c1 -3 2 -6 2 -11c0 -12 -5 -20 -16 -24l-152 -64c-4 -1 -7 -2 -10 -2c-12 0 -21 5 -26 15c-2 4 -3 8 -3 13c0 11 5 20 15 25z" />
    <glyph glyph-name="afii10022.var.accented" unicode="&#x415;`" horiz-adv-x="575" 
d="M190 314v-234h281c21 0 39 -19 39 -40s-18 -40 -39 -40h-324c-23 0 -42 19 -42 42v616c0 23 19 42 42 42h314c21 0 39 -19 39 -40s-18 -40 -39 -40h-271v-226h241c21 0 39 -19 39 -40s-18 -40 -39 -40h-241zM262 796l147 78c4 2 8 3 12 3c11 0 18 -5 23 -15l8 -18
c1 -3 2 -6 2 -11c0 -12 -5 -20 -16 -24l-152 -64c-4 -1 -7 -2 -10 -2c-12 0 -21 5 -26 15c-2 4 -3 8 -3 13c0 11 5 20 15 25z" />
    <glyph glyph-name="afii10026.var.accented" unicode="&#x418;`" horiz-adv-x="795" 
d="M690 660v-625c0 -23 -19 -42 -42 -42c-24 0 -43 19 -43 42v524l-407 -535c-15 -21 -32 -31 -50 -31c-29 0 -43 15 -43 46v625c0 23 19 41 43 41c23 0 42 -18 42 -41v-524l407 535c15 20 31 30 48 30c28 0 45 -17 45 -45zM352 796l147 78c4 2 8 3 12 3c11 0 18 -5 23 -15
l8 -18c1 -3 2 -6 2 -11c0 -12 -5 -20 -16 -24l-152 -64c-4 -1 -7 -2 -10 -2c-12 0 -21 5 -26 15c-2 4 -3 8 -3 13c0 11 5 20 15 25z" />
    <glyph glyph-name="afii10032.var.accented" unicode="&#x41e;`" horiz-adv-x="814" 
d="M407 -10c-103 0 -188 34 -255 101c-68 67 -102 154 -102 259c0 102 34 188 101 257s153 103 256 103s188 -34 256 -101c67 -67 101 -154 101 -259c0 -103 -34 -189 -102 -257c-68 -69 -153 -103 -255 -103zM407 630c-77 0 -140 -26 -191 -79s-76 -120 -76 -201
c0 -79 26 -146 77 -199c51 -54 115 -81 190 -81c79 0 143 27 193 80c49 53 74 120 74 200c0 81 -26 148 -77 201s-115 79 -190 79zM362 796l147 78c4 2 8 3 12 3c11 0 18 -5 23 -15l8 -18c1 -3 2 -6 2 -11c0 -12 -5 -20 -16 -24l-152 -64c-4 -1 -7 -2 -10 -2
c-12 0 -21 5 -26 15c-2 4 -3 8 -3 13c0 11 5 20 15 25z" />
    <glyph glyph-name="afii10037.var.accented" unicode="&#x423;`" horiz-adv-x="652" 
d="M31 666c0 21 15 39 40 39c17 0 31 -10 44 -31l246 -413l180 411c10 22 23 33 40 33c25 0 40 -16 40 -36c0 -7 -1 -14 -4 -19l-220 -490c-49 -111 -99 -160 -174 -160c-19 0 -37 3 -53 8s-32 20 -32 40c0 5 2 11 5 19c7 14 18 21 33 21c7 0 12 -1 16 -3c10 -4 20 -6 30 -6
c35 0 63 24 86 71l12 26l-282 466c-5 7 -7 15 -7 24zM295 796l147 78c4 2 8 3 12 3c11 0 18 -5 23 -15l8 -18c1 -3 2 -6 2 -11c0 -12 -5 -20 -16 -24l-152 -64c-4 -1 -7 -2 -10 -2c-12 0 -21 5 -26 15c-2 4 -3 8 -3 13c0 11 5 20 15 25z" />
    <glyph glyph-name="afii10045.var.accented" unicode="&#x42b;`" horiz-adv-x="845" 
d="M655 35v629c0 23 19 41 43 41c23 0 42 -18 42 -41v-629c0 -23 -19 -42 -42 -42c-24 0 -43 19 -43 42zM190 359v-278c54 -2 82 -3 84 -3c119 0 178 50 178 149c0 89 -62 138 -175 138c-23 0 -52 -2 -87 -6zM264 -2c-33 0 -72 1 -117 2c-24 0 -42 19 -42 42v622
c0 23 19 41 43 41c23 0 42 -18 42 -41v-224c42 3 73 5 93 5c172 0 259 -80 259 -216c0 -147 -103 -231 -278 -231zM362 796l147 78c4 2 8 3 12 3c11 0 18 -5 23 -15l8 -18c1 -3 2 -6 2 -11c0 -12 -5 -20 -16 -24l-152 -64c-4 -1 -7 -2 -10 -2c-12 0 -21 5 -26 15
c-2 4 -3 8 -3 13c0 11 5 20 15 25z" />
    <glyph glyph-name="afii10047.var.accented" unicode="&#x42d;`" horiz-adv-x="665" 
d="M30 73c0 8 2 15 6 21c8 12 19 18 32 18c9 0 16 -2 22 -5c53 -25 107 -37 164 -37c75 0 137 22 188 67c50 44 79 104 86 180h-308c-21 0 -39 19 -39 40s18 40 39 40h307c-17 145 -126 233 -283 233c-39 0 -87 -13 -144 -38c-5 -3 -11 -4 -18 -4c-15 0 -26 6 -33 18
c-3 5 -5 12 -5 19c0 15 6 26 19 33c64 35 131 52 201 52c105 0 189 -33 254 -98s97 -152 97 -260c0 -107 -33 -194 -98 -261s-152 -101 -261 -101c-79 0 -148 16 -207 48c-13 8 -19 20 -19 35zM230 796l147 78c4 2 8 3 12 3c11 0 18 -5 23 -15l8 -18c1 -3 2 -6 2 -11
c0 -12 -5 -20 -16 -24l-152 -64c-4 -1 -7 -2 -10 -2c-12 0 -21 5 -26 15c-2 4 -3 8 -3 13c0 11 5 20 15 25z" />
    <glyph glyph-name="afii10048.var.accented" unicode="&#x42e;`" horiz-adv-x="1078" 
d="M340 317h-150v-282c0 -23 -19 -42 -42 -42c-24 0 -43 19 -43 42v629c0 23 19 41 43 41c23 0 42 -18 42 -41v-267h151c10 91 46 166 109 225c62 59 139 88 231 88c102 0 185 -33 250 -100s97 -154 97 -260c0 -104 -32 -190 -97 -258s-149 -102 -250 -102
c-92 0 -170 30 -234 91c-65 61 -100 139 -107 236zM683 630c-73 0 -134 -26 -182 -79s-72 -120 -72 -201c0 -79 24 -146 73 -199c48 -54 108 -81 181 -81c79 0 141 26 187 79c45 53 68 120 68 201c0 82 -24 149 -71 202c-47 52 -109 78 -184 78zM512 796l147 78
c4 2 8 3 12 3c11 0 18 -5 23 -15l8 -18c1 -3 2 -6 2 -11c0 -12 -5 -20 -16 -24l-152 -64c-4 -1 -7 -2 -10 -2c-12 0 -21 5 -26 15c-2 4 -3 8 -3 13c0 11 5 20 15 25z" />
    <glyph glyph-name="afii10049.var.accented" unicode="&#x42f;`" horiz-adv-x="608" 
d="M339 703c11 0 30 0 59 -1c28 -1 49 -1 63 -1c24 -1 42 -20 42 -43v-623c0 -23 -19 -42 -42 -42c-24 0 -43 19 -43 42v225h-131l-169 -242c-11 -17 -25 -25 -42 -25c-23 0 -37 16 -37 36c0 9 3 18 9 26l156 220c-79 32 -138 103 -138 196c0 67 23 123 69 167
c46 43 114 65 204 65zM277 340h141v280c-46 2 -78 3 -95 3c-105 0 -167 -60 -167 -147c0 -71 56 -125 121 -136zM302 796l147 78c4 2 8 3 12 3c11 0 18 -5 23 -15l8 -18c1 -3 2 -6 2 -11c0 -12 -5 -20 -16 -24l-152 -64c-4 -1 -7 -2 -10 -2c-12 0 -21 5 -26 15
c-2 4 -3 8 -3 13c0 11 5 20 15 25z" />
    <glyph glyph-name="afii10023.var.accented" unicode="&#x401;`" horiz-adv-x="575" 
d="M167 764c-25 0 -43 18 -43 49c0 28 18 45 43 45c23 0 41 -18 41 -45c0 -31 -18 -49 -41 -49zM447 764c-24 0 -44 18 -44 49c0 27 20 45 44 45c23 0 41 -18 41 -45c0 -31 -18 -49 -41 -49zM369 835l-82 -74c-9 -7 -16 -11 -23 -11c-11 0 -16 5 -16 15c0 5 1 10 4 13l65 85
c11 14 23 21 34 21c17 0 29 -12 29 -27c0 -8 -4 -15 -11 -22zM190 314v-234h281c21 0 39 -19 39 -40s-18 -40 -39 -40h-324c-23 0 -42 19 -42 42v616c0 23 19 42 42 42h314c21 0 39 -19 39 -40s-18 -40 -39 -40h-271v-226h241c21 0 39 -19 39 -40s-18 -40 -39 -40h-241z" />
    <glyph glyph-name="afii10065.var.accented" unicode="&#x430;`" horiz-adv-x="460" 
d="M40 132c0 89 70 143 170 143c48 0 85 -10 112 -29c0 96 -19 142 -102 142c-29 0 -59 -6 -90 -18c-5 -2 -10 -3 -15 -3c-15 0 -25 7 -31 20c-2 5 -3 9 -3 14c0 16 7 27 20 32c43 18 85 27 124 27c124 0 173 -61 173 -184v-248c0 -19 -17 -35 -38 -35s-38 16 -38 35v30
c-35 -43 -83 -65 -144 -65c-83 0 -138 54 -138 139zM322 123v57c-28 20 -62 30 -101 30c-53 0 -96 -26 -96 -74c0 -44 30 -71 81 -71c45 0 83 19 116 58zM204 590l72 107c5 8 13 12 24 12c7 0 12 -2 17 -6l14 -10c7 -6 11 -14 11 -23c0 -8 -2 -14 -7 -19l-80 -97
c-7 -8 -16 -12 -26 -12c-6 0 -12 2 -17 5c-9 6 -13 15 -13 26c0 6 2 12 5 17z" />
    <glyph glyph-name="afii10070.var.accented" unicode="&#x435;`" horiz-adv-x="525" 
d="M127 265h273c-4 75 -53 120 -130 120c-80 0 -134 -49 -143 -120zM483 254c0 -10 0 -17 -1 -22c-1 -16 -18 -32 -34 -32h-316c7 -84 68 -135 157 -135c42 0 79 9 110 27c7 4 15 6 22 6c10 0 19 -4 27 -13c4 -5 6 -11 6 -18c0 -13 -4 -22 -12 -27
c-47 -33 -100 -50 -159 -50c-73 0 -131 21 -175 64s-66 100 -66 171c0 68 21 124 62 169c41 44 98 66 170 66c59 0 109 -19 149 -57c40 -39 60 -88 60 -149zM233 590l72 107c5 8 13 12 24 12c6 0 12 -2 17 -6l14 -10c7 -6 11 -14 11 -23c0 -8 -2 -14 -7 -19l-80 -97
c-7 -8 -15 -12 -26 -12c-6 0 -12 2 -17 5c-9 6 -13 15 -13 26c0 6 2 12 5 17z" />
    <glyph glyph-name="afii10074.var.accented" unicode="&#x438;`" 
d="M492 414v-383c4 -49 -84 -49 -80 0v297l-243 -299c-20 -24 -39 -36 -57 -36c-23 0 -40 19 -40 40v384c-4 49 84 49 80 0v-298l243 299c21 25 40 37 57 37c23 0 40 -20 40 -41zM241 590l72 107c5 8 13 12 24 12c6 0 12 -2 17 -6l14 -10c7 -6 11 -14 11 -23
c0 -8 -2 -14 -7 -19l-80 -97c-7 -8 -15 -12 -26 -12c-6 0 -12 2 -17 5c-9 6 -13 15 -13 26c0 6 2 12 5 17z" />
    <glyph glyph-name="afii10080.var.accented" unicode="&#x43e;`" 
d="M109 57c-45 44 -67 100 -67 168s22 124 67 169c44 44 102 66 173 66s129 -22 174 -66c44 -45 66 -101 66 -169s-22 -124 -66 -168c-45 -45 -103 -67 -174 -67s-129 22 -173 67zM127 225c0 -93 64 -160 155 -160s155 65 155 160c0 93 -64 160 -155 160
c-89 0 -155 -65 -155 -160zM246 590l72 107c5 8 13 12 24 12c6 0 12 -2 17 -6l14 -10c7 -6 11 -14 11 -23c0 -8 -2 -14 -7 -19l-80 -97c-7 -8 -16 -12 -26 -12c-6 0 -12 2 -17 5c-9 6 -13 15 -13 26c0 6 2 12 5 17z" />
    <glyph glyph-name="afii10085.var.accented" unicode="&#x443;`" horiz-adv-x="479" 
d="M106 430l123 -266c1 -3 10 -26 27 -68c6 22 13 45 21 69l95 259c7 21 20 31 39 31c28 0 44 -16 44 -39c0 -5 -1 -11 -4 -19l-159 -397c-31 -78 -59 -131 -84 -159c-25 -27 -55 -41 -88 -41c-53 0 -80 16 -80 47c0 21 11 32 32 32c7 0 27 -5 39 -5c37 0 65 30 96 102
l10 24l-189 394c-3 5 -4 12 -4 19c0 23 17 42 44 42c17 0 30 -8 38 -25zM210 590l72 107c5 8 13 12 24 12c7 0 12 -2 17 -6l14 -10c7 -6 11 -14 11 -23c0 -8 -2 -14 -7 -19l-80 -97c-7 -8 -16 -12 -26 -12c-6 0 -12 2 -17 5c-9 6 -13 15 -13 26c0 6 2 12 5 17z" />
    <glyph glyph-name="afii10093.var.accented" unicode="&#x44b;`" horiz-adv-x="642" 
d="M152 417v-102h74c128 0 178 -64 178 -155s-56 -160 -187 -160h-107c-21 0 -38 17 -38 38v379c-4 49 84 49 80 0zM570 417v-386c4 -49 -84 -49 -80 0v386c-4 49 84 49 80 0zM152 240v-165h58c77 0 109 27 109 82s-36 83 -108 83h-59zM269 590l72 107c5 8 13 12 24 12
c6 0 12 -2 17 -6l14 -10c7 -6 11 -14 11 -23c0 -8 -2 -14 -7 -19l-80 -97c-7 -8 -15 -12 -26 -12c-6 0 -12 2 -17 5c-9 6 -13 15 -13 26c0 6 2 12 5 17z" />
    <glyph glyph-name="afii10095.var.accented" unicode="&#x44d;`" horiz-adv-x="478" 
d="M67 96c9 0 18 -3 27 -8c29 -15 65 -23 108 -23c84 0 140 48 151 131h-188c-19 0 -34 14 -34 33c0 17 15 32 34 32h187c-12 81 -72 124 -156 124c-41 0 -77 -10 -110 -30c-7 -5 -15 -7 -24 -7c-12 0 -21 5 -28 14c-5 7 -7 14 -7 21c0 13 5 23 16 30c47 31 97 47 152 47
c71 0 129 -21 174 -64c44 -43 66 -100 66 -171c0 -66 -22 -122 -65 -167s-98 -68 -163 -68c-68 0 -121 13 -159 39c-11 7 -16 17 -16 30c0 9 3 17 8 23c7 9 16 14 27 14zM170 590l72 107c5 8 13 12 24 12c7 0 12 -2 17 -6l14 -10c7 -6 11 -14 11 -23c0 -8 -2 -14 -7 -19
l-80 -97c-7 -8 -16 -12 -26 -12c-6 0 -12 2 -17 5c-9 6 -13 15 -13 26c0 6 2 12 5 17z" />
    <glyph glyph-name="afii10096.var.accented" unicode="&#x44e;`" horiz-adv-x="760" 
d="M254 190h-97v-157c0 -23 -18 -40 -42 -40c-25 0 -43 17 -43 40v382c0 23 18 40 43 40c24 0 42 -17 42 -40v-145h98c19 113 106 190 227 190c70 0 127 -22 170 -66c43 -45 65 -101 65 -169s-22 -124 -65 -168c-44 -45 -101 -67 -170 -67c-63 0 -114 19 -155 56
s-66 85 -73 144zM342 225c0 -93 59 -155 143 -155s142 62 142 155c0 92 -57 155 -142 155c-84 0 -143 -63 -143 -155zM346 590l72 107c5 8 13 12 24 12c7 0 12 -2 17 -6l14 -10c7 -6 11 -14 11 -23c0 -8 -2 -14 -7 -19l-80 -97c-7 -8 -16 -12 -26 -12c-6 0 -12 2 -17 5
c-9 6 -13 15 -13 26c0 6 2 12 5 17z" />
    <glyph glyph-name="afii10097.var.accented" unicode="&#x44f;`" horiz-adv-x="463" 
d="M60 57l86 113c-52 12 -97 61 -97 130c0 87 61 150 201 150h102c21 0 38 -17 38 -38v-381c4 -49 -84 -49 -80 0v119h-87l-99 -135c-11 -15 -22 -22 -35 -22c-24 0 -40 15 -40 35c0 9 4 18 11 29zM218 225h92v150h-73c-71 0 -103 -32 -103 -77c0 -44 41 -73 84 -73z
M223 590l72 107c5 8 13 12 24 12c6 0 12 -2 17 -6l14 -10c7 -6 11 -14 11 -23c0 -8 -2 -14 -7 -19l-80 -97c-7 -8 -15 -12 -26 -12c-6 0 -12 2 -17 5c-9 6 -13 15 -13 26c0 6 2 12 5 17z" />
    <glyph glyph-name="afii10071.var.accented" unicode="&#x451;`" horiz-adv-x="525" 
d="M96 602c0 24 17 39 40 39c20 0 37 -16 37 -39c0 -25 -17 -41 -37 -41c-23 0 -40 16 -40 41zM360 602c0 23 19 39 40 39c20 0 37 -16 37 -39c0 -25 -17 -41 -37 -41c-23 0 -40 16 -40 41zM219 584l71 105c7 9 15 13 25 13c6 0 12 -2 19 -7c8 -7 12 -16 12 -26
c0 -8 -2 -15 -7 -20l-78 -93c-7 -9 -16 -13 -25 -13c-5 0 -10 1 -13 4c-7 5 -11 11 -11 19c0 6 2 12 7 18zM127 265h273c-4 75 -53 120 -130 120c-80 0 -134 -49 -143 -120zM483 254c0 -10 0 -17 -1 -22c-1 -16 -18 -32 -34 -32h-316c7 -84 68 -135 157 -135
c42 0 79 9 110 27c7 5 15 7 24 7c10 0 18 -4 25 -13c5 -7 7 -14 7 -21c0 -11 -4 -20 -13 -25c-47 -33 -100 -50 -159 -50c-73 0 -131 21 -175 64s-66 100 -66 171c0 68 21 124 62 169c41 44 98 66 170 66c59 0 109 -19 149 -57c40 -39 60 -88 60 -149z" />
    <glyph glyph-name="fi" unicode="fi" horiz-adv-x="514" 
d="M444 412v-381c4 -49 -84 -49 -80 0v344h-202v-344c4 -49 -84 -49 -80 0v480c0 133 71 199 188 199c55 0 99 -14 134 -42c11 -9 16 -19 16 -30c0 -21 -15 -36 -35 -36c-11 0 -23 5 -36 14c-19 13 -41 19 -66 19c-81 0 -121 -44 -121 -133v-52h244c21 0 38 -17 38 -38z" />
    <glyph glyph-name="fl" unicode="fl" horiz-adv-x="559" 
d="M522 72c16 0 33 -11 33 -32c0 -31 -31 -47 -94 -47c-78 0 -117 42 -117 127v487c-25 19 -53 28 -82 28c-67 0 -100 -40 -100 -121v-64h65c21 0 38 -17 38 -37c0 -21 -17 -38 -38 -38h-65v-344c4 -49 -84 -49 -80 0v492c0 124 57 187 158 187c48 0 86 -11 114 -32h32
c21 0 38 -17 38 -38v-484c0 -61 16 -89 53 -89c12 0 38 5 45 5z" />
    <glyph glyph-name=".notdef" horiz-adv-x="225" 
 />
    <glyph glyph-name="NULL" horiz-adv-x="0" 
 />
    <glyph glyph-name="nonmarkingreturn" horiz-adv-x="333" 
 />
    <glyph glyph-name="space" unicode=" " horiz-adv-x="225" 
 />
    <glyph glyph-name="exclam" unicode="!" horiz-adv-x="309" 
d="M112 257v407c0 23 19 41 43 41c23 0 42 -18 42 -41v-407c0 -23 -19 -42 -42 -42c-24 0 -43 19 -43 42zM157 -3c-35 0 -58 26 -58 57c0 28 23 53 58 53c29 0 53 -26 53 -53c0 -31 -22 -57 -53 -57z" />
    <glyph glyph-name="quotedbl" unicode="&#x22;" horiz-adv-x="415" 
d="M330 660v-143c2 -52 -82 -52 -80 0v143c0 21 19 40 40 40s40 -19 40 -40zM165 660v-143c4 -52 -84 -52 -80 0v143c0 21 17 40 40 40s40 -19 40 -40z" />
    <glyph glyph-name="numbersign" unicode="#" horiz-adv-x="704" 
d="M630 195h-175l-65 -175c-5 -14 -15 -21 -30 -21c-3 0 -7 1 -12 2c-15 5 -22 16 -22 31c0 3 1 6 2 10l56 153h-184l-65 -175c-5 -14 -16 -21 -31 -21c-2 0 -6 1 -11 2c-15 5 -23 16 -23 31c0 3 1 6 2 10l57 153h-55c-44 -3 -44 73 0 70h81l63 170h-144c-44 -3 -44 73 0 70
h170l65 174c5 15 16 22 32 22c2 0 6 -1 11 -2c15 -7 22 -17 22 -32c0 -3 -1 -6 -2 -10l-57 -152h184l65 175c5 14 16 21 32 21c2 0 6 -1 11 -2c15 -5 22 -16 22 -31c0 -3 -1 -6 -2 -10l-57 -153h60c44 3 44 -73 0 -70h-86l-63 -170h149c44 3 44 -73 0 -70zM473 435h-184
l-63 -170h184z" />
    <glyph glyph-name="dollar" unicode="$" horiz-adv-x="568" 
d="M238 -61v53c-57 7 -111 31 -162 74c-10 8 -15 18 -15 31c0 9 3 17 9 25c9 11 19 16 31 16c10 0 20 -4 29 -11c51 -38 99 -57 144 -57c76 0 132 41 132 109c0 171 -342 116 -342 348c0 92 67 164 174 180v44c0 21 19 39 40 39s40 -18 40 -39v-43c48 -6 88 -18 120 -37
c17 -9 25 -22 25 -37c0 -7 -3 -14 -8 -23c-7 -11 -18 -16 -31 -16c-9 0 -17 2 -26 7c-33 19 -71 28 -113 28c-83 0 -131 -40 -131 -103c0 -173 342 -108 342 -347c0 -99 -73 -171 -178 -186v-55c0 -21 -19 -39 -40 -39s-40 18 -40 39z" />
    <glyph glyph-name="percent" unicode="%" horiz-adv-x="877" 
d="M702 653l-479 -640c-5 -8 -12 -12 -23 -12c-7 0 -13 2 -18 6c-7 5 -11 13 -11 23c0 7 2 12 5 16l480 641c5 8 13 12 23 12c6 0 12 -2 17 -6c7 -5 11 -13 11 -24c0 -7 -2 -12 -5 -16zM359 415c-35 -32 -78 -48 -131 -48s-96 16 -131 48c-35 31 -52 72 -52 122
s17 91 52 122c34 31 78 47 131 47s97 -16 132 -47c34 -31 51 -72 51 -122s-17 -91 -52 -122zM305 612c-62 62 -191 19 -185 -75c0 -63 49 -105 108 -105c60 0 108 42 108 105c0 31 -10 56 -31 75zM780 42c-35 -32 -78 -48 -131 -48s-96 16 -131 48c-35 31 -52 72 -52 122
s17 91 52 122c34 31 78 47 131 47s97 -16 132 -47c34 -31 51 -72 51 -122s-17 -91 -52 -122zM726 239c-62 62 -191 19 -185 -75c0 -63 49 -105 108 -105c60 0 108 42 108 105c0 31 -10 56 -31 75z" />
    <glyph glyph-name="ampersand" unicode="&#x26;" horiz-adv-x="724" 
d="M575 412c1 23 15 40 38 40c27 0 41 -17 41 -38v-2c-7 -103 -36 -191 -87 -263l69 -87c8 -10 12 -20 12 -30c0 -21 -18 -39 -38 -39c-13 0 -26 8 -39 24l-60 75c-53 -68 -124 -102 -215 -102c-66 0 -120 19 -162 57c-43 37 -64 85 -64 143c0 105 63 174 166 243
c-56 19 -93 67 -93 132c0 42 15 77 46 104c30 27 66 41 108 41s78 -13 109 -40s46 -62 46 -105c0 -64 -47 -122 -104 -133l170 -219c32 58 51 124 57 199zM160 206c0 -39 14 -72 41 -97c27 -26 59 -39 97 -39c71 0 125 29 164 86l-175 230c-83 -63 -127 -115 -127 -180z
M354 622c-46 50 -140 13 -136 -57c-4 -67 90 -107 136 -56c31 31 31 81 0 113z" />
    <glyph glyph-name="quotesingle" unicode="'" horiz-adv-x="250" 
d="M165 660v-143c4 -52 -84 -52 -80 0v143c0 21 17 40 40 40s40 -19 40 -40z" />
    <glyph glyph-name="parenleft" unicode="(" horiz-adv-x="290" 
d="M251 650c9 0 16 -3 22 -9c7 -7 10 -14 10 -23s-4 -19 -13 -29c-100 -104 -150 -225 -150 -364c0 -135 54 -266 150 -365c9 -9 13 -18 13 -28c0 -17 -16 -33 -33 -33c-10 0 -20 4 -30 13c-120 115 -180 253 -180 413c0 157 61 294 182 413c8 8 18 12 29 12z" />
    <glyph glyph-name="parenright" unicode=")" horiz-adv-x="290" 
d="M7 618c0 9 3 16 10 23c6 6 13 9 22 9c11 0 21 -4 29 -12c121 -119 182 -256 182 -413c0 -160 -60 -298 -180 -413c-10 -9 -20 -13 -30 -13c-17 0 -33 16 -33 33c0 10 4 19 13 28c96 99 150 230 150 365c0 139 -50 260 -150 364c-9 10 -13 20 -13 29z" />
    <glyph glyph-name="asterisk" unicode="*" horiz-adv-x="479" 
d="M240 606c-28 0 -51 23 -51 51s24 52 51 52c29 0 53 -24 53 -52c0 -29 -22 -51 -53 -51zM239 323c-27 0 -52 25 -52 52c0 29 24 54 52 54s53 -25 53 -54c0 -27 -25 -52 -53 -52zM355 532c-28 0 -50 24 -50 52c0 29 22 53 50 53c29 0 53 -24 53 -53c0 -28 -24 -52 -53 -52z
M355 398c-28 0 -50 24 -50 53s22 52 50 52c29 0 53 -23 53 -52s-24 -53 -53 -53zM122 398c-28 0 -51 24 -51 53s23 52 51 52c29 0 52 -23 52 -52s-23 -53 -52 -53zM122 532c-28 0 -51 24 -51 52c0 29 23 53 51 53c29 0 52 -24 52 -53c0 -28 -23 -52 -52 -52z" />
    <glyph glyph-name="plus" unicode="+" horiz-adv-x="592" 
d="M332 325v-158c0 -19 -15 -36 -38 -36c-21 0 -37 17 -37 36v158h-156c-42 0 -42 70 0 70h156v156c0 19 14 35 37 35s38 -16 38 -35v-156h159c42 0 42 -70 0 -70h-159z" />
    <glyph glyph-name="comma" unicode="," horiz-adv-x="207" 
d="M59 -100c21 15 35 34 41 59c3 10 4 19 4 28s-2 17 -5 22c-4 -6 -11 -9 -22 -9c-20 0 -38 21 -38 46c0 32 21 53 57 53c43 0 72 -38 72 -97c0 -63 -27 -110 -82 -139c-7 -4 -13 -6 -19 -6c-7 0 -13 3 -18 10c-3 3 -4 7 -4 11c0 9 5 16 14 22z" />
    <glyph glyph-name="hyphen" unicode="-" horiz-adv-x="389" 
d="M113 310h163c21 0 38 -17 38 -37c0 -21 -17 -38 -38 -38h-163c-21 0 -38 17 -38 37c0 21 17 38 38 38z" />
    <glyph glyph-name="period" unicode="." horiz-adv-x="210" 
d="M50 54c0 28 24 53 57 53c29 0 53 -26 53 -53c0 -31 -22 -57 -53 -57c-33 0 -57 26 -57 57z" />
    <glyph glyph-name="slash" unicode="/" horiz-adv-x="347" 
d="M360 657l-310 -835c-6 -14 -16 -21 -31 -21c-3 0 -7 1 -12 2c-15 7 -22 17 -22 32c0 3 1 6 2 10l311 835c5 13 15 20 30 20c6 0 10 -1 13 -2c14 -5 21 -16 21 -31c0 -3 -1 -6 -2 -10z" />
    <glyph glyph-name="zero" unicode="0" 
d="M454 88c-37 -64 -94 -96 -170 -96s-133 32 -171 97c-39 64 -58 151 -58 261s19 197 57 262c37 64 94 96 170 96s133 -32 171 -96c37 -65 56 -152 56 -262c0 -111 -18 -198 -55 -262zM282 633c-95 0 -142 -94 -142 -283s48 -283 144 -283c99 0 140 95 140 283
c0 187 -43 283 -142 283z" />
    <glyph glyph-name="one" unicode="1" horiz-adv-x="366" 
d="M166 31v558l-68 -53c-7 -6 -15 -9 -26 -9c-13 0 -24 5 -31 14c-5 6 -8 13 -8 22c0 13 6 24 17 33l127 98c9 7 19 10 30 10c21 0 39 -17 39 -38v-635c4 -49 -84 -49 -80 0z" />
    <glyph glyph-name="two" unicode="2" horiz-adv-x="517" 
d="M139 75h285c21 0 38 -17 38 -37c0 -21 -17 -38 -38 -38h-355c-27 0 -43 16 -43 37c0 13 9 28 27 46c31 30 56 55 77 76c20 21 45 49 76 84c30 35 54 66 73 93c36 55 69 126 69 179c0 65 -41 113 -114 113c-52 0 -89 -24 -111 -72c-8 -17 -21 -26 -40 -26
c-25 0 -40 17 -40 40c0 3 1 7 2 14c28 81 105 124 196 124c61 0 109 -17 142 -52s50 -77 50 -125c0 -91 -52 -196 -129 -286c-39 -45 -69 -79 -92 -102s-48 -46 -73 -68z" />
    <glyph glyph-name="three" unicode="3" horiz-adv-x="532" 
d="M66 624c41 57 101 86 181 86c117 0 193 -68 193 -177c0 -77 -38 -138 -109 -169c84 -16 136 -86 136 -171c0 -61 -21 -110 -62 -147s-94 -56 -158 -56c-93 0 -160 29 -201 88c-7 11 -11 21 -11 31c0 13 5 23 16 30c8 5 15 7 21 7c14 0 26 -7 37 -21
c31 -37 76 -55 135 -55c85 0 138 53 138 126c0 75 -58 122 -143 122h-17c-56 -4 -56 84 0 80h12c32 0 60 12 85 35c24 23 36 51 36 86c0 69 -43 111 -114 111c-49 0 -86 -16 -112 -49c-10 -12 -22 -18 -36 -18c-7 0 -14 2 -21 6c-10 7 -15 16 -15 28c0 9 3 18 9 27z" />
    <glyph glyph-name="four" unicode="4" horiz-adv-x="545" 
d="M473 175h-55v-135c2 -52 -82 -52 -80 0v135h-281c-23 0 -43 18 -43 41c0 9 3 19 9 28l268 433c10 17 23 25 39 25c21 0 37 -17 37 -37c0 -9 -2 -17 -7 -24l-240 -386h218v155c-2 52 82 52 80 0v-155h55c23 0 42 -19 42 -40s-19 -40 -42 -40z" />
    <glyph glyph-name="five" unicode="5" horiz-adv-x="505" 
d="M65 143c11 0 23 -6 34 -19c33 -36 75 -54 128 -54c40 0 74 14 101 42s40 63 40 106c0 85 -67 148 -170 148c-11 0 -28 -1 -49 -4c-1 0 -6 -1 -9 -1c-27 0 -44 18 -44 45v8l31 248c3 21 22 38 43 38h240c49 4 49 -84 0 -80h-208l-26 -189c17 5 36 7 56 7
c65 0 118 -20 159 -59c41 -40 62 -93 62 -158c0 -70 -22 -126 -66 -168s-98 -63 -162 -63c-80 0 -144 30 -191 90c-5 7 -8 15 -8 24c0 14 5 24 16 31c9 5 16 8 23 8z" />
    <glyph glyph-name="six" unicode="6" horiz-adv-x="559" 
d="M381 633c-116 -45 -210 -148 -237 -295c33 62 88 93 165 93c58 0 106 -20 144 -60c37 -40 56 -92 56 -155c0 -66 -22 -120 -65 -162c-43 -43 -94 -64 -151 -64c-75 0 -135 25 -178 75c-43 49 -65 110 -65 183c0 111 31 207 93 290c61 83 131 137 210 163c9 3 17 4 22 4
c16 0 27 -7 33 -22c2 -5 3 -9 3 -14c0 -17 -10 -29 -30 -36zM282 356c-75 0 -128 -51 -147 -108c0 -101 57 -178 157 -178c38 0 70 14 95 42c25 27 37 60 37 98c0 85 -51 146 -142 146z" />
    <glyph glyph-name="seven" unicode="7" horiz-adv-x="480" 
d="M447 639l-248 -621c-7 -17 -19 -25 -38 -25c-25 0 -41 17 -41 38c0 5 1 11 3 17l230 572h-281c-23 0 -42 19 -42 40s19 40 42 40h336c23 0 42 -19 42 -42c0 -8 -1 -14 -3 -19z" />
    <glyph glyph-name="eight" unicode="8" horiz-adv-x="595" 
d="M285 400h26c30 0 56 11 79 34c22 23 33 50 33 81c0 71 -56 115 -127 115s-124 -47 -124 -115c0 -31 11 -58 34 -81s49 -34 79 -34zM310 320h-22c-38 0 -70 -12 -97 -35s-41 -53 -41 -89c0 -73 62 -126 147 -126c89 0 148 50 148 126c-1 76 -59 124 -135 124zM87 527
c0 54 20 98 61 132c40 34 90 51 149 51s109 -17 150 -51s61 -78 61 -132c0 -69 -44 -138 -115 -166c79 -16 137 -83 137 -174c0 -61 -22 -109 -67 -144s-100 -53 -165 -53s-120 17 -165 52s-68 81 -68 139c0 85 53 155 132 179c-63 23 -110 91 -110 167z" />
    <glyph glyph-name="nine" unicode="9" horiz-adv-x="551" 
d="M164 63c137 40 223 141 243 293c-31 -58 -84 -87 -158 -87c-61 0 -111 21 -150 62s-59 92 -59 153c0 66 23 120 68 163c45 42 97 63 155 63c75 0 134 -24 176 -73c41 -49 62 -113 62 -190c0 -120 -30 -220 -90 -300c-60 -81 -136 -132 -229 -153c-3 -1 -6 -1 -11 -1
c-20 0 -32 9 -35 26c-1 2 -1 5 -1 8c0 19 10 31 29 36zM269 344c76 0 128 47 147 103c0 51 -13 95 -39 130s-64 53 -113 53c-38 0 -71 -14 -98 -41c-27 -28 -41 -61 -41 -99c0 -81 55 -146 144 -146z" />
    <glyph glyph-name="colon" unicode=":" horiz-adv-x="320" 
d="M105 406c0 28 24 53 57 53c29 0 53 -26 53 -53c0 -31 -22 -57 -53 -57c-33 0 -57 26 -57 57zM105 54c0 28 24 53 57 53c29 0 53 -26 53 -53c0 -31 -22 -57 -53 -57c-33 0 -57 26 -57 57z" />
    <glyph glyph-name="semicolon" unicode=";" horiz-adv-x="321" 
d="M106 406c0 28 24 53 57 53c29 0 53 -26 53 -53c0 -31 -22 -57 -53 -57c-33 0 -57 26 -57 57zM122 -100c21 15 35 34 41 59c3 10 4 19 4 28s-2 17 -5 22c-4 -6 -11 -9 -22 -9c-20 0 -38 21 -38 46c0 32 21 53 57 53c43 0 72 -38 72 -97c0 -63 -27 -110 -82 -139
c-7 -4 -14 -6 -19 -6c-7 0 -13 3 -18 10c-3 3 -4 7 -4 11c0 9 5 16 14 22z" />
    <glyph glyph-name="less" unicode="&#x3c;" horiz-adv-x="574" 
d="M177 362l311 -185c13 -8 19 -19 19 -32c0 -21 -17 -38 -37 -38c-7 0 -13 2 -20 6l-365 221c-24 13 -24 43 0 56l365 219c7 4 14 6 21 6c20 0 36 -16 36 -35c0 -15 -6 -27 -19 -35z" />
    <glyph glyph-name="equal" unicode="=" horiz-adv-x="592" 
d="M101 485h390c42 0 42 -70 0 -70h-390c-42 0 -42 70 0 70zM101 305h390c42 0 42 -70 0 -70h-390c-42 0 -42 70 0 70z" />
    <glyph glyph-name="greater" unicode="&#x3e;" horiz-adv-x="574" 
d="M104 107c-20 0 -37 17 -37 38c0 13 6 24 19 32l311 185l-311 183c-13 8 -19 20 -19 35c0 19 16 35 36 35c7 0 14 -2 21 -6l365 -219c24 -13 24 -43 0 -56l-365 -221c-7 -4 -14 -6 -20 -6z" />
    <glyph glyph-name="question" unicode="?" horiz-adv-x="458" 
d="M228 231v-8l1 -14v-2c0 -22 -10 -34 -31 -36h-4c-22 0 -34 11 -37 34l-2 18c-1 5 -1 11 -1 20c0 144 182 136 182 277c0 61 -51 110 -122 110c-39 0 -77 -15 -115 -45c-9 -7 -18 -10 -27 -10c-11 0 -21 5 -28 14c-5 7 -8 14 -8 23c0 11 4 20 12 27c53 47 110 71 171 71
c63 0 112 -17 149 -50c36 -33 54 -74 54 -123c0 -108 -71 -158 -125 -198c-38 -28 -69 -63 -69 -108zM196 -3c-35 0 -58 26 -58 57c0 28 23 53 58 53c29 0 53 -26 53 -53c0 -31 -22 -57 -53 -57z" />
    <glyph glyph-name="at" unicode="@" horiz-adv-x="1006" 
d="M513 -213c-129 0 -236 42 -321 125s-127 188 -127 313c0 123 43 227 128 312c85 84 191 126 320 126c123 0 226 -36 307 -109s121 -168 121 -283c0 -73 -20 -137 -61 -190c-41 -54 -97 -81 -169 -81h-42c-23 0 -41 19 -41 44c-40 -36 -86 -54 -139 -54
c-68 0 -122 21 -162 64c-41 43 -61 100 -61 171c0 66 24 122 72 167s108 68 181 68c58 0 112 -12 162 -36c15 -7 27 -27 27 -43v-306h21c41 0 75 19 100 56s37 83 37 139c0 91 -33 166 -98 227c-66 61 -151 91 -255 91c-107 0 -195 -34 -266 -101
c-71 -68 -107 -155 -107 -262c0 -103 36 -190 108 -259c71 -69 160 -104 265 -104c21 0 46 2 75 7c3 0 7 1 10 1c21 0 34 -9 37 -28c1 -2 1 -5 1 -10c0 -20 -12 -32 -35 -37c-27 -5 -57 -8 -88 -8zM628 124v232c-34 19 -71 29 -110 29c-49 0 -89 -16 -120 -47
c-31 -32 -47 -71 -47 -117c0 -96 60 -156 151 -156c49 0 98 27 126 59z" />
    <glyph glyph-name="A" unicode="A" horiz-adv-x="685" 
d="M581 21l-81 191h-319l-80 -191c-7 -19 -20 -28 -38 -28c-25 0 -40 18 -40 39c0 4 1 10 4 18l268 621c10 23 26 34 49 34s39 -11 48 -34l267 -618c2 -6 3 -12 3 -17c0 -23 -16 -43 -41 -43c-19 0 -32 9 -40 28zM215 292h252l-126 299z" />
    <glyph glyph-name="B" unicode="B" horiz-adv-x="617" 
d="M297 703c157 0 225 -68 225 -173c0 -84 -48 -138 -120 -163c89 -16 145 -74 145 -167c0 -136 -101 -203 -254 -203c-40 0 -89 1 -146 2c-23 1 -42 20 -42 43v615c0 23 19 43 42 43c86 2 136 3 150 3zM303 319h-113v-238c31 -3 67 -4 108 -4c105 0 164 44 164 128
c0 73 -58 114 -159 114zM190 620v-226h112c77 0 135 44 135 117c0 75 -47 112 -142 112c-20 0 -55 -1 -105 -3z" />
    <glyph glyph-name="C" unicode="C" horiz-adv-x="646" 
d="M566 592c-8 0 -16 2 -24 6c-39 21 -87 32 -142 32c-76 0 -138 -26 -187 -78s-73 -119 -73 -202s25 -151 76 -202c50 -52 116 -78 197 -78c54 0 102 13 145 39c7 5 16 7 25 7c13 0 23 -5 30 -14c5 -5 7 -12 7 -20c0 -13 -6 -25 -19 -34c-55 -39 -120 -58 -196 -58
c-105 0 -191 33 -256 99c-66 65 -99 152 -99 261c0 103 32 189 95 258c63 68 147 102 254 102c71 0 133 -16 184 -47c14 -9 21 -21 21 -34c0 -7 -2 -13 -6 -19c-7 -12 -18 -18 -32 -18z" />
    <glyph glyph-name="D" unicode="D" horiz-adv-x="739" 
d="M105 42v616c0 23 18 42 42 42c98 2 148 3 149 3c280 0 393 -160 393 -344c0 -105 -35 -191 -104 -259c-70 -68 -169 -102 -297 -102c-22 0 -69 1 -141 2c-23 0 -42 19 -42 42zM190 620v-540c61 -1 95 -2 101 -2c97 0 173 26 227 78c54 51 81 119 81 203
c0 79 -26 142 -79 191s-128 73 -226 73c-34 0 -77 -3 -104 -3z" />
    <glyph glyph-name="E" unicode="E" horiz-adv-x="575" 
d="M190 314v-234h281c21 0 39 -19 39 -40s-18 -40 -39 -40h-324c-23 0 -42 19 -42 42v616c0 23 19 42 42 42h314c21 0 39 -19 39 -40s-18 -40 -39 -40h-271v-226h241c21 0 39 -19 39 -40s-18 -40 -39 -40h-241z" />
    <glyph glyph-name="F" unicode="F" horiz-adv-x="540" 
d="M431 292h-241v-257c0 -23 -19 -42 -42 -42c-24 0 -43 19 -43 42v623c0 23 19 42 42 42h314c21 0 39 -19 39 -40s-18 -40 -39 -40h-271v-248h241c21 0 39 -19 39 -40s-18 -40 -39 -40z" />
    <glyph glyph-name="G" unicode="G" horiz-adv-x="727" 
d="M404 630c-79 0 -142 -26 -191 -77s-73 -119 -73 -203c0 -85 25 -152 74 -203s113 -77 193 -77c67 0 143 26 180 62v144h-150c-21 0 -39 19 -39 40s18 40 39 40h188c23 0 42 -19 42 -42v-200c0 -19 -8 -35 -24 -47c-63 -48 -158 -77 -238 -77c-109 0 -195 33 -259 98
s-96 153 -96 262c0 103 32 188 95 257s146 103 249 103c74 0 138 -16 192 -48c14 -8 21 -19 21 -33c0 -7 -2 -14 -6 -21c-7 -12 -18 -18 -33 -18c-9 0 -17 2 -26 7c-42 22 -88 33 -138 33z" />
    <glyph glyph-name="H" unicode="H" horiz-adv-x="765" 
d="M575 397v267c0 23 19 41 43 41c23 0 42 -18 42 -41v-629c0 -23 -19 -42 -42 -42c-24 0 -43 19 -43 42v282h-385v-282c0 -23 -19 -42 -42 -42c-24 0 -43 19 -43 42v629c0 23 19 41 43 41c23 0 42 -18 42 -41v-267h385z" />
    <glyph glyph-name="I" unicode="I" horiz-adv-x="335" 
d="M125 35v629c0 23 19 41 43 41c23 0 42 -18 42 -41v-629c0 -23 -19 -42 -42 -42c-24 0 -43 19 -43 42z" />
    <glyph glyph-name="J" unicode="J" horiz-adv-x="369" 
d="M64 77c15 -5 27 -7 36 -7c53 0 79 34 79 103v491c0 23 19 41 43 41c23 0 42 -18 42 -41v-505c0 -113 -51 -169 -153 -169c-25 0 -51 6 -78 17c-14 7 -21 18 -21 34c0 6 1 11 3 16c7 15 19 23 34 23c5 0 10 -1 15 -3z" />
    <glyph glyph-name="K" unicode="K" horiz-adv-x="635" 
d="M510 16l-276 318c-7 9 -11 19 -11 30c0 12 4 23 12 32l262 287c13 15 26 22 39 22c21 0 37 -15 37 -34c0 -12 -5 -23 -15 -33l-253 -267l271 -306c10 -11 15 -22 15 -35c0 -21 -16 -37 -39 -37c-15 0 -29 8 -42 23zM105 35v629c0 23 19 41 43 41c23 0 42 -18 42 -41v-629
c0 -23 -19 -42 -42 -42c-24 0 -43 19 -43 42z" />
    <glyph glyph-name="L" unicode="L" horiz-adv-x="550" 
d="M190 664v-584h306c21 0 39 -19 39 -40s-18 -40 -39 -40h-349c-23 0 -42 19 -42 42v622c0 23 19 41 43 41c23 0 42 -18 42 -41z" />
    <glyph glyph-name="M" unicode="M" horiz-adv-x="892" 
d="M702 35v532l-210 -296c-27 -36 -63 -36 -90 0l-212 290v-526c0 -23 -19 -42 -42 -42c-24 0 -43 19 -43 42v616c0 32 20 54 49 54c21 0 40 -11 55 -32l245 -332l235 335c13 19 29 29 49 29c31 0 49 -23 49 -48v-622c0 -23 -19 -42 -42 -42c-24 0 -43 19 -43 42z" />
    <glyph glyph-name="N" unicode="N" horiz-adv-x="795" 
d="M198 669l412 -521v518c0 21 19 39 40 39s40 -18 40 -39v-630c0 -25 -15 -43 -36 -43c-17 0 -34 10 -51 31l-418 527v-519c0 -21 -19 -39 -40 -39s-40 18 -40 39v626c0 27 14 47 39 47c17 0 35 -12 54 -36z" />
    <glyph glyph-name="O" unicode="O" horiz-adv-x="814" 
d="M407 -10c-103 0 -188 34 -255 101c-68 67 -102 154 -102 259c0 102 34 188 101 257s153 103 256 103s188 -34 256 -101c67 -67 101 -154 101 -259c0 -103 -34 -189 -102 -257c-68 -69 -153 -103 -255 -103zM407 630c-77 0 -140 -26 -191 -79s-76 -120 -76 -201
c0 -79 26 -146 77 -199c51 -54 115 -81 190 -81c79 0 143 27 193 80c49 53 74 120 74 200c0 81 -26 148 -77 201s-115 79 -190 79z" />
    <glyph glyph-name="P" unicode="P" horiz-adv-x="597" 
d="M147 700c61 1 108 2 141 2c92 0 158 -20 199 -61c40 -41 60 -93 60 -156c0 -61 -22 -113 -65 -156c-44 -43 -106 -64 -187 -64c-39 0 -74 1 -105 4v-234c0 -23 -19 -42 -42 -42c-24 0 -43 19 -43 42v623c0 23 19 42 42 42zM190 620v-270c38 -3 72 -5 102 -5
c103 0 165 53 165 141c0 85 -53 136 -161 136c-27 0 -62 -1 -106 -2z" />
    <glyph glyph-name="Q" unicode="Q" horiz-adv-x="814" 
d="M712 16c0 -11 -4 -21 -13 -29c-8 -6 -17 -9 -26 -9c-11 0 -21 4 -29 13l-45 52c-57 -35 -121 -53 -192 -53c-103 0 -188 34 -255 101c-68 67 -102 154 -102 259c0 102 34 188 101 257s153 103 256 103s188 -34 256 -101c67 -67 101 -154 101 -259s-35 -191 -105 -260
l44 -50c6 -7 9 -15 9 -24zM564 202l40 -47c47 53 70 118 70 195c0 81 -26 148 -77 201s-115 79 -190 79c-77 0 -140 -26 -191 -79s-76 -120 -76 -201c0 -79 26 -146 77 -199c51 -54 115 -81 190 -81c51 0 97 12 138 36l-37 45c-6 7 -9 16 -9 25c0 11 4 21 12 29
c7 6 16 9 25 9c12 0 21 -4 28 -12z" />
    <glyph glyph-name="R" unicode="R" horiz-adv-x="627" 
d="M587 32c0 -21 -16 -39 -39 -39c-16 0 -30 8 -43 24l-201 263h-114v-245c0 -23 -19 -42 -42 -42c-24 0 -43 19 -43 42v623c0 23 19 42 42 42c71 1 119 2 146 2c166 0 249 -69 249 -208c0 -51 -15 -94 -44 -129c-30 -35 -66 -58 -108 -69l186 -235c7 -9 11 -19 11 -29z
M190 620v-260h103c43 0 80 12 112 37c31 24 47 56 47 96c0 86 -55 129 -164 129c-21 0 -54 -1 -98 -2z" />
    <glyph glyph-name="S" unicode="S" horiz-adv-x="526" 
d="M252 -10c-66 0 -131 27 -194 80c-8 7 -12 16 -12 28c0 9 3 18 9 25c8 10 18 15 31 15c9 0 16 -2 23 -7c55 -41 103 -61 144 -61c77 0 137 41 137 109c0 171 -342 116 -342 348c0 52 19 96 57 131s89 52 154 52c60 0 115 -16 164 -47c11 -7 16 -18 16 -32
c0 -9 -2 -16 -7 -21c-9 -13 -20 -19 -33 -19c-6 0 -14 2 -23 7c-35 21 -73 32 -112 32c-77 0 -126 -40 -126 -103c0 -173 342 -108 342 -347c0 -57 -22 -102 -65 -137c-44 -35 -98 -53 -163 -53z" />
    <glyph glyph-name="T" unicode="T" horiz-adv-x="595" 
d="M546 620h-206v-585c0 -23 -19 -42 -42 -42c-24 0 -43 19 -43 42v585h-206c-21 0 -39 19 -39 40s18 40 39 40h497c21 0 39 -19 39 -40s-18 -40 -39 -40z" />
    <glyph glyph-name="U" unicode="U" horiz-adv-x="751" 
d="M180 664v-349c0 -153 74 -244 205 -244c117 0 186 82 186 238v355c0 23 19 41 43 41c23 0 42 -18 42 -41v-372c0 -101 -26 -176 -77 -226s-116 -75 -194 -75c-87 0 -157 27 -210 80s-80 129 -80 228v365c0 23 19 41 43 41c23 0 42 -18 42 -41z" />
    <glyph glyph-name="V" unicode="V" horiz-adv-x="644" 
d="M17 663c0 23 17 42 42 42c19 0 33 -11 42 -33l226 -548l220 548c9 22 23 33 40 33c24 0 40 -17 40 -38c0 -3 -1 -9 -4 -17l-255 -625c-9 -21 -23 -32 -43 -32c-21 0 -35 11 -44 32l-260 620c-3 8 -4 14 -4 18z" />
    <glyph glyph-name="W" unicode="W" horiz-adv-x="960" 
d="M262 145l172 516c10 29 27 44 50 44c24 0 41 -15 51 -44l176 -516l151 526c6 23 19 34 39 34c27 0 40 -17 40 -40c0 -3 -1 -8 -2 -15l-181 -616c-8 -27 -23 -41 -44 -41c-23 0 -40 14 -50 41l-182 529l-179 -529c-9 -27 -25 -41 -48 -41s-39 14 -47 41l-186 604
c-2 7 -3 13 -3 20c0 27 17 47 48 47c21 0 34 -11 41 -34z" />
    <glyph glyph-name="X" unicode="X" horiz-adv-x="633" 
d="M51 665c0 23 16 40 41 40c14 0 28 -10 42 -30l185 -255l182 255c13 20 29 30 46 30c23 0 39 -17 39 -38c0 -9 -3 -17 -9 -26l-205 -285l216 -300c5 -5 7 -13 7 -22c0 -21 -16 -41 -39 -41c-15 0 -29 8 -41 25l-199 273l-197 -273c-12 -17 -26 -25 -42 -25
c-23 0 -39 19 -39 40c0 9 3 18 9 26l215 297l-203 283c-5 7 -8 16 -8 26z" />
    <glyph glyph-name="Y" unicode="Y" horiz-adv-x="584" 
d="M28 664c0 23 18 41 43 41c16 0 30 -10 42 -31l180 -294l181 294c13 21 27 31 44 31c24 0 38 -16 38 -36c0 -7 -2 -15 -7 -23l-217 -346v-265c0 -23 -19 -42 -42 -42c-24 0 -43 19 -43 42v265l-212 340c-5 7 -7 15 -7 24z" />
    <glyph glyph-name="Z" unicode="Z" horiz-adv-x="625" 
d="M546 0h-488c-20 0 -34 13 -34 30c0 12 7 27 20 45l414 545h-369c-21 0 -39 19 -39 40s18 40 39 40h459c23 0 34 -11 34 -32c0 -11 -7 -26 -21 -43l-416 -545h401c21 0 39 -19 39 -40s-18 -40 -39 -40z" />
    <glyph glyph-name="bracketleft" unicode="[" horiz-adv-x="320" 
d="M140 575v-700h133c20 0 37 -17 37 -38c0 -20 -17 -37 -37 -37h-176c-20 0 -37 17 -37 37v776c0 20 17 37 37 37h176c20 0 37 -17 37 -38c0 -20 -17 -37 -37 -37h-133z" />
    <glyph glyph-name="backslash" unicode="\" horiz-adv-x="347" 
d="M296 -176l-308 831c-1 3 -2 7 -2 13c0 15 7 26 21 31c5 1 9 2 11 2c16 0 27 -8 32 -23l309 -831c1 -3 2 -7 2 -13c0 -15 -7 -25 -21 -30c-3 -1 -7 -2 -12 -2c-16 0 -27 7 -32 22z" />
    <glyph glyph-name="bracketright" unicode="]" horiz-adv-x="320" 
d="M180 -125v700h-133c-20 0 -37 17 -37 38c0 20 17 37 37 37h176c20 0 37 -17 37 -37v-776c0 -20 -17 -37 -37 -37h-176c-20 0 -37 17 -37 38c0 20 17 37 37 37h133z" />
    <glyph glyph-name="asciicircum" unicode="^" horiz-adv-x="492" 
d="M351 471l-105 155l-105 -155c-9 -14 -21 -21 -36 -21c-19 0 -33 14 -33 33c0 9 3 17 9 26l124 178c13 18 27 27 43 27c15 0 29 -9 41 -27l124 -181c5 -7 7 -14 7 -22c0 -19 -16 -34 -33 -34c-15 0 -27 7 -36 21z" />
    <glyph glyph-name="underscore" unicode="_" horiz-adv-x="312" 
d="M40 -120h232c21 0 40 -19 40 -40s-19 -40 -40 -40h-232c-21 0 -40 19 -40 40s19 40 40 40z" />
    <glyph glyph-name="grave" unicode="`" horiz-adv-x="290" 
d="M141 695l71 -104c4 -5 6 -11 6 -18c0 -10 -4 -18 -12 -25c-5 -3 -11 -5 -18 -5c-12 0 -21 4 -28 12l-79 94c-5 5 -7 12 -7 20c0 9 4 17 11 23l13 10c5 4 11 6 18 6c10 0 18 -4 25 -13z" />
    <glyph glyph-name="a" unicode="a" horiz-adv-x="460" 
d="M40 132c0 89 70 143 170 143c48 0 85 -10 112 -29c0 96 -19 142 -102 142c-29 0 -59 -6 -90 -18c-5 -2 -10 -3 -15 -3c-15 0 -25 7 -31 20c-2 5 -3 9 -3 14c0 16 7 27 20 32c43 18 85 27 124 27c124 0 173 -61 173 -184v-248c0 -19 -17 -35 -38 -35s-38 16 -38 35v30
c-35 -43 -83 -65 -144 -65c-83 0 -138 54 -138 139zM322 123v57c-28 20 -62 30 -101 30c-53 0 -96 -26 -96 -74c0 -44 30 -71 81 -71c45 0 83 19 116 58z" />
    <glyph glyph-name="b" unicode="b" horiz-adv-x="549" 
d="M152 662v-255c33 31 88 53 140 53c66 0 118 -21 157 -63c38 -42 57 -97 57 -165c0 -74 -23 -133 -68 -176c-45 -44 -106 -66 -182 -66c-60 0 -114 13 -161 38c-12 7 -23 25 -23 38v596c-4 49 84 49 80 0zM152 327v-231c31 -21 67 -31 108 -31c93 0 161 62 161 161
c0 100 -59 159 -147 159c-49 0 -98 -27 -122 -58z" />
    <glyph glyph-name="c" unicode="c" horiz-adv-x="477" 
d="M380 359c-33 17 -66 26 -99 26c-42 0 -78 -15 -108 -45c-31 -31 -46 -69 -46 -115c0 -48 16 -87 47 -116s69 -44 115 -44c37 0 69 10 96 31c11 9 21 13 31 13c9 0 16 -3 23 -10s11 -15 11 -25c0 -11 -4 -20 -11 -26c-43 -39 -95 -58 -156 -58c-72 0 -130 22 -174 65
c-45 43 -67 99 -67 170c0 66 22 122 65 167s98 68 163 68c56 0 105 -12 146 -35c14 -7 21 -19 21 -34c0 -7 -2 -13 -5 -18c-7 -12 -18 -18 -33 -18c-7 0 -14 1 -19 4z" />
    <glyph glyph-name="d" unicode="d" horiz-adv-x="554" 
d="M482 662v-631c4 -49 -84 -49 -80 0v26c-40 -43 -88 -65 -143 -65c-66 0 -119 21 -158 63s-59 98 -59 167c0 70 23 127 70 172c46 44 105 66 176 66c46 0 84 -11 114 -32v234c-4 49 84 49 80 0zM402 127v223c-37 23 -74 35 -111 35c-46 0 -85 -15 -116 -44
c-32 -30 -48 -69 -48 -117c0 -97 60 -157 147 -157c49 0 92 20 128 60z" />
    <glyph glyph-name="e" unicode="e" horiz-adv-x="525" 
d="M127 265h273c-4 75 -53 120 -130 120c-80 0 -134 -49 -143 -120zM483 254c0 -10 0 -17 -1 -22c-1 -16 -18 -32 -34 -32h-316c7 -84 68 -135 157 -135c42 0 79 9 110 27c7 4 15 6 22 6c10 0 19 -4 27 -13c4 -5 6 -11 6 -18c0 -13 -4 -22 -12 -27
c-47 -33 -100 -50 -159 -50c-73 0 -131 21 -175 64s-66 100 -66 171c0 68 21 124 62 169c41 44 98 66 170 66c59 0 109 -19 149 -57c40 -39 60 -88 60 -149z" />
    <glyph glyph-name="f" unicode="f" horiz-adv-x="338" 
d="M274 375h-112v-344c4 -49 -84 -49 -80 0v492c0 124 57 187 158 187c37 0 71 -9 100 -26c11 -7 17 -16 17 -29c0 -20 -15 -33 -35 -33c-8 0 -15 1 -21 4c-16 6 -32 9 -48 9c-61 0 -91 -40 -91 -121v-64h112c21 0 38 -17 38 -37c0 -21 -17 -38 -38 -38z" />
    <glyph glyph-name="g" unicode="g" horiz-adv-x="502" 
d="M212 79c5 0 20 1 27 1c137 0 229 -50 229 -145c0 -93 -92 -143 -229 -143s-229 48 -229 143c0 71 55 118 144 137c-15 19 -15 55 1 75c-64 25 -101 81 -101 148c0 47 17 86 51 118c33 31 78 47 133 47c43 0 81 -11 114 -33l101 24c2 1 5 1 8 1c15 0 27 -11 30 -24
c1 -1 1 -4 1 -7c0 -17 -8 -27 -25 -32l-66 -16c14 -23 21 -49 21 -78c0 -46 -17 -84 -51 -115s-78 -47 -133 -47c-13 0 -23 0 -30 1c-3 -7 -5 -15 -5 -25c0 -12 3 -22 9 -30zM126 -7c-27 -14 -41 -33 -41 -58s14 -44 42 -58c27 -13 65 -20 112 -20c95 0 154 27 154 78
c0 49 -58 80 -154 80c-48 0 -86 -7 -113 -22zM129 295c0 -56 44 -97 109 -97c64 0 109 40 109 97c0 29 -10 53 -30 72s-46 28 -79 28s-59 -9 -79 -28s-30 -43 -30 -72z" />
    <glyph glyph-name="h" unicode="h" horiz-adv-x="558" 
d="M152 326v-295c4 -49 -84 -49 -80 0v631c-4 49 84 49 80 0v-264c35 35 91 60 147 60c125 0 187 -67 187 -200v-227c4 -49 -84 -49 -80 0v216c0 91 -42 136 -126 136c-48 0 -99 -24 -128 -57z" />
    <glyph glyph-name="i" unicode="i" horiz-adv-x="268" 
d="M174 417v-386c4 -49 -84 -49 -80 0v386c-4 49 84 49 80 0zM84 619c0 28 23 48 52 48c27 0 49 -20 49 -48c0 -32 -22 -52 -49 -52c-29 0 -52 20 -52 52z" />
    <glyph glyph-name="j" unicode="j" horiz-adv-x="283" 
d="M115 -27v444c-4 49 84 49 80 0v-450c0 -117 -47 -175 -141 -175c-27 0 -51 4 -70 11c-17 7 -26 18 -26 35c0 21 14 34 37 34c7 0 13 -1 17 -2c8 -2 16 -3 24 -3c53 0 79 35 79 106zM104 619c0 28 23 48 52 48c27 0 49 -20 49 -48c0 -32 -22 -52 -49 -52
c-29 0 -52 20 -52 52z" />
    <glyph glyph-name="k" unicode="k" horiz-adv-x="476" 
d="M360 14l-166 192c-15 17 -15 41 0 58l147 170c12 14 24 21 36 21c23 0 39 -15 39 -34c0 -10 -4 -19 -12 -28l-138 -152l161 -181c8 -10 12 -20 12 -30c0 -21 -16 -37 -40 -37c-14 0 -27 7 -39 21zM152 662v-631c4 -49 -84 -49 -80 0v631c-4 49 84 49 80 0z" />
    <glyph glyph-name="l" unicode="l" horiz-adv-x="288" 
d="M152 662v-506c0 -61 16 -89 53 -89c12 0 38 5 45 5c16 0 33 -11 33 -32c0 -31 -31 -47 -94 -47c-78 0 -117 42 -117 127v542c-4 49 84 49 80 0z" />
    <glyph glyph-name="m" unicode="m" horiz-adv-x="812" 
d="M152 417v-24c33 39 92 65 149 65c69 0 119 -30 136 -78c33 47 91 78 158 78c97 0 145 -54 145 -163v-264c4 -49 -84 -49 -80 0v242c0 73 -32 110 -97 110c-52 0 -97 -26 -118 -65c1 -5 1 -16 1 -32v-255c4 -49 -84 -49 -80 0v259c0 56 -35 93 -96 93
c-50 0 -89 -20 -118 -61v-291c4 -49 -84 -49 -80 0v386c-4 49 84 49 80 0z" />
    <glyph glyph-name="n" unicode="n" horiz-adv-x="558" 
d="M152 325v-294c4 -49 -84 -49 -80 0v386c-4 49 84 49 80 0v-22c33 36 91 63 147 63c125 0 187 -66 187 -198v-229c4 -49 -84 -49 -80 0v214c0 92 -42 138 -127 138c-51 0 -93 -19 -127 -58z" />
    <glyph glyph-name="o" unicode="o" 
d="M109 57c-45 44 -67 100 -67 168s22 124 67 169c44 44 102 66 173 66s129 -22 174 -66c44 -45 66 -101 66 -169s-22 -124 -66 -168c-45 -45 -103 -67 -174 -67s-129 22 -173 67zM127 225c0 -93 64 -160 155 -160s155 65 155 160c0 93 -64 160 -155 160
c-89 0 -155 -65 -155 -160z" />
    <glyph glyph-name="p" unicode="p" horiz-adv-x="556" 
d="M152 21v-183c4 -49 -84 -49 -80 0v579c-4 49 84 49 80 0v-20c32 37 92 63 153 63c63 0 114 -21 152 -63c37 -43 56 -98 56 -165c0 -69 -22 -127 -65 -173s-100 -69 -169 -69c-53 0 -96 10 -127 31zM152 323v-223c35 -23 75 -35 120 -35c95 0 156 68 156 164
c0 93 -55 156 -146 156c-53 0 -97 -21 -130 -62z" />
    <glyph glyph-name="q" unicode="q" horiz-adv-x="557" 
d="M484 384v-546c4 -49 -84 -49 -80 0v198c-39 -31 -83 -46 -131 -46c-70 0 -126 21 -168 64s-63 100 -63 171c0 66 24 122 72 167s108 68 181 68c58 0 113 -13 165 -38c13 -5 24 -23 24 -38zM404 119v237c-34 19 -71 29 -110 29c-49 0 -89 -16 -120 -47
c-31 -32 -47 -71 -47 -117c0 -92 63 -156 156 -156c47 0 96 23 121 54z" />
    <glyph glyph-name="r" unicode="r" horiz-adv-x="340" 
d="M152 319v-286c2 -52 -82 -52 -80 0v382c-2 52 82 52 80 0v-18c27 41 65 61 113 61c11 0 25 -2 41 -6c19 -6 29 -17 29 -32c0 -2 -1 -6 -2 -13c-5 -19 -19 -28 -40 -28c-4 0 -11 1 -20 2c-6 1 -15 2 -27 2c-41 0 -72 -21 -94 -64z" />
    <glyph glyph-name="s" unicode="s" horiz-adv-x="410" 
d="M41 66c0 8 3 15 8 22c7 9 17 14 28 14c9 0 16 -2 23 -7c35 -23 69 -35 104 -35c45 0 80 23 80 62c0 90 -243 47 -243 211c0 77 62 127 153 127c46 0 89 -11 128 -34c11 -7 16 -16 16 -28c0 -7 -2 -13 -6 -19c-7 -11 -17 -16 -30 -16c-7 0 -14 2 -20 5
c-28 15 -56 22 -84 22c-44 0 -72 -25 -72 -56c0 -94 243 -51 243 -208c0 -89 -75 -136 -174 -136c-53 0 -100 16 -141 48c-9 7 -13 16 -13 28z" />
    <glyph glyph-name="t" unicode="t" horiz-adv-x="344" 
d="M222 67c19 0 56 12 64 12c19 0 34 -13 34 -33c0 -13 -7 -23 -21 -32c-24 -15 -56 -22 -96 -22c-99 0 -141 60 -141 179v366c-4 49 84 49 80 0v-87h127c21 0 38 -17 38 -37c0 -21 -17 -38 -38 -38h-127v-196c0 -75 27 -112 80 -112z" />
    <glyph glyph-name="u" unicode="u" horiz-adv-x="540" 
d="M387 132v285c-4 49 84 49 80 0v-386c4 -49 -84 -49 -80 0v33c-35 -41 -92 -74 -159 -74c-104 0 -166 64 -166 192v235c-4 49 84 49 80 0v-217c0 -90 39 -135 116 -135c49 0 100 28 129 67z" />
    <glyph glyph-name="v" unicode="v" horiz-adv-x="465" 
d="M101 430l100 -223c12 -27 25 -61 38 -100c11 37 24 71 37 102l94 221c7 17 19 25 38 25c21 0 38 -17 38 -37c0 -5 -1 -10 -3 -15l-167 -382c-8 -19 -21 -28 -40 -28c-18 0 -31 9 -40 28l-173 374c-3 5 -4 11 -4 17c0 24 19 43 44 43c17 0 30 -8 38 -25z" />
    <glyph glyph-name="w" unicode="w" horiz-adv-x="693" 
d="M394 421l93 -254c1 -3 8 -25 21 -65c5 23 11 46 18 69l74 254c6 20 19 30 38 30c24 0 39 -16 39 -36c0 -3 -1 -7 -2 -12l-121 -382c-7 -21 -21 -32 -44 -32s-39 10 -46 31l-101 265c-5 13 -11 32 -17 55c-7 -27 -14 -46 -19 -58l-98 -261c-8 -21 -23 -32 -44 -32
s-35 11 -42 32l-125 378c-1 5 -2 10 -2 13c0 21 18 39 41 39c20 0 33 -10 39 -29l81 -260c5 -16 14 -52 17 -63c12 41 18 62 19 63l92 255c8 23 23 34 45 34c21 0 36 -11 44 -34z" />
    <glyph glyph-name="x" unicode="x" horiz-adv-x="473" 
d="M129 433l110 -153l111 153c11 15 23 22 36 22c24 0 38 -16 38 -35c0 -8 -2 -15 -7 -22l-122 -165l130 -177c5 -7 8 -16 8 -25c0 -21 -15 -38 -40 -38c-13 0 -25 7 -36 22l-121 167l-123 -167c-11 -15 -23 -22 -37 -22c-23 0 -36 16 -36 35c0 9 3 17 8 24l131 177
l-119 165c-5 7 -7 14 -7 23c0 26 39 63 76 16z" />
    <glyph glyph-name="y" unicode="y" horiz-adv-x="479" 
d="M106 430l123 -266c1 -3 10 -26 27 -68c6 22 13 45 21 69l95 259c7 21 20 31 39 31c28 0 44 -16 44 -39c0 -5 -1 -11 -4 -19l-159 -397c-31 -78 -59 -131 -84 -159c-25 -27 -55 -41 -88 -41c-53 0 -80 16 -80 47c0 21 11 32 32 32c7 0 27 -5 39 -5c37 0 65 30 96 102
l10 24l-189 394c-3 5 -4 12 -4 19c0 23 17 42 44 42c17 0 30 -8 38 -25z" />
    <glyph glyph-name="z" unicode="z" horiz-adv-x="456" 
d="M384 0h-310c-34 0 -55 40 -27 68l262 307h-224c-21 0 -38 17 -38 38c0 20 17 37 38 37h296c23 0 39 -14 39 -39c0 -9 -4 -18 -12 -29l-263 -307h239c21 0 38 -17 38 -37c0 -21 -17 -38 -38 -38z" />
    <glyph glyph-name="braceleft" unicode="{" horiz-adv-x="335" 
d="M270 -125c30 0 45 -13 45 -38c0 -23 -19 -37 -43 -37h-28c-89 0 -134 40 -134 135v157c0 51 -19 83 -58 94c-21 7 -32 20 -32 39s11 33 32 40c39 15 58 50 58 105v139c0 95 38 141 138 141h26c24 0 41 -15 41 -36c0 -24 -16 -39 -40 -39h-8c-57 0 -77 -25 -77 -93v-142
c0 -64 -30 -107 -75 -114c50 -6 75 -44 75 -114v-145c0 -65 24 -92 80 -92z" />
    <glyph glyph-name="bar" unicode="|" horiz-adv-x="330" 
d="M205 662v-631c4 -49 -84 -49 -80 0v631c-4 49 84 49 80 0z" />
    <glyph glyph-name="braceright" unicode="}" horiz-adv-x="335" 
d="M91 -200h-28c-24 0 -43 14 -43 37c0 25 15 38 45 38c56 0 80 27 80 92v145c0 70 25 108 75 114c-45 7 -75 50 -75 114v142c0 68 -20 93 -77 93h-8c-24 0 -40 15 -40 39c0 21 17 36 41 36h26c100 0 138 -46 138 -141v-139c0 -55 19 -90 58 -105c21 -7 32 -21 32 -40
s-11 -32 -32 -39c-39 -11 -58 -43 -58 -94v-157c0 -95 -45 -135 -134 -135z" />
    <glyph glyph-name="asciitilde" unicode="~" horiz-adv-x="592" 
d="M539 360c0 -10 -3 -18 -10 -23c-37 -32 -75 -48 -112 -48c-27 0 -66 12 -117 37s-88 37 -110 37c-27 0 -53 -12 -80 -35c-7 -6 -14 -9 -22 -9c-9 0 -17 4 -26 11c-6 6 -9 13 -9 22s3 17 9 22c40 37 81 56 124 56c28 0 68 -12 120 -36c52 -25 91 -37 116 -37
c17 0 37 9 61 26c9 5 16 8 23 8c9 0 17 -4 26 -11c5 -6 7 -13 7 -20z" />
    <glyph glyph-name="uni00A0" unicode="&#xa0;" horiz-adv-x="225" 
 />
    <glyph glyph-name="exclamdown" unicode="&#xa1;" horiz-adv-x="309" 
d="M198 200v-407c0 -23 -19 -41 -43 -41c-23 0 -42 18 -42 41v407c0 23 19 42 42 42c24 0 43 -19 43 -42zM153 460c35 0 58 -26 58 -57c0 -28 -23 -53 -58 -53c-29 0 -53 26 -53 53c0 31 22 57 53 57z" />
    <glyph glyph-name="cent" unicode="&#xa2;" horiz-adv-x="565" 
d="M486 48c-37 -33 -79 -52 -126 -56v-77c5 -45 -85 -45 -80 0v79c-117 19 -191 107 -191 231c0 59 18 111 53 154s81 69 138 78v74c-5 45 85 45 80 0v-73c35 -4 70 -15 103 -33c14 -7 21 -19 21 -34c0 -7 -2 -13 -5 -18c-7 -12 -18 -18 -33 -18c-7 0 -14 1 -19 4
c-33 17 -66 26 -99 26c-42 0 -78 -15 -108 -45c-31 -31 -46 -69 -46 -115c0 -48 16 -87 47 -116s69 -44 115 -44c37 0 69 10 96 31c11 9 21 13 31 13c9 0 16 -3 23 -10s11 -15 11 -25c0 -11 -4 -20 -11 -26z" />
    <glyph glyph-name="sterling" unicode="&#xa3;" horiz-adv-x="581" 
d="M38 40c0 10 4 19 12 27c25 23 49 40 72 49c35 44 52 89 52 135c0 11 0 19 -1 24h-66c-42 -3 -41 69 0 65h47c-4 10 -30 62 -36 78c-8 20 -18 59 -18 96c0 54 20 100 60 138c40 37 92 56 156 56c54 0 108 -17 163 -51c13 -9 20 -20 20 -34c0 -8 -3 -16 -9 -24
c-7 -9 -16 -14 -29 -14c-9 0 -19 3 -28 8c-39 23 -78 35 -115 35c-76 0 -128 -54 -128 -119c0 -44 14 -78 35 -118c10 -21 17 -38 22 -51h131c17 0 31 -15 31 -32c0 -19 -14 -33 -31 -34l-119 -3c0 -51 -18 -99 -54 -144c22 -2 56 -11 102 -27s81 -24 106 -24
c27 0 53 8 78 25c9 6 18 9 27 9c12 0 21 -4 28 -13c6 -7 9 -15 9 -24c0 -11 -5 -21 -14 -29c-41 -32 -85 -48 -130 -48c-26 0 -64 9 -114 26s-88 26 -114 26c-27 0 -54 -10 -82 -31c-9 -7 -19 -11 -30 -11c-9 0 -16 3 -23 10s-10 15 -10 24z" />
    <glyph glyph-name="currency" unicode="&#xa4;" horiz-adv-x="571" 
d="M149 160l-63 -63c-31 -35 -81 18 -49 49l62 64c-27 39 -41 84 -41 135s14 96 41 135l-58 60c-13 13 -13 37 0 50c15 15 35 15 50 0l58 -60c39 28 84 42 136 42c51 0 96 -14 135 -41l63 62c33 33 83 -17 50 -50l-63 -62c28 -41 42 -86 42 -136c0 -51 -14 -96 -42 -135
l60 -60c35 -31 -18 -81 -49 -49l-60 59c-39 -28 -84 -42 -136 -42s-97 14 -136 42zM133 345c0 -44 14 -81 42 -111c27 -31 64 -46 110 -46c95 0 152 68 152 157c0 91 -59 157 -152 157c-92 0 -152 -68 -152 -157z" />
    <glyph glyph-name="yen" unicode="&#xa5;" horiz-adv-x="567" 
d="M239 129h-152c-42 -3 -41 69 0 65h152v105h-152c-42 -3 -41 69 0 65h114l-162 278c-4 7 -6 14 -6 22c0 23 17 41 44 41c16 0 30 -11 42 -32l166 -293l167 294c11 21 25 31 42 31c24 0 40 -18 40 -39c0 -8 -2 -14 -5 -19l-167 -283h116c17 0 31 -15 31 -32
c0 -19 -14 -33 -31 -33h-154v-105h154c17 0 31 -15 31 -32c0 -19 -14 -33 -31 -33h-154v-87c0 -23 -19 -42 -42 -42c-24 0 -43 19 -43 42v87z" />
    <glyph glyph-name="brokenbar" unicode="&#xa6;" horiz-adv-x="330" 
d="M125 478v184c-4 49 84 49 80 0v-184c4 -49 -84 -49 -80 0zM205 222v-184c4 -49 -84 -49 -80 0v184c-4 49 84 49 80 0z" />
    <glyph glyph-name="section" unicode="&#xa7;" horiz-adv-x="524" 
d="M184 -107c49 -41 148 -9 143 63c0 45 -30 82 -89 111c-107 9 -173 85 -173 182c0 85 49 152 132 175c-55 31 -82 76 -82 135c0 81 62 141 161 141c51 0 91 -14 120 -43c13 -13 14 -39 -1 -52s-35 -14 -58 2c-15 12 -35 18 -59 18c-47 0 -83 -36 -83 -81s29 -83 87 -112
c108 -8 177 -83 177 -183c0 -85 -51 -154 -134 -175c55 -31 82 -76 82 -133c0 -81 -62 -141 -161 -141c-51 0 -91 15 -121 46c-15 15 -15 37 0 52c7 7 15 10 24 10c10 0 22 -5 35 -15zM178 330c-71 -66 -21 -200 84 -194c106 -6 154 128 84 194c-22 22 -50 33 -84 33
s-62 -11 -84 -33z" />
    <glyph glyph-name="dieresis" unicode="&#xa8;" horiz-adv-x="415" 
d="M107 560c-27 0 -47 19 -47 50c0 28 20 46 47 46c23 0 44 -19 44 -46c0 -31 -20 -50 -44 -50zM311 560c-27 0 -48 19 -48 50c0 27 21 46 48 46c23 0 44 -19 44 -46c0 -31 -20 -50 -44 -50z" />
    <glyph glyph-name="copyright" unicode="&#xa9;" horiz-adv-x="1018" 
d="M200 -87c-83 84 -125 187 -125 308s42 224 125 308s186 126 309 126s226 -42 309 -126s125 -187 125 -308s-42 -224 -125 -308s-186 -126 -309 -126s-226 42 -309 126zM249 479c-69 -71 -104 -158 -104 -259s35 -187 104 -258c69 -70 156 -105 260 -105
c103 0 190 35 260 106c69 71 104 156 104 257s-35 188 -104 259c-70 71 -157 106 -260 106c-104 0 -191 -35 -260 -106zM276 225c0 66 22 122 65 167s98 68 163 68c56 0 105 -12 146 -35c14 -7 21 -19 21 -34c0 -7 -2 -13 -5 -18c-7 -12 -18 -18 -33 -18c-7 0 -14 1 -19 4
c-33 17 -66 26 -99 26c-42 0 -78 -15 -108 -45c-31 -31 -46 -69 -46 -115c0 -48 16 -87 47 -116s69 -44 115 -44c37 0 69 10 96 31c11 9 21 13 31 13c9 0 16 -3 23 -10s11 -15 11 -25c0 -11 -4 -20 -11 -26c-43 -39 -95 -58 -156 -58c-72 0 -130 22 -174 65
c-45 43 -67 99 -67 170z" />
    <glyph glyph-name="ordfeminine" unicode="&#xaa;" horiz-adv-x="425" 
d="M50 424c0 69 47 108 126 108c42 0 78 -7 109 -22c0 59 -28 88 -84 88c-20 0 -39 -3 -57 -10c-10 -3 -18 -5 -23 -5c-9 0 -17 4 -22 12c-3 5 -5 10 -5 14c0 13 8 22 23 29c27 13 59 20 97 20c83 0 141 -45 141 -129v-174c0 -19 -15 -34 -36 -34c-19 0 -34 15 -34 34v17
c-28 -34 -69 -51 -124 -51c-67 0 -111 46 -111 103zM285 416v46c-28 13 -57 20 -86 20c-44 0 -74 -19 -74 -51c0 -31 27 -51 70 -51c31 0 61 12 90 36z" />
    <glyph glyph-name="guillemotleft" unicode="&#xab;" horiz-adv-x="502" 
d="M453 397l-126 -147l125 -147c5 -7 8 -14 8 -22c0 -11 -4 -20 -13 -27c-7 -7 -14 -10 -23 -10c-11 0 -20 4 -26 12l-141 168c-13 17 -13 35 0 51l144 168c6 7 14 11 24 11c9 0 18 -3 25 -10c7 -5 11 -14 11 -25c0 -9 -3 -17 -8 -22zM247 397l-126 -147l125 -147
c5 -7 8 -14 8 -22c0 -11 -4 -20 -13 -27c-7 -7 -14 -10 -23 -10c-11 0 -20 4 -26 12l-141 168c-13 17 -13 35 0 51l144 168c6 7 14 11 24 11c9 0 18 -3 25 -10c7 -5 11 -14 11 -25c0 -9 -3 -17 -8 -22z" />
    <glyph glyph-name="logicalnot" unicode="&#xac;" horiz-adv-x="592" 
d="M533 363v-137c0 -42 -70 -42 -70 0v99h-372c-42 0 -42 70 0 70h410c17 0 32 -15 32 -32z" />
    <glyph glyph-name="uni00AD" unicode="&#xad;" horiz-adv-x="389" 
d="M112 310h165c20 0 37 -17 37 -38c0 -20 -17 -37 -37 -37h-165c-20 0 -37 17 -37 38c0 20 17 37 37 37z" />
    <glyph glyph-name="registered" unicode="&#xae;" horiz-adv-x="618" 
d="M50 497c0 71 25 132 76 183c51 50 112 75 184 75c71 0 131 -25 182 -75c51 -51 76 -112 76 -183c0 -73 -25 -134 -75 -185c-51 -51 -112 -76 -183 -76c-73 0 -134 25 -184 76c-51 51 -76 112 -76 185zM173 633c-38 -37 -57 -83 -57 -136s19 -99 57 -137
c38 -39 84 -58 137 -58s99 19 136 57s56 84 56 138c0 53 -19 99 -56 136s-83 56 -136 56s-99 -19 -137 -56zM354 379l-51 82h-37v-74c0 -15 -12 -27 -28 -27c-15 0 -27 12 -27 27v226c0 15 12 27 27 27h71c72 0 108 -29 108 -87c0 -39 -25 -70 -60 -81l46 -69
c3 -4 5 -10 5 -17c0 -17 -9 -26 -27 -26c-11 0 -20 6 -27 19zM266 600v-99h39c32 0 57 22 57 51s-21 48 -60 48h-36z" />
    <glyph glyph-name="overscore" unicode="&#xaf;" horiz-adv-x="384" 
d="M92 645h200c42 0 42 -65 0 -65h-200c-19 0 -32 14 -32 33c0 17 13 32 32 32z" />
    <glyph glyph-name="degree" unicode="&#xb0;" horiz-adv-x="410" 
d="M204 415c-43 0 -79 15 -109 45c-30 29 -45 66 -45 109c0 44 15 81 45 111s66 45 109 45s80 -14 111 -43c30 -29 45 -66 45 -110c0 -43 -15 -80 -45 -111c-31 -31 -68 -46 -111 -46zM265 630c-33 34 -87 33 -120 0s-33 -87 0 -120c48 -55 149 -13 145 60
c0 23 -8 43 -25 60z" />
    <glyph glyph-name="plusminus" unicode="&#xb1;" horiz-adv-x="592" 
d="M332 410v-88c0 -19 -16 -35 -37 -35s-38 16 -38 35v88h-153c-19 0 -35 16 -35 35s16 35 35 35h153v156c0 19 17 35 38 35s37 -16 37 -35v-156h156c19 0 35 -16 35 -35s-16 -35 -35 -35h-156zM104 235h384c19 0 35 -16 35 -35s-16 -35 -35 -35h-384c-19 0 -35 16 -35 35
s16 35 35 35z" />
    <glyph glyph-name="twosuperior" unicode="&#xb2;" horiz-adv-x="334" 
d="M118 410h162c39 0 39 -60 0 -60h-224c-19 0 -32 12 -32 32c0 11 9 23 27 36c67 46 110 79 130 100c25 26 37 50 37 71c0 32 -22 55 -61 55c-26 0 -45 -8 -58 -25c-11 -14 -22 -21 -33 -21c-5 0 -10 1 -15 3c-11 5 -17 13 -17 26c0 6 2 12 5 18c19 37 66 59 125 59
c83 0 128 -44 128 -107c0 -43 -29 -88 -71 -121s-72 -51 -103 -66z" />
    <glyph glyph-name="threesuperior" unicode="&#xb3;" horiz-adv-x="341" 
d="M164 705c75 0 124 -33 124 -88c0 -41 -27 -72 -74 -84c55 -5 87 -41 87 -84c0 -63 -61 -105 -141 -105c-60 0 -105 20 -134 60c-3 5 -5 10 -5 16c0 9 4 17 12 22c5 3 10 5 16 5c9 0 17 -4 26 -13c20 -21 45 -32 74 -32c48 0 77 22 77 53c0 28 -27 47 -76 47
c-17 0 -29 11 -29 26c0 13 11 24 27 24c37 0 65 22 65 51c0 28 -24 45 -63 45c-30 0 -53 -7 -69 -22c-9 -7 -16 -10 -23 -10c-5 0 -11 2 -16 6c-6 5 -9 11 -9 18c0 8 3 15 10 22c29 29 69 43 121 43z" />
    <glyph glyph-name="acute" unicode="&#xb4;" horiz-adv-x="288" 
d="M77 590l72 107c5 8 13 12 24 12c6 0 12 -2 17 -6l14 -10c7 -6 11 -14 11 -23c0 -8 -2 -14 -7 -19l-80 -97c-7 -8 -15 -12 -26 -12c-6 0 -12 2 -17 5c-9 6 -13 15 -13 26c0 6 2 12 5 17z" />
    <glyph glyph-name="mu" unicode="&#xb5;" horiz-adv-x="539" 
d="M392 132v285c-4 49 84 49 80 0v-386c4 -49 -84 -49 -80 0v33c-35 -41 -92 -74 -159 -74c-33 0 -61 7 -86 20v-172c4 -49 -84 -49 -80 0v579c-4 49 84 49 80 0v-217c0 -90 39 -135 116 -135c49 0 100 28 129 67z" />
    <glyph glyph-name="mu" unicode="&#x3bc;" horiz-adv-x="539" 
d="M392 132v285c-4 49 84 49 80 0v-386c4 -49 -84 -49 -80 0v33c-35 -41 -92 -74 -159 -74c-33 0 -61 7 -86 20v-172c4 -49 -84 -49 -80 0v579c-4 49 84 49 80 0v-217c0 -90 39 -135 116 -135c49 0 100 28 129 67z" />
    <glyph glyph-name="paragraph" unicode="&#xb6;" horiz-adv-x="461" 
d="M96 -118c9 0 17 -2 25 -6c15 -6 30 -9 45 -9c69 0 91 46 91 123v273c-59 1 -109 21 -150 60s-62 92 -62 158c0 67 20 121 59 160s91 59 155 59h136c19 0 36 -17 36 -37c0 -21 -17 -38 -36 -38h-58v-638c0 -130 -55 -195 -165 -195c-33 0 -63 6 -89 19
c-15 6 -22 17 -22 33c0 5 1 10 3 15c6 15 17 23 32 23z" />
    <glyph glyph-name="middot" unicode="&#xb7;" horiz-adv-x="225" 
d="M57 299c0 28 24 53 57 53c29 0 53 -26 53 -53c0 -31 -22 -57 -53 -57c-33 0 -57 26 -57 57z" />
    <glyph glyph-name="cedilla" unicode="&#xb8;" horiz-adv-x="351" 
d="M147 0h43v-43c67 -4 101 -31 101 -80s-47 -82 -126 -82c-31 0 -59 7 -84 21c-9 4 -13 11 -13 22c0 4 1 7 2 10c3 8 10 12 20 12c5 0 10 -1 15 -3c18 -8 35 -12 50 -12c37 0 56 13 56 40c0 21 -15 35 -40 35c-13 0 -24 11 -24 24v56z" />
    <glyph glyph-name="onesuperior" unicode="&#xb9;" horiz-adv-x="243" 
d="M98 384v235l-33 -21c-5 -3 -11 -5 -17 -5c-11 0 -18 4 -23 12c-3 5 -4 9 -4 14c0 9 5 17 15 24l59 41c25 17 41 26 48 26s13 -2 18 -7s7 -12 7 -20v-299c0 -20 -15 -34 -36 -34c-19 0 -34 14 -34 34z" />
    <glyph glyph-name="ordmasculine" unicode="&#xba;" horiz-adv-x="476" 
d="M369 367c-35 -32 -78 -48 -131 -48s-96 16 -131 48c-35 31 -52 72 -52 122s17 91 52 122c34 31 78 47 131 47s97 -16 132 -47c34 -31 51 -72 51 -122s-17 -91 -52 -122zM315 564c-62 62 -191 19 -185 -75c0 -63 49 -105 108 -105c60 0 108 42 108 105c0 31 -10 56 -31 75
z" />
    <glyph glyph-name="guillemotright" unicode="&#xbb;" horiz-adv-x="502" 
d="M258 103l125 147l-126 147c-5 7 -8 14 -8 22c0 10 4 19 13 27c7 5 14 8 22 8c9 0 18 -4 25 -11l144 -168c13 -13 13 -38 0 -53l-141 -166c-6 -8 -15 -12 -26 -12c-9 0 -16 3 -23 10c-9 7 -13 16 -13 27c0 8 3 15 8 22zM48 103l125 147l-126 147c-5 7 -8 14 -8 22
c0 10 4 19 13 27c7 5 14 8 22 8c9 0 18 -4 25 -11l144 -168c13 -13 13 -38 0 -53l-141 -166c-6 -8 -15 -12 -26 -12c-9 0 -16 3 -23 10c-9 7 -13 16 -13 27c0 8 3 15 8 22z" />
    <glyph glyph-name="onequarter" unicode="&#xbc;" horiz-adv-x="678" 
d="M108 384v235l-33 -21c-5 -3 -11 -5 -17 -5c-11 0 -18 4 -23 12c-3 5 -4 9 -4 14c0 9 5 17 15 24l59 41c25 17 41 26 48 26s13 -2 18 -7s7 -12 7 -20v-299c0 -20 -15 -34 -36 -34c-19 0 -34 14 -34 34zM581 653l-479 -640c-5 -8 -13 -12 -23 -12c-7 0 -13 2 -18 6
c-7 5 -11 13 -11 23c0 7 2 12 5 16l480 641c5 8 12 12 23 12c7 0 12 -2 17 -6c7 -5 11 -13 11 -24c0 -7 -2 -12 -5 -16zM609 79h-30v-48c0 -16 -13 -31 -32 -31c-20 0 -33 14 -33 31v48h-168c-20 0 -30 10 -30 29c0 7 7 21 22 40l133 179c11 15 22 23 33 23
c15 0 25 -10 25 -23c0 -8 -3 -16 -9 -24l-127 -169h121v59c0 19 13 32 33 32c19 0 32 -13 32 -32v-59h30c16 0 29 -13 29 -26c0 -16 -13 -29 -29 -29z" />
    <glyph glyph-name="onehalf" unicode="&#xbd;" horiz-adv-x="653" 
d="M115 384v235l-33 -21c-5 -3 -11 -5 -17 -5c-10 0 -18 4 -23 12c-3 5 -4 9 -4 14c0 9 5 17 15 24l59 41c25 17 41 26 48 26s13 -2 18 -7s7 -12 7 -20v-299c0 -20 -15 -34 -36 -34c-19 0 -34 14 -34 34zM562 653l-479 -640c-5 -8 -12 -12 -23 -12c-7 0 -13 2 -18 6
c-7 5 -11 13 -11 23c0 7 2 12 5 16l480 641c5 8 13 12 23 12c6 0 12 -2 17 -6c7 -5 11 -13 11 -24c0 -7 -2 -12 -5 -16zM437 60h162c39 0 39 -60 0 -60h-224c-19 0 -32 12 -32 32c0 11 9 23 27 36c67 46 110 79 130 100c25 26 37 50 37 71c0 32 -22 55 -61 55
c-26 0 -45 -8 -58 -25c-11 -14 -22 -21 -33 -21c-5 0 -10 1 -15 3c-11 5 -17 13 -17 26c0 6 2 12 5 18c19 37 66 59 125 59c83 0 128 -44 128 -107c0 -43 -29 -88 -71 -121s-72 -51 -103 -66z" />
    <glyph glyph-name="threequarters" unicode="&#xbe;" horiz-adv-x="728" 
d="M653 653l-479 -640c-5 -8 -13 -12 -23 -12c-7 0 -13 2 -18 6c-7 5 -11 13 -11 23c0 7 2 12 5 16l480 641c5 8 12 12 23 12c7 0 12 -2 17 -6c7 -5 11 -13 11 -24c0 -7 -2 -12 -5 -16zM659 79h-30v-48c0 -16 -13 -31 -32 -31c-20 0 -33 14 -33 31v48h-168
c-20 0 -30 10 -30 29c0 7 7 21 22 40l133 179c11 15 22 23 33 23c15 0 25 -10 25 -23c0 -8 -3 -16 -9 -24l-127 -169h121v59c0 19 13 32 33 32c19 0 32 -13 32 -32v-59h30c16 0 29 -13 29 -26c0 -16 -13 -29 -29 -29zM157 705c75 0 124 -33 124 -88c0 -41 -27 -72 -74 -84
c55 -5 87 -41 87 -84c0 -63 -61 -105 -141 -105c-60 0 -105 20 -134 60c-3 5 -5 10 -5 16c0 9 4 17 12 22c5 3 10 5 16 5c9 0 17 -4 26 -13c20 -21 45 -32 74 -32c48 0 77 22 77 53c0 28 -27 47 -76 47c-17 0 -29 11 -29 26c0 13 11 24 27 24c37 0 65 22 65 51
c0 28 -24 45 -63 45c-30 0 -53 -7 -69 -22c-9 -7 -16 -10 -23 -10c-6 0 -11 2 -16 6c-6 5 -9 11 -9 18c0 8 3 15 10 22c29 29 69 43 121 43z" />
    <glyph glyph-name="questiondown" unicode="&#xbf;" horiz-adv-x="458" 
d="M238 226v8l-1 14v2c0 22 10 34 31 36h4c22 0 34 -11 37 -34l2 -18c1 -5 1 -11 1 -20c0 -144 -182 -136 -182 -277c0 -61 51 -110 122 -110c39 0 77 15 115 45c9 7 18 10 27 10c11 0 21 -5 28 -14c5 -7 8 -14 8 -23c0 -11 -4 -20 -12 -27c-53 -47 -110 -71 -171 -71
c-63 0 -112 17 -148 50c-37 33 -55 74 -55 123c0 108 71 158 126 198c38 28 68 63 68 108zM270 460c35 0 58 -26 58 -57c0 -28 -23 -53 -58 -53c-29 0 -53 26 -53 53c0 31 22 57 53 57z" />
    <glyph glyph-name="Agrave" unicode="&#xc0;" horiz-adv-x="685" 
d="M581 21l-81 191h-319l-80 -191c-7 -19 -20 -28 -38 -28c-25 0 -40 18 -40 39c0 4 1 10 4 18l268 621c10 23 26 34 49 34s39 -11 48 -34l267 -618c2 -6 3 -12 3 -17c0 -23 -16 -43 -41 -43c-19 0 -32 9 -40 28zM215 292h252l-126 299zM195 844l8 18c5 10 12 15 23 15
c4 0 8 -1 12 -3l147 -78c11 -6 16 -15 16 -26c0 -4 -1 -8 -3 -12c-5 -10 -14 -15 -25 -15c-5 0 -9 1 -12 2l-152 64c-11 4 -16 12 -16 24c0 5 1 8 2 11z" />
    <glyph glyph-name="Aacute" unicode="&#xc1;" horiz-adv-x="685" 
d="M581 21l-81 191h-319l-80 -191c-7 -19 -20 -28 -38 -28c-25 0 -40 18 -40 39c0 4 1 10 4 18l268 621c10 23 26 34 49 34s39 -11 48 -34l267 -618c2 -6 3 -12 3 -17c0 -23 -16 -43 -41 -43c-19 0 -32 9 -40 28zM215 292h252l-126 299zM303 796l147 78c4 2 8 3 12 3
c11 0 18 -5 23 -15l8 -18c1 -3 2 -6 2 -11c0 -12 -5 -20 -16 -24l-152 -64c-4 -1 -7 -2 -10 -2c-12 0 -21 5 -26 15c-2 4 -3 8 -3 13c0 11 5 20 15 25z" />
    <glyph glyph-name="Acircumflex" unicode="&#xc2;" horiz-adv-x="685" 
d="M581 21l-81 191h-319l-80 -191c-7 -19 -20 -28 -38 -28c-25 0 -40 18 -40 39c0 4 1 10 4 18l268 621c10 23 26 34 49 34s39 -11 48 -34l267 -618c2 -6 3 -12 3 -17c0 -23 -16 -43 -41 -43c-19 0 -32 9 -40 28zM215 292h252l-126 299zM462 744l-121 67l-115 -65
c-5 -3 -11 -5 -17 -5c-11 0 -19 4 -25 13c-3 4 -5 9 -5 16c0 11 5 20 15 25l122 72c7 5 16 7 25 7c10 0 18 -2 25 -7l126 -73c9 -5 14 -13 14 -24c0 -7 -1 -12 -4 -15c-5 -10 -14 -15 -26 -15c-5 0 -9 1 -14 4z" />
    <glyph glyph-name="Atilde" unicode="&#xc3;" horiz-adv-x="685" 
d="M581 21l-81 191h-319l-80 -191c-7 -19 -20 -28 -38 -28c-25 0 -40 18 -40 39c0 4 1 10 4 18l268 621c10 23 26 34 49 34s39 -11 48 -34l267 -618c2 -6 3 -12 3 -17c0 -23 -16 -43 -41 -43c-19 0 -32 9 -40 28zM215 292h252l-126 299zM524 817c0 -7 -4 -15 -11 -24
c-29 -30 -62 -45 -99 -45c-18 0 -43 8 -74 25c-32 16 -57 24 -74 24c-12 0 -29 -7 -50 -21c-7 -5 -13 -7 -20 -7c-8 0 -15 3 -22 10c-5 5 -7 11 -7 18c0 9 3 16 9 21c31 27 62 40 93 40c21 0 47 -8 80 -24c32 -17 57 -25 74 -25c8 0 20 5 25 8c4 3 23 15 26 18
c17 11 30 11 42 0c5 -5 8 -11 8 -18z" />
    <glyph glyph-name="Adieresis" unicode="&#xc4;" horiz-adv-x="685" 
d="M581 21l-81 191h-319l-80 -191c-7 -19 -20 -28 -38 -28c-25 0 -40 18 -40 39c0 4 1 10 4 18l268 621c10 23 26 34 49 34s39 -11 48 -34l267 -618c2 -6 3 -12 3 -17c0 -23 -16 -43 -41 -43c-19 0 -32 9 -40 28zM215 292h252l-126 299zM173 813c0 27 24 45 55 45
c28 0 52 -18 52 -45c0 -29 -24 -48 -52 -48c-32 0 -55 19 -55 48zM405 813c0 27 25 45 56 45c28 0 51 -17 51 -45c0 -29 -23 -48 -51 -48c-32 0 -56 19 -56 48z" />
    <glyph glyph-name="Aring" unicode="&#xc5;" horiz-adv-x="685" 
d="M500 212h-319l-80 -191c-8 -19 -22 -28 -41 -28c-23 0 -37 18 -37 39c0 6 1 11 3 16l277 648c-51 11 -85 45 -85 96c0 64 51 96 124 96c75 0 126 -32 126 -96c0 -51 -33 -84 -85 -96l276 -643c2 -6 3 -12 3 -17c0 -23 -16 -43 -41 -43c-19 0 -32 9 -40 28zM215 292h252
l-126 299zM408 792c0 34 -22 51 -65 51s-65 -17 -65 -51c0 -36 26 -55 65 -55c37 0 65 19 65 55z" />
    <glyph glyph-name="AE" unicode="&#xc6;" horiz-adv-x="951" 
d="M847 0h-324c-23 0 -42 19 -42 42v174h-250l-139 -198c-12 -17 -26 -25 -41 -25c-35 0 -49 40 -28 67l442 615c12 17 28 25 48 25h324c21 0 39 -19 39 -40s-18 -40 -39 -40h-271v-226h241c21 0 39 -19 39 -40s-18 -40 -39 -40h-241v-234h281c21 0 39 -19 39 -40
s-18 -40 -39 -40zM287 296h194v275z" />
    <glyph glyph-name="Ccedilla" unicode="&#xc7;" horiz-adv-x="646" 
d="M566 592c-8 0 -16 2 -24 6c-39 21 -87 32 -142 32c-76 0 -138 -26 -187 -78s-73 -119 -73 -202s25 -151 76 -202c50 -52 116 -78 197 -78c54 0 102 13 145 39c7 5 16 7 25 7c13 0 23 -5 30 -14c5 -5 7 -12 7 -20c0 -13 -6 -25 -19 -34c-55 -39 -120 -58 -196 -58v-33
c71 -4 106 -31 106 -80s-47 -82 -123 -82c-37 0 -69 9 -98 26c-7 5 -10 11 -10 18c0 6 1 11 4 14c5 8 12 12 20 12c4 0 8 -1 12 -3c21 -11 39 -17 54 -17c33 0 56 13 56 36c0 24 -16 39 -40 39c-13 0 -24 10 -24 22v50c-94 9 -169 46 -226 111c-57 64 -86 146 -86 247
c0 103 32 189 95 258c63 68 147 102 254 102c71 0 133 -16 184 -47c14 -9 21 -21 21 -34c0 -7 -2 -13 -6 -19c-7 -12 -18 -18 -32 -18z" />
    <glyph glyph-name="Egrave" unicode="&#xc8;" horiz-adv-x="575" 
d="M190 314v-234h281c21 0 39 -19 39 -40s-18 -40 -39 -40h-324c-23 0 -42 19 -42 42v616c0 23 19 42 42 42h314c21 0 39 -19 39 -40s-18 -40 -39 -40h-271v-226h241c21 0 39 -19 39 -40s-18 -40 -39 -40h-241zM169 844l8 18c5 10 12 15 23 15c4 0 8 -1 12 -3l147 -78
c11 -6 16 -15 16 -26c0 -4 -1 -8 -3 -12c-5 -10 -14 -15 -25 -15c-5 0 -9 1 -12 2l-152 64c-11 4 -16 12 -16 24c0 5 1 8 2 11z" />
    <glyph glyph-name="Eacute" unicode="&#xc9;" horiz-adv-x="575" 
d="M190 314v-234h281c21 0 39 -19 39 -40s-18 -40 -39 -40h-324c-23 0 -42 19 -42 42v616c0 23 19 42 42 42h314c21 0 39 -19 39 -40s-18 -40 -39 -40h-271v-226h241c21 0 39 -19 39 -40s-18 -40 -39 -40h-241zM252 796l147 78c4 2 8 3 12 3c11 0 18 -5 23 -15l8 -18
c1 -3 2 -6 2 -11c0 -12 -5 -20 -16 -24l-152 -64c-4 -1 -7 -2 -10 -2c-12 0 -21 5 -26 15c-2 4 -3 8 -3 13c0 11 5 20 15 25z" />
    <glyph glyph-name="Ecircumflex" unicode="&#xca;" horiz-adv-x="575" 
d="M190 314v-234h281c21 0 39 -19 39 -40s-18 -40 -39 -40h-324c-23 0 -42 19 -42 42v616c0 23 19 42 42 42h314c21 0 39 -19 39 -40s-18 -40 -39 -40h-271v-226h241c21 0 39 -19 39 -40s-18 -40 -39 -40h-241zM423 744l-121 67l-115 -65c-5 -3 -11 -5 -17 -5
c-11 0 -19 4 -25 13c-3 4 -5 9 -5 16c0 11 5 20 15 25l122 72c7 5 16 7 25 7c10 0 18 -2 25 -7l126 -73c9 -5 14 -13 14 -24c0 -7 -1 -12 -4 -15c-5 -10 -14 -15 -26 -15c-5 0 -9 1 -14 4z" />
    <glyph glyph-name="Edieresis" unicode="&#xcb;" horiz-adv-x="575" 
d="M190 314v-234h281c21 0 39 -19 39 -40s-18 -40 -39 -40h-324c-23 0 -42 19 -42 42v616c0 23 19 42 42 42h314c21 0 39 -19 39 -40s-18 -40 -39 -40h-271v-226h241c21 0 39 -19 39 -40s-18 -40 -39 -40h-241zM136 813c0 27 24 45 55 45c28 0 52 -18 52 -45
c0 -29 -24 -48 -52 -48c-32 0 -55 19 -55 48zM368 813c0 27 25 45 56 45c28 0 51 -17 51 -45c0 -29 -23 -48 -51 -48c-32 0 -56 19 -56 48z" />
    <glyph glyph-name="Igrave" unicode="&#xcc;" horiz-adv-x="335" 
d="M125 35v629c0 23 19 41 43 41c23 0 42 -18 42 -41v-629c0 -23 -19 -42 -42 -42c-24 0 -43 19 -43 42zM9 844l8 18c5 10 12 15 23 15c4 0 8 -1 12 -3l147 -78c11 -6 16 -15 16 -26c0 -4 -1 -8 -3 -12c-5 -10 -14 -15 -25 -15c-5 0 -9 1 -12 2l-152 64c-11 4 -16 12 -16 24
c0 5 1 8 2 11z" />
    <glyph glyph-name="Iacute" unicode="&#xcd;" horiz-adv-x="335" 
d="M125 35v629c0 23 19 41 43 41c23 0 42 -18 42 -41v-629c0 -23 -19 -42 -42 -42c-24 0 -43 19 -43 42zM137 796l147 78c4 2 8 3 12 3c11 0 18 -5 23 -15l8 -18c1 -3 2 -6 2 -11c0 -12 -5 -20 -16 -24l-152 -64c-4 -1 -7 -2 -10 -2c-12 0 -21 5 -26 15c-2 4 -3 8 -3 13
c0 11 5 20 15 25z" />
    <glyph glyph-name="Icircumflex" unicode="&#xce;" horiz-adv-x="335" 
d="M125 35v629c0 23 19 41 43 41c23 0 42 -18 42 -41v-629c0 -23 -19 -42 -42 -42c-24 0 -43 19 -43 42zM287 744l-121 67l-115 -65c-5 -3 -11 -5 -17 -5c-11 0 -19 4 -25 13c-3 4 -5 9 -5 16c0 11 5 20 15 25l122 72c7 5 16 7 25 7c10 0 18 -2 25 -7l126 -73
c9 -5 14 -13 14 -24c0 -7 -1 -12 -4 -15c-5 -10 -14 -15 -26 -15c-5 0 -9 1 -14 4z" />
    <glyph glyph-name="Idieresis" unicode="&#xcf;" horiz-adv-x="335" 
d="M125 35v629c0 23 19 41 43 41c23 0 42 -18 42 -41v-629c0 -23 -19 -42 -42 -42c-24 0 -43 19 -43 42zM-2 813c0 27 24 45 55 45c28 0 52 -18 52 -45c0 -29 -24 -48 -52 -48c-32 0 -55 19 -55 48zM230 813c0 27 25 45 56 45c28 0 51 -17 51 -45c0 -29 -23 -48 -51 -48
c-32 0 -56 19 -56 48z" />
    <glyph glyph-name="Eth" unicode="&#xd0;" horiz-adv-x="754" 
d="M704 359c0 -105 -35 -191 -104 -259c-70 -68 -169 -102 -297 -102c-22 0 -69 1 -141 2c-23 0 -42 19 -42 42v274h-73c-20 0 -37 17 -37 38c0 20 17 37 37 37h73v267c0 23 18 42 42 42c98 2 148 3 149 3c280 0 393 -160 393 -344zM357 316h-152v-236c61 -1 95 -2 101 -2
c97 0 173 26 227 78c54 51 81 119 81 203c0 79 -26 142 -79 191s-128 73 -226 73c-34 0 -77 -3 -104 -3v-229h152c19 0 36 -17 36 -37c0 -21 -17 -38 -36 -38z" />
    <glyph glyph-name="Ntilde" unicode="&#xd1;" horiz-adv-x="795" 
d="M198 669l412 -521v518c0 21 19 39 40 39s40 -18 40 -39v-630c0 -25 -15 -43 -36 -43c-17 0 -34 10 -51 31l-418 527v-519c0 -21 -19 -39 -40 -39s-40 18 -40 39v626c0 27 14 47 39 47c17 0 35 -12 54 -36zM585 817c0 -7 -4 -15 -11 -24c-29 -30 -62 -45 -99 -45
c-18 0 -43 8 -74 25c-32 16 -57 24 -74 24c-13 0 -29 -7 -50 -21c-7 -5 -13 -7 -20 -7c-8 0 -15 3 -22 10c-5 5 -7 11 -7 18c0 9 3 16 9 21c31 27 62 40 93 40c21 0 47 -8 80 -24c32 -17 57 -25 74 -25c8 0 20 5 25 8c4 3 23 15 26 18c17 11 30 11 42 0c5 -5 8 -11 8 -18z
" />
    <glyph glyph-name="Ograve" unicode="&#xd2;" horiz-adv-x="814" 
d="M407 -10c-103 0 -188 34 -255 101c-68 67 -102 154 -102 259c0 102 34 188 101 257s153 103 256 103s188 -34 256 -101c67 -67 101 -154 101 -259c0 -103 -34 -189 -102 -257c-68 -69 -153 -103 -255 -103zM407 630c-77 0 -140 -26 -191 -79s-76 -120 -76 -201
c0 -79 26 -146 77 -199c51 -54 115 -81 190 -81c79 0 143 27 193 80c49 53 74 120 74 200c0 81 -26 148 -77 201s-115 79 -190 79zM289 844l8 18c5 10 12 15 23 15c4 0 8 -1 12 -3l147 -78c11 -6 16 -15 16 -26c0 -4 -1 -8 -3 -12c-5 -10 -14 -15 -25 -15c-5 0 -9 1 -12 2
l-152 64c-11 4 -16 12 -16 24c0 5 1 8 2 11z" />
    <glyph glyph-name="Oacute" unicode="&#xd3;" horiz-adv-x="814" 
d="M407 -10c-103 0 -188 34 -255 101c-68 67 -102 154 -102 259c0 102 34 188 101 257s153 103 256 103s188 -34 256 -101c67 -67 101 -154 101 -259c0 -103 -34 -189 -102 -257c-68 -69 -153 -103 -255 -103zM407 630c-77 0 -140 -26 -191 -79s-76 -120 -76 -201
c0 -79 26 -146 77 -199c51 -54 115 -81 190 -81c79 0 143 27 193 80c49 53 74 120 74 200c0 81 -26 148 -77 201s-115 79 -190 79zM362 796l147 78c4 2 8 3 12 3c11 0 18 -5 23 -15l8 -18c1 -3 2 -6 2 -11c0 -12 -5 -20 -16 -24l-152 -64c-4 -1 -7 -2 -10 -2
c-12 0 -21 5 -26 15c-2 4 -3 8 -3 13c0 11 5 20 15 25z" />
    <glyph glyph-name="Ocircumflex" unicode="&#xd4;" horiz-adv-x="814" 
d="M407 -10c-103 0 -188 34 -255 101c-68 67 -102 154 -102 259c0 102 34 188 101 257s153 103 256 103s188 -34 256 -101c67 -67 101 -154 101 -259c0 -103 -34 -189 -102 -257c-68 -69 -153 -103 -255 -103zM407 630c-77 0 -140 -26 -191 -79s-76 -120 -76 -201
c0 -79 26 -146 77 -199c51 -54 115 -81 190 -81c79 0 143 27 193 80c49 53 74 120 74 200c0 81 -26 148 -77 201s-115 79 -190 79zM530 744l-121 67l-115 -65c-5 -3 -11 -5 -17 -5c-11 0 -19 4 -25 13c-3 4 -5 9 -5 16c0 11 5 20 15 25l122 72c7 5 16 7 25 7
c10 0 18 -2 25 -7l126 -73c9 -5 14 -13 14 -24c0 -7 -1 -12 -4 -15c-5 -10 -14 -15 -26 -15c-5 0 -9 1 -14 4z" />
    <glyph glyph-name="Otilde" unicode="&#xd5;" horiz-adv-x="814" 
d="M407 -10c-103 0 -188 34 -255 101c-68 67 -102 154 -102 259c0 102 34 188 101 257s153 103 256 103s188 -34 256 -101c67 -67 101 -154 101 -259c0 -103 -34 -189 -102 -257c-68 -69 -153 -103 -255 -103zM407 630c-77 0 -140 -26 -191 -79s-76 -120 -76 -201
c0 -79 26 -146 77 -199c51 -54 115 -81 190 -81c79 0 143 27 193 80c49 53 74 120 74 200c0 81 -26 148 -77 201s-115 79 -190 79zM587 817c0 -7 -4 -15 -11 -24c-29 -30 -62 -45 -99 -45c-18 0 -43 8 -74 25c-32 16 -57 24 -74 24c-13 0 -29 -7 -50 -21
c-7 -5 -13 -7 -20 -7c-8 0 -15 3 -22 10c-5 5 -7 11 -7 18c0 9 3 16 9 21c31 27 62 40 93 40c21 0 47 -8 80 -24c32 -17 57 -25 74 -25c8 0 20 5 25 8c4 3 23 15 26 18c17 11 30 11 42 0c5 -5 8 -11 8 -18z" />
    <glyph glyph-name="Odieresis" unicode="&#xd6;" horiz-adv-x="814" 
d="M407 -10c-103 0 -188 34 -255 101c-68 67 -102 154 -102 259c0 102 34 188 101 257s153 103 256 103s188 -34 256 -101c67 -67 101 -154 101 -259c0 -103 -34 -189 -102 -257c-68 -69 -153 -103 -255 -103zM407 630c-77 0 -140 -26 -191 -79s-76 -120 -76 -201
c0 -79 26 -146 77 -199c51 -54 115 -81 190 -81c79 0 143 27 193 80c49 53 74 120 74 200c0 81 -26 148 -77 201s-115 79 -190 79zM236 813c0 27 24 45 55 45c28 0 52 -18 52 -45c0 -29 -24 -48 -52 -48c-32 0 -55 19 -55 48zM468 813c0 27 25 45 56 45c28 0 51 -17 51 -45
c0 -29 -23 -48 -51 -48c-32 0 -56 19 -56 48z" />
    <glyph glyph-name="multiply" unicode="&#xd7;" horiz-adv-x="521" 
d="M123 189c-29 0 -46 38 -24 60l111 111l-110 110c-33 33 17 83 50 50l110 -111l110 111c7 7 16 11 25 11c10 0 18 -4 24 -11c15 -15 15 -35 0 -50l-110 -110l112 -111c15 -15 15 -35 0 -50c-13 -13 -37 -13 -50 0l-111 111l-112 -111c-7 -7 -15 -10 -25 -10z" />
    <glyph glyph-name="Oslash" unicode="&#xd8;" horiz-adv-x="814" 
d="M121 46c-9 0 -17 4 -24 11s-10 14 -10 22c0 9 4 18 12 26l22 21c-47 62 -71 137 -71 224c0 102 34 188 101 257s153 103 256 103c90 0 167 -27 231 -80l20 19c13 13 35 13 46 1c7 -6 10 -14 10 -24c0 -9 -3 -17 -10 -24l-19 -18c53 -64 79 -142 79 -234
c0 -103 -34 -189 -102 -257c-68 -69 -153 -103 -255 -103c-95 0 -175 29 -240 87l-21 -20c-7 -7 -16 -11 -25 -11zM621 521l-392 -383c49 -45 109 -68 178 -68c79 0 143 27 193 80c49 53 74 120 74 200c0 65 -18 122 -53 171zM186 189l390 381c-47 40 -104 60 -169 60
c-77 0 -140 -26 -191 -79s-76 -120 -76 -201c0 -60 15 -114 46 -161z" />
    <glyph glyph-name="Ugrave" unicode="&#xd9;" horiz-adv-x="751" 
d="M180 664v-349c0 -153 74 -244 205 -244c117 0 186 82 186 238v355c0 23 19 41 43 41c23 0 42 -18 42 -41v-372c0 -101 -26 -176 -77 -226s-116 -75 -194 -75c-87 0 -157 27 -210 80s-80 129 -80 228v365c0 23 19 41 43 41c23 0 42 -18 42 -41zM244 844l8 18
c5 10 12 15 23 15c4 0 8 -1 12 -3l147 -78c11 -6 16 -15 16 -26c0 -4 -1 -8 -3 -12c-5 -10 -13 -15 -25 -15c-5 0 -9 1 -12 2l-152 64c-11 4 -16 12 -16 24c0 5 1 8 2 11z" />
    <glyph glyph-name="Uacute" unicode="&#xda;" horiz-adv-x="751" 
d="M180 664v-349c0 -153 74 -244 205 -244c117 0 186 82 186 238v355c0 23 19 41 43 41c23 0 42 -18 42 -41v-372c0 -101 -26 -176 -77 -226s-116 -75 -194 -75c-87 0 -157 27 -210 80s-80 129 -80 228v365c0 23 19 41 43 41c23 0 42 -18 42 -41zM327 796l147 78
c4 2 8 3 12 3c11 0 18 -5 23 -15l8 -18c1 -3 2 -6 2 -11c0 -12 -5 -20 -16 -24l-152 -64c-4 -1 -7 -2 -10 -2c-12 0 -21 5 -26 15c-2 4 -3 8 -3 13c0 11 5 20 15 25z" />
    <glyph glyph-name="Ucircumflex" unicode="&#xdb;" horiz-adv-x="751" 
d="M180 664v-349c0 -153 74 -244 205 -244c117 0 186 82 186 238v355c0 23 19 41 43 41c23 0 42 -18 42 -41v-372c0 -101 -26 -176 -77 -226s-116 -75 -194 -75c-87 0 -157 27 -210 80s-80 129 -80 228v365c0 23 19 41 43 41c23 0 42 -18 42 -41zM494 744l-121 67l-115 -65
c-5 -3 -11 -5 -17 -5c-11 0 -19 4 -25 13c-3 4 -5 9 -5 16c0 11 5 20 15 25l122 72c7 5 16 7 25 7c10 0 18 -2 25 -7l126 -73c9 -5 14 -13 14 -24c0 -7 -1 -12 -4 -15c-5 -10 -14 -15 -26 -15c-5 0 -9 1 -14 4z" />
    <glyph glyph-name="Udieresis" unicode="&#xdc;" horiz-adv-x="751" 
d="M180 664v-349c0 -153 74 -244 205 -244c117 0 186 82 186 238v355c0 23 19 41 43 41c23 0 42 -18 42 -41v-372c0 -101 -26 -176 -77 -226s-116 -75 -194 -75c-87 0 -157 27 -210 80s-80 129 -80 228v365c0 23 19 41 43 41c23 0 42 -18 42 -41zM201 813c0 27 24 45 55 45
c28 0 52 -18 52 -45c0 -29 -24 -48 -52 -48c-32 0 -55 19 -55 48zM433 813c0 27 25 45 56 45c28 0 51 -17 51 -45c0 -29 -23 -48 -51 -48c-32 0 -56 19 -56 48z" />
    <glyph glyph-name="Yacute" unicode="&#xdd;" horiz-adv-x="584" 
d="M28 664c0 23 18 41 43 41c16 0 30 -10 42 -31l180 -294l181 294c13 21 27 31 44 31c24 0 38 -16 38 -36c0 -7 -2 -15 -7 -23l-217 -346v-265c0 -23 -19 -42 -42 -42c-24 0 -43 19 -43 42v265l-212 340c-5 7 -7 15 -7 24zM246 796l147 78c4 2 8 3 12 3c11 0 18 -5 23 -15
l8 -18c1 -3 2 -6 2 -11c0 -12 -5 -20 -16 -24l-152 -64c-4 -1 -7 -2 -10 -2c-12 0 -21 5 -26 15c-2 4 -3 8 -3 13c0 11 5 20 15 25z" />
    <glyph glyph-name="Thorn" unicode="&#xde;" horiz-adv-x="597" 
d="M190 664v-69c9 0 26 0 51 1s40 1 47 1c92 0 158 -20 199 -61c40 -41 60 -93 60 -156c0 -61 -22 -113 -65 -156c-44 -43 -106 -64 -187 -64c-39 0 -74 1 -105 4v-129c0 -23 -19 -42 -42 -42c-24 0 -43 19 -43 42v629c0 23 19 41 43 41c23 0 42 -18 42 -41zM190 514v-269
c38 -3 72 -5 102 -5c103 0 165 53 165 141c0 85 -56 136 -168 136c-20 0 -53 -1 -99 -3z" />
    <glyph glyph-name="germandbls" unicode="&#xdf;" horiz-adv-x="546" 
d="M234 25c-9 9 -14 19 -14 32c0 19 15 33 32 33c24 0 52 -23 81 -23c48 0 88 34 88 89c0 107 -183 117 -183 234c0 44 23 81 47 101s47 49 47 80c0 39 -36 66 -80 66c-67 0 -97 -42 -97 -137v-469c4 -49 -84 -49 -80 0v479c0 135 63 202 188 202c44 0 81 -12 110 -36
c29 -25 44 -55 44 -91c0 -97 -94 -109 -94 -180c0 -57 66 -89 118 -124c36 -25 65 -70 65 -127c0 -46 -15 -84 -44 -115c-30 -31 -68 -47 -115 -47c-51 0 -88 11 -113 33z" />
    <glyph glyph-name="agrave" unicode="&#xe0;" horiz-adv-x="460" 
d="M40 132c0 89 70 143 170 143c48 0 85 -10 112 -29c0 96 -19 142 -102 142c-29 0 -59 -6 -90 -18c-5 -2 -10 -3 -15 -3c-15 0 -25 7 -31 20c-2 5 -3 9 -3 14c0 16 7 27 20 32c43 18 85 27 124 27c124 0 173 -61 173 -184v-248c0 -19 -17 -35 -38 -35s-38 16 -38 35v30
c-35 -43 -83 -65 -144 -65c-83 0 -138 54 -138 139zM322 123v57c-28 20 -62 30 -101 30c-53 0 -96 -26 -96 -74c0 -44 30 -71 81 -71c45 0 83 19 116 58zM211 695l71 -104c4 -5 6 -11 6 -18c0 -10 -4 -18 -12 -25c-5 -3 -11 -5 -18 -5c-12 0 -21 4 -28 12l-79 94
c-5 5 -7 12 -7 20c0 9 4 17 11 23l13 10c5 4 11 6 18 6c10 0 18 -4 25 -13z" />
    <glyph glyph-name="aacute" unicode="&#xe1;" horiz-adv-x="460" 
d="M40 132c0 89 70 143 170 143c48 0 85 -10 112 -29c0 96 -19 142 -102 142c-29 0 -59 -6 -90 -18c-5 -2 -10 -3 -15 -3c-15 0 -25 7 -31 20c-2 5 -3 9 -3 14c0 16 7 27 20 32c43 18 85 27 124 27c124 0 173 -61 173 -184v-248c0 -19 -17 -35 -38 -35s-38 16 -38 35v30
c-35 -43 -83 -65 -144 -65c-83 0 -138 54 -138 139zM322 123v57c-28 20 -62 30 -101 30c-53 0 -96 -26 -96 -74c0 -44 30 -71 81 -71c45 0 83 19 116 58zM184 590l72 107c5 8 13 12 24 12c7 0 12 -2 17 -6l14 -10c7 -6 11 -14 11 -23c0 -8 -2 -14 -7 -19l-80 -97
c-7 -8 -16 -12 -26 -12c-6 0 -12 2 -17 5c-9 6 -13 15 -13 26c0 6 2 12 5 17z" />
    <glyph glyph-name="acircumflex" unicode="&#xe2;" horiz-adv-x="460" 
d="M40 132c0 89 70 143 170 143c48 0 85 -10 112 -29c0 96 -19 142 -102 142c-29 0 -59 -6 -90 -18c-5 -2 -10 -3 -15 -3c-15 0 -25 7 -31 20c-2 5 -3 9 -3 14c0 16 7 27 20 32c43 18 85 27 124 27c124 0 173 -61 173 -184v-248c0 -19 -17 -35 -38 -35s-38 16 -38 35v30
c-35 -43 -83 -65 -144 -65c-83 0 -138 54 -138 139zM322 123v57c-28 20 -62 30 -101 30c-53 0 -96 -26 -96 -74c0 -44 30 -71 81 -71c45 0 83 19 116 58zM310 546l-81 71l-81 -70c-7 -5 -14 -8 -21 -8c-8 0 -15 3 -22 10c-5 5 -8 12 -8 20c0 9 3 17 9 23l102 94
c12 12 34 12 46 0l99 -94c7 -7 10 -14 10 -23c0 -8 -3 -15 -9 -21c-7 -7 -14 -10 -23 -10c-7 0 -14 3 -21 8z" />
    <glyph glyph-name="atilde" unicode="&#xe3;" horiz-adv-x="460" 
d="M40 132c0 89 70 143 170 143c48 0 85 -10 112 -29c0 96 -19 142 -102 142c-29 0 -59 -6 -90 -18c-5 -2 -10 -3 -15 -3c-15 0 -25 7 -31 20c-2 5 -3 9 -3 14c0 16 7 27 20 32c43 18 85 27 124 27c124 0 173 -61 173 -184v-248c0 -19 -17 -35 -38 -35s-38 16 -38 35v30
c-35 -43 -83 -65 -144 -65c-83 0 -138 54 -138 139zM322 123v57c-28 20 -62 30 -101 30c-53 0 -96 -26 -96 -74c0 -44 30 -71 81 -71c45 0 83 19 116 58zM384 614c0 -9 -3 -15 -8 -20c-35 -30 -66 -45 -93 -45c-15 0 -35 7 -60 22c-25 14 -44 21 -59 21c-7 0 -24 -8 -49 -24
c-13 -8 -27 -9 -39 3c-3 5 -5 9 -5 14c0 9 4 17 13 25c31 26 60 39 87 39c16 0 37 -7 62 -21s44 -21 57 -21c10 0 27 9 51 26c5 4 10 6 17 6s14 -3 21 -10c3 -3 5 -8 5 -15z" />
    <glyph glyph-name="adieresis" unicode="&#xe4;" horiz-adv-x="460" 
d="M40 132c0 89 70 143 170 143c48 0 85 -10 112 -29c0 96 -19 142 -102 142c-29 0 -59 -6 -90 -18c-5 -2 -10 -3 -15 -3c-15 0 -25 7 -31 20c-2 5 -3 9 -3 14c0 16 7 27 20 32c43 18 85 27 124 27c124 0 173 -61 173 -184v-248c0 -19 -17 -35 -38 -35s-38 16 -38 35v30
c-35 -43 -83 -65 -144 -65c-83 0 -138 54 -138 139zM322 123v57c-28 20 -62 30 -101 30c-53 0 -96 -26 -96 -74c0 -44 30 -71 81 -71c45 0 83 19 116 58zM130 560c-27 0 -47 19 -47 50c0 28 20 46 47 46c23 0 44 -19 44 -46c0 -31 -20 -50 -44 -50zM334 560
c-27 0 -48 19 -48 50c0 27 21 46 48 46c23 0 44 -19 44 -46c0 -31 -20 -50 -44 -50z" />
    <glyph glyph-name="aring" unicode="&#xe5;" horiz-adv-x="460" 
d="M40 132c0 89 70 143 170 143c48 0 85 -10 112 -29c0 96 -19 142 -102 142c-29 0 -59 -6 -90 -18c-5 -2 -10 -3 -15 -3c-15 0 -25 7 -31 20c-2 5 -3 9 -3 14c0 16 7 27 20 32c43 18 85 27 124 27c124 0 173 -61 173 -184v-248c0 -19 -17 -35 -38 -35s-38 16 -38 35v30
c-35 -43 -83 -65 -144 -65c-83 0 -138 54 -138 139zM322 123v57c-28 20 -62 30 -101 30c-53 0 -96 -26 -96 -74c0 -44 30 -71 81 -71c45 0 83 19 116 58zM230 503c-64 0 -114 49 -114 110s50 111 114 111c65 0 116 -50 116 -111s-51 -110 -116 -110zM276 660
c-36 42 -112 10 -108 -46c0 -37 27 -66 63 -66s63 29 63 66c0 18 -6 33 -18 46z" />
    <glyph glyph-name="ae" unicode="&#xe6;" horiz-adv-x="778" 
d="M398 276v-11h257c-4 75 -53 120 -130 120c-58 0 -101 -23 -129 -69c1 -16 2 -29 2 -40zM318 123v73c-34 9 -66 14 -97 14c-53 0 -96 -26 -96 -74c0 -41 34 -68 81 -68c43 0 81 18 112 55zM194 -7c-97 0 -154 51 -154 139c0 89 70 143 170 143c43 0 79 -5 108 -14v16
c0 73 -27 111 -98 111c-30 0 -60 -6 -90 -18c-4 -2 -9 -3 -14 -3c-16 0 -27 7 -32 21c-2 5 -3 10 -3 14c0 15 6 25 19 30c43 19 84 28 125 28c68 0 115 -20 142 -59c43 39 97 59 162 59c59 0 109 -19 149 -57c40 -39 60 -88 60 -149c0 -9 0 -16 -1 -21
c-1 -16 -18 -33 -35 -33h-304v-62c29 -49 78 -73 146 -73c41 0 77 9 108 26c9 5 17 7 23 7c11 0 20 -5 27 -14c4 -5 6 -11 6 -18c0 -11 -4 -20 -13 -27c-47 -33 -99 -49 -157 -49c-76 0 -136 23 -181 70c-49 -45 -104 -67 -163 -67z" />
    <glyph glyph-name="ccedilla" unicode="&#xe7;" horiz-adv-x="477" 
d="M380 359c-33 17 -66 26 -99 26c-42 0 -78 -15 -108 -45c-31 -31 -46 -69 -46 -115c0 -48 16 -87 47 -116s69 -44 115 -44c37 0 69 10 96 31c11 9 21 13 31 13c9 0 16 -3 23 -10s11 -15 11 -25c0 -11 -4 -20 -11 -26c-42 -37 -92 -57 -149 -58v-33c67 -4 101 -31 101 -80
s-47 -82 -126 -82c-31 0 -59 7 -84 21c-9 4 -13 11 -13 22c0 4 1 7 2 10c3 8 10 12 20 12c5 0 10 -1 15 -3c18 -8 35 -12 50 -12c37 0 56 13 56 40c0 21 -15 35 -40 35c-13 0 -24 11 -24 24v48c-124 15 -205 104 -205 233c0 66 22 122 65 167s98 68 163 68
c56 0 105 -12 146 -35c14 -7 21 -19 21 -34c0 -7 -2 -13 -5 -18c-7 -12 -18 -18 -33 -18c-7 0 -14 1 -19 4z" />
    <glyph glyph-name="egrave" unicode="&#xe8;" horiz-adv-x="525" 
d="M127 265h273c-4 75 -53 120 -130 120c-80 0 -134 -49 -143 -120zM483 254c0 -10 0 -17 -1 -22c-1 -16 -18 -32 -34 -32h-316c7 -84 68 -135 157 -135c42 0 79 9 110 27c7 4 15 6 22 6c10 0 19 -4 27 -13c4 -5 6 -11 6 -18c0 -13 -4 -22 -12 -27
c-47 -33 -100 -50 -159 -50c-73 0 -131 21 -175 64s-66 100 -66 171c0 68 21 124 62 169c41 44 98 66 170 66c59 0 109 -19 149 -57c40 -39 60 -88 60 -149zM246 695l71 -104c4 -5 6 -11 6 -18c0 -10 -4 -18 -12 -25c-5 -3 -11 -5 -18 -5c-11 0 -21 4 -28 12l-79 94
c-5 5 -7 12 -7 20c0 9 4 17 11 23l13 10c5 4 11 6 18 6c10 0 18 -4 25 -13z" />
    <glyph glyph-name="eacute" unicode="&#xe9;" horiz-adv-x="525" 
d="M127 265h273c-4 75 -53 120 -130 120c-80 0 -134 -49 -143 -120zM483 254c0 -10 0 -17 -1 -22c-1 -16 -18 -32 -34 -32h-316c7 -84 68 -135 157 -135c42 0 79 9 110 27c7 4 15 6 22 6c10 0 19 -4 27 -13c4 -5 6 -11 6 -18c0 -13 -4 -22 -12 -27
c-47 -33 -100 -50 -159 -50c-73 0 -131 21 -175 64s-66 100 -66 171c0 68 21 124 62 169c41 44 98 66 170 66c59 0 109 -19 149 -57c40 -39 60 -88 60 -149zM239 590l72 107c5 8 13 12 24 12c6 0 12 -2 17 -6l14 -10c7 -6 11 -14 11 -23c0 -8 -2 -14 -7 -19l-80 -97
c-7 -8 -15 -12 -26 -12c-6 0 -12 2 -17 5c-9 6 -13 15 -13 26c0 6 2 12 5 17z" />
    <glyph glyph-name="ecircumflex" unicode="&#xea;" horiz-adv-x="525" 
d="M127 265h273c-4 75 -53 120 -130 120c-80 0 -134 -49 -143 -120zM483 254c0 -10 0 -17 -1 -22c-1 -16 -18 -32 -34 -32h-316c7 -84 68 -135 157 -135c42 0 79 9 110 27c7 4 15 6 22 6c10 0 19 -4 27 -13c4 -5 6 -11 6 -18c0 -13 -4 -22 -12 -27
c-47 -33 -100 -50 -159 -50c-73 0 -131 21 -175 64s-66 100 -66 171c0 68 21 124 62 169c41 44 98 66 170 66c59 0 109 -19 149 -57c40 -39 60 -88 60 -149zM350 546l-81 71l-81 -70c-7 -5 -14 -8 -21 -8c-8 0 -15 3 -22 10c-5 5 -8 12 -8 20c0 9 3 17 9 23l102 94
c12 12 34 12 46 0l99 -94c7 -7 10 -14 10 -23c0 -8 -3 -15 -9 -21c-7 -7 -14 -10 -23 -10c-7 0 -14 3 -21 8z" />
    <glyph glyph-name="edieresis" unicode="&#xeb;" horiz-adv-x="525" 
d="M127 265h273c-4 75 -53 120 -130 120c-80 0 -134 -49 -143 -120zM483 254c0 -10 0 -17 -1 -22c-1 -16 -18 -32 -34 -32h-316c7 -84 68 -135 157 -135c42 0 79 9 110 27c7 4 15 6 22 6c10 0 19 -4 27 -13c4 -5 6 -11 6 -18c0 -13 -4 -22 -12 -27
c-47 -33 -100 -50 -159 -50c-73 0 -131 21 -175 64s-66 100 -66 171c0 68 21 124 62 169c41 44 98 66 170 66c59 0 109 -19 149 -57c40 -39 60 -88 60 -149zM166 560c-27 0 -47 19 -47 50c0 28 20 46 47 46c23 0 44 -19 44 -46c0 -31 -20 -50 -44 -50zM370 560
c-27 0 -48 19 -48 50c0 27 21 46 48 46c23 0 44 -19 44 -46c0 -31 -20 -50 -44 -50z" />
    <glyph glyph-name="igrave" unicode="&#xec;" horiz-adv-x="268" 
d="M174 417v-386c4 -49 -84 -49 -80 0v386c-4 49 84 49 80 0zM87 695l71 -104c4 -5 6 -11 6 -18c0 -10 -4 -18 -12 -25c-5 -3 -11 -5 -18 -5c-12 0 -21 4 -28 12l-79 94c-5 5 -7 12 -7 20c0 9 4 17 11 23l13 10c5 4 11 6 18 6c10 0 18 -4 25 -13z" />
    <glyph glyph-name="iacute" unicode="&#xed;" horiz-adv-x="268" 
d="M174 417v-386c4 -49 -84 -49 -80 0v386c-4 49 84 49 80 0zM95 590l72 107c5 8 13 12 24 12c6 0 12 -2 17 -6l14 -10c7 -6 11 -14 11 -23c0 -8 -2 -14 -7 -19l-80 -97c-7 -8 -15 -12 -26 -12c-6 0 -12 2 -17 5c-9 6 -13 15 -13 26c0 6 2 12 5 17z" />
    <glyph glyph-name="icircumflex" unicode="&#xee;" horiz-adv-x="268" 
d="M174 417v-386c4 -49 -84 -49 -80 0v386c-4 49 84 49 80 0zM215 546l-81 71l-81 -70c-7 -5 -14 -8 -21 -8c-8 0 -15 3 -22 10c-5 5 -8 12 -8 20c0 9 3 17 9 23l102 94c12 12 34 12 46 0l99 -94c7 -7 10 -14 10 -23c0 -8 -3 -15 -9 -21c-7 -7 -14 -10 -23 -10
c-7 0 -14 3 -21 8z" />
    <glyph glyph-name="idieresis" unicode="&#xef;" horiz-adv-x="268" 
d="M174 417v-386c4 -49 -84 -49 -80 0v386c-4 49 84 49 80 0zM34 560c-27 0 -47 19 -47 50c0 28 20 46 47 46c23 0 44 -19 44 -46c0 -31 -20 -50 -44 -50zM238 560c-27 0 -48 19 -48 50c0 27 21 46 48 46c23 0 44 -19 44 -46c0 -31 -20 -50 -44 -50z" />
    <glyph glyph-name="eth" unicode="&#xf0;" 
d="M109 57c-45 44 -67 100 -67 168s22 124 67 169c44 44 102 66 173 66c57 0 108 -31 135 -79c-15 67 -46 129 -93 185l-93 -38c-5 -2 -10 -3 -15 -3c-15 0 -27 8 -34 23c-2 5 -3 10 -3 14c0 16 8 27 24 33l66 28c-17 15 -35 30 -56 44c-9 6 -14 15 -14 26c0 6 2 12 5 17
c6 9 15 14 26 14c6 0 12 -2 17 -5c33 -19 64 -41 93 -66l76 32c5 2 10 3 16 3c17 0 28 -7 33 -21c2 -5 3 -10 3 -14c0 -17 -8 -29 -24 -35l-48 -21c80 -95 126 -221 126 -337c0 -84 -22 -150 -65 -198c-44 -48 -102 -72 -175 -72c-71 0 -129 22 -173 67zM127 225
c0 -93 64 -160 155 -160c92 0 155 72 155 187v13c-13 65 -74 120 -155 120c-89 0 -155 -65 -155 -160z" />
    <glyph glyph-name="ntilde" unicode="&#xf1;" horiz-adv-x="558" 
d="M152 325v-294c4 -49 -84 -49 -80 0v386c-4 49 84 49 80 0v-22c33 36 91 63 147 63c125 0 187 -66 187 -198v-229c4 -49 -84 -49 -80 0v214c0 92 -42 138 -127 138c-51 0 -93 -19 -127 -58zM429 614c0 -9 -3 -15 -8 -20c-35 -30 -66 -45 -93 -45c-15 0 -35 7 -60 22
c-25 14 -44 21 -59 21c-7 0 -24 -8 -49 -24c-13 -8 -27 -9 -39 3c-3 5 -5 9 -5 14c0 9 4 17 13 25c31 26 60 39 87 39c16 0 37 -7 62 -21s44 -21 57 -21c10 0 27 9 51 26c5 4 11 6 17 6c7 0 14 -3 21 -10c3 -3 5 -8 5 -15z" />
    <glyph glyph-name="ograve" unicode="&#xf2;" 
d="M109 57c-45 44 -67 100 -67 168s22 124 67 169c44 44 102 66 173 66s129 -22 174 -66c44 -45 66 -101 66 -169s-22 -124 -66 -168c-45 -45 -103 -67 -174 -67s-129 22 -173 67zM127 225c0 -93 64 -160 155 -160s155 65 155 160c0 93 -64 160 -155 160
c-89 0 -155 -65 -155 -160zM250 695l71 -104c4 -5 6 -11 6 -18c0 -10 -4 -18 -12 -25c-5 -3 -11 -5 -18 -5c-11 0 -21 4 -28 12l-79 94c-5 5 -7 12 -7 20c0 9 4 17 11 23l13 10c5 4 11 6 18 6c10 0 18 -4 25 -13z" />
    <glyph glyph-name="oacute" unicode="&#xf3;" 
d="M109 57c-45 44 -67 100 -67 168s22 124 67 169c44 44 102 66 173 66s129 -22 174 -66c44 -45 66 -101 66 -169s-22 -124 -66 -168c-45 -45 -103 -67 -174 -67s-129 22 -173 67zM127 225c0 -93 64 -160 155 -160s155 65 155 160c0 93 -64 160 -155 160
c-89 0 -155 -65 -155 -160zM243 590l72 107c5 8 13 12 24 12c6 0 12 -2 17 -6l14 -10c7 -6 11 -14 11 -23c0 -8 -2 -14 -7 -19l-80 -97c-7 -8 -15 -12 -26 -12c-6 0 -12 2 -17 5c-9 6 -13 15 -13 26c0 6 2 12 5 17z" />
    <glyph glyph-name="ocircumflex" unicode="&#xf4;" 
d="M109 57c-45 44 -67 100 -67 168s22 124 67 169c44 44 102 66 173 66s129 -22 174 -66c44 -45 66 -101 66 -169s-22 -124 -66 -168c-45 -45 -103 -67 -174 -67s-129 22 -173 67zM127 225c0 -93 64 -160 155 -160s155 65 155 160c0 93 -64 160 -155 160
c-89 0 -155 -65 -155 -160zM363 546l-81 71l-81 -70c-7 -5 -14 -8 -21 -8c-8 0 -15 3 -22 10c-5 5 -8 12 -8 20c0 9 3 17 9 23l102 94c12 12 34 12 46 0l99 -94c7 -7 10 -14 10 -23c0 -8 -3 -15 -9 -21c-7 -7 -14 -10 -23 -10c-7 0 -14 3 -21 8z" />
    <glyph glyph-name="otilde" unicode="&#xf5;" 
d="M109 57c-45 44 -67 100 -67 168s22 124 67 169c44 44 102 66 173 66s129 -22 174 -66c44 -45 66 -101 66 -169s-22 -124 -66 -168c-45 -45 -103 -67 -174 -67s-129 22 -173 67zM127 225c0 -93 64 -160 155 -160s155 65 155 160c0 93 -64 160 -155 160
c-89 0 -155 -65 -155 -160zM437 614c0 -9 -3 -15 -8 -20c-35 -30 -66 -45 -93 -45c-15 0 -35 7 -60 22c-25 14 -44 21 -59 21c-7 0 -24 -8 -49 -24c-13 -8 -27 -9 -39 3c-3 5 -5 9 -5 14c0 9 4 17 13 25c31 26 60 39 87 39c16 0 37 -7 62 -21s44 -21 57 -21c10 0 27 9 51 26
c5 4 11 6 17 6c7 0 14 -3 21 -10c3 -3 5 -8 5 -15z" />
    <glyph glyph-name="odieresis" unicode="&#xf6;" 
d="M109 57c-45 44 -67 100 -67 168s22 124 67 169c44 44 102 66 173 66s129 -22 174 -66c44 -45 66 -101 66 -169s-22 -124 -66 -168c-45 -45 -103 -67 -174 -67s-129 22 -173 67zM127 225c0 -93 64 -160 155 -160s155 65 155 160c0 93 -64 160 -155 160
c-89 0 -155 -65 -155 -160zM186 560c-27 0 -47 19 -47 50c0 28 20 46 47 46c23 0 44 -19 44 -46c0 -31 -20 -50 -44 -50zM390 560c-27 0 -48 19 -48 50c0 27 21 46 48 46c23 0 44 -19 44 -46c0 -31 -20 -50 -44 -50z" />
    <glyph glyph-name="divide" unicode="&#xf7;" horiz-adv-x="592" 
d="M246 564c0 25 19 48 50 48c28 0 49 -24 49 -48c0 -27 -20 -51 -49 -51c-31 0 -50 23 -50 51zM246 157c0 24 19 47 50 47c28 0 49 -23 49 -47c0 -28 -20 -51 -49 -51c-31 0 -50 23 -50 51zM104 395h384c19 0 35 -16 35 -35s-16 -35 -35 -35h-384c-19 0 -35 16 -35 35
s16 35 35 35z" />
    <glyph glyph-name="oslash" unicode="&#xf8;" horiz-adv-x="540" 
d="M124 33l-27 -25c-12 -12 -36 -13 -49 2c-6 7 -9 14 -9 22c0 9 4 18 13 27l23 22c-30 41 -45 89 -45 144c0 68 22 124 67 169c44 44 102 66 173 66c60 0 111 -16 153 -49l23 22c5 5 12 8 21 8c11 0 19 -4 26 -11c5 -7 8 -14 8 -21c0 -9 -4 -18 -11 -25l-22 -21
c28 -39 42 -85 42 -138c0 -68 -22 -124 -66 -168c-45 -45 -103 -67 -174 -67c-56 0 -105 14 -146 43zM136 139l228 216c-27 20 -59 30 -94 30c-89 0 -155 -65 -155 -160c0 -33 7 -62 21 -86zM407 304l-224 -214c25 -17 54 -25 87 -25c91 0 155 65 155 160c0 27 -6 54 -18 79
z" />
    <glyph glyph-name="ugrave" unicode="&#xf9;" horiz-adv-x="540" 
d="M387 132v285c-4 49 84 49 80 0v-386c4 -49 -84 -49 -80 0v33c-35 -41 -92 -74 -159 -74c-104 0 -166 64 -166 192v235c-4 49 84 49 80 0v-217c0 -90 39 -135 116 -135c49 0 100 28 129 67zM235 695l71 -104c4 -5 6 -11 6 -18c0 -10 -4 -18 -12 -25c-5 -3 -11 -5 -18 -5
c-12 0 -21 4 -28 12l-79 94c-5 5 -7 12 -7 20c0 9 4 17 11 23l13 10c5 4 11 6 18 6c10 0 18 -4 25 -13z" />
    <glyph glyph-name="uacute" unicode="&#xfa;" horiz-adv-x="540" 
d="M387 132v285c-4 49 84 49 80 0v-386c4 -49 -84 -49 -80 0v33c-35 -41 -92 -74 -159 -74c-104 0 -166 64 -166 192v235c-4 49 84 49 80 0v-217c0 -90 39 -135 116 -135c49 0 100 28 129 67zM233 590l72 107c5 8 13 12 24 12c6 0 12 -2 17 -6l14 -10c7 -6 11 -14 11 -23
c0 -8 -2 -14 -7 -19l-80 -97c-7 -8 -15 -12 -26 -12c-6 0 -12 2 -17 5c-9 6 -13 15 -13 26c0 6 2 12 5 17z" />
    <glyph glyph-name="ucircumflex" unicode="&#xfb;" horiz-adv-x="540" 
d="M387 132v285c-4 49 84 49 80 0v-386c4 -49 -84 -49 -80 0v33c-35 -41 -92 -74 -159 -74c-104 0 -166 64 -166 192v235c-4 49 84 49 80 0v-217c0 -90 39 -135 116 -135c49 0 100 28 129 67zM347 546l-81 71l-81 -70c-7 -5 -14 -8 -21 -8c-8 0 -15 3 -22 10
c-5 5 -8 12 -8 20c0 9 3 17 9 23l102 94c12 12 34 12 46 0l99 -94c7 -7 10 -14 10 -23c0 -8 -3 -15 -9 -21c-7 -7 -14 -10 -23 -10c-7 0 -14 3 -21 8z" />
    <glyph glyph-name="udieresis" unicode="&#xfc;" horiz-adv-x="540" 
d="M387 132v285c-4 49 84 49 80 0v-386c4 -49 -84 -49 -80 0v33c-35 -41 -92 -74 -159 -74c-104 0 -166 64 -166 192v235c-4 49 84 49 80 0v-217c0 -90 39 -135 116 -135c49 0 100 28 129 67zM168 560c-27 0 -47 19 -47 50c0 28 20 46 47 46c23 0 44 -19 44 -46
c0 -31 -20 -50 -44 -50zM372 560c-27 0 -48 19 -48 50c0 27 21 46 48 46c23 0 44 -19 44 -46c0 -31 -20 -50 -44 -50z" />
    <glyph glyph-name="yacute" unicode="&#xfd;" horiz-adv-x="479" 
d="M106 430l123 -266c1 -3 10 -26 27 -68c6 22 13 45 21 69l95 259c7 21 20 31 39 31c28 0 44 -16 44 -39c0 -5 -1 -11 -4 -19l-159 -397c-31 -78 -59 -131 -84 -159c-25 -27 -55 -41 -88 -41c-53 0 -80 16 -80 47c0 21 11 32 32 32c7 0 27 -5 39 -5c37 0 65 30 96 102
l10 24l-189 394c-3 5 -4 12 -4 19c0 23 17 42 44 42c17 0 30 -8 38 -25zM195 590l72 107c5 8 13 12 24 12c6 0 12 -2 17 -6l14 -10c7 -6 11 -14 11 -23c0 -8 -2 -14 -7 -19l-80 -97c-7 -8 -16 -12 -26 -12c-6 0 -12 2 -17 5c-9 6 -13 15 -13 26c0 6 2 12 5 17z" />
    <glyph glyph-name="thorn" unicode="&#xfe;" horiz-adv-x="556" 
d="M152 21v-183c4 -49 -84 -49 -80 0v824c-4 49 84 49 80 0v-260c40 39 91 58 153 58c63 0 114 -21 152 -63c37 -43 56 -98 56 -165c0 -69 -22 -127 -65 -173s-100 -69 -169 -69c-53 0 -96 10 -127 31zM152 323v-223c35 -23 75 -35 120 -35c95 0 156 68 156 164
c0 93 -55 156 -146 156c-53 0 -97 -21 -130 -62z" />
    <glyph glyph-name="ydieresis" unicode="&#xff;" horiz-adv-x="479" 
d="M106 430l123 -266c1 -3 10 -26 27 -68c6 22 13 45 21 69l95 259c7 21 20 31 39 31c28 0 44 -16 44 -39c0 -5 -1 -11 -4 -19l-159 -397c-31 -78 -59 -131 -84 -159c-25 -27 -55 -41 -88 -41c-53 0 -80 16 -80 47c0 21 11 32 32 32c7 0 27 -5 39 -5c37 0 65 30 96 102
l10 24l-189 394c-3 5 -4 12 -4 19c0 23 17 42 44 42c17 0 30 -8 38 -25zM141 560c-27 0 -47 19 -47 50c0 28 20 46 47 46c23 0 44 -19 44 -46c0 -31 -20 -50 -44 -50zM345 560c-27 0 -48 19 -48 50c0 27 21 46 48 46c23 0 44 -19 44 -46c0 -31 -20 -50 -44 -50z" />
    <glyph glyph-name="Amacron" unicode="&#x100;" horiz-adv-x="685" 
d="M581 21l-81 191h-319l-80 -191c-7 -19 -20 -28 -38 -28c-25 0 -40 18 -40 39c0 4 1 10 4 18l268 621c10 23 26 34 49 34s39 -11 48 -34l267 -618c2 -6 3 -12 3 -17c0 -23 -16 -43 -41 -43c-19 0 -32 9 -40 28zM215 292h252l-126 299zM223 835h240c42 3 41 -69 0 -65h-240
c-19 0 -32 14 -32 33c0 17 15 32 32 32z" />
    <glyph glyph-name="amacron" unicode="&#x101;" horiz-adv-x="460" 
d="M40 132c0 89 70 143 170 143c48 0 85 -10 112 -29c0 96 -19 142 -102 142c-29 0 -59 -6 -90 -18c-5 -2 -10 -3 -15 -3c-15 0 -25 7 -31 20c-2 5 -3 9 -3 14c0 16 7 27 20 32c43 18 85 27 124 27c124 0 173 -61 173 -184v-248c0 -19 -17 -35 -38 -35s-38 16 -38 35v30
c-35 -43 -83 -65 -144 -65c-83 0 -138 54 -138 139zM322 123v57c-28 20 -62 30 -101 30c-53 0 -96 -26 -96 -74c0 -44 30 -71 81 -71c45 0 83 19 116 58zM133 645h200c42 3 41 -69 0 -65h-200c-19 0 -32 14 -32 33c0 17 15 32 32 32z" />
    <glyph glyph-name="Abreve" unicode="&#x102;" horiz-adv-x="685" 
d="M581 21l-81 191h-319l-80 -191c-7 -19 -20 -28 -38 -28c-25 0 -40 18 -40 39c0 4 1 10 4 18l268 621c10 23 26 34 49 34s39 -11 48 -34l267 -618c2 -6 3 -12 3 -17c0 -23 -16 -43 -41 -43c-19 0 -32 9 -40 28zM215 292h252l-126 299zM469 862c11 11 29 10 40 1
c6 -5 9 -12 9 -21c0 -5 -2 -10 -5 -15c-47 -55 -102 -82 -166 -82c-69 0 -126 27 -170 80c-3 5 -5 10 -5 15c0 9 4 17 11 23c11 9 27 10 40 -1c34 -31 75 -47 124 -47c47 0 88 16 122 47z" />
    <glyph glyph-name="abreve" unicode="&#x103;" horiz-adv-x="460" 
d="M40 132c0 89 70 143 170 143c48 0 85 -10 112 -29c0 96 -19 142 -102 142c-29 0 -59 -6 -90 -18c-5 -2 -10 -3 -15 -3c-15 0 -25 7 -31 20c-2 5 -3 9 -3 14c0 16 7 27 20 32c43 18 85 27 124 27c124 0 173 -61 173 -184v-248c0 -19 -17 -35 -38 -35s-38 16 -38 35v30
c-35 -43 -83 -65 -144 -65c-83 0 -138 54 -138 139zM322 123v57c-28 20 -62 30 -101 30c-53 0 -96 -26 -96 -74c0 -44 30 -71 81 -71c45 0 83 19 116 58zM348 670c6 0 12 -2 18 -7c5 -5 8 -12 8 -19c0 -5 -2 -11 -7 -17c-41 -48 -87 -72 -140 -72s-99 24 -138 71
c-4 5 -6 11 -6 18c0 8 3 15 9 20c7 5 13 8 19 8c8 0 16 -4 23 -11c27 -27 59 -41 96 -41c35 0 67 13 96 40c8 7 15 10 22 10z" />
    <glyph glyph-name="Aogonek" unicode="&#x104;" horiz-adv-x="685" 
d="M583 15l-2 6l-81 191h-319l-80 -191c-7 -19 -20 -28 -38 -28c-25 0 -40 18 -40 39c0 4 1 10 4 18l268 621c10 23 26 34 49 34s39 -11 48 -34l267 -618c2 -6 3 -12 3 -17c0 -23 -16 -43 -41 -43c-10 0 -18 2 -23 7c-52 -4 -95 -42 -95 -82c0 -37 31 -53 60 -53
c7 0 15 1 22 3c5 1 9 2 12 2c14 0 23 -7 27 -21c1 -2 1 -5 1 -9c0 -12 -7 -22 -22 -29c-16 -7 -35 -11 -58 -11c-67 0 -122 28 -122 92c0 34 16 62 48 84c31 22 69 35 112 39zM215 292h252l-126 299z" />
    <glyph glyph-name="aogonek" unicode="&#x105;" horiz-adv-x="460" 
d="M40 132c0 89 70 143 170 143c48 0 85 -10 112 -29c0 96 -19 142 -102 142c-29 0 -59 -6 -90 -18c-5 -2 -10 -3 -15 -3c-15 0 -25 7 -31 20c-2 5 -3 9 -3 14c0 16 7 27 20 32c43 18 85 27 124 27c124 0 173 -61 173 -184v-248c0 -19 -17 -35 -38 -35c-7 0 -14 2 -19 5
c-45 -9 -79 -45 -79 -80c0 -37 31 -53 60 -53c8 0 15 1 22 3c5 1 9 2 12 2c14 0 23 -7 27 -21c1 -2 1 -5 1 -9c0 -12 -7 -22 -22 -29c-16 -7 -35 -11 -58 -11c-67 0 -122 28 -122 92s63 109 143 122c-2 4 -3 9 -3 14v30c-35 -43 -83 -65 -144 -65c-83 0 -138 54 -138 139z
M322 123v57c-28 20 -62 30 -101 30c-53 0 -96 -26 -96 -74c0 -44 30 -71 81 -71c45 0 83 19 116 58z" />
    <glyph glyph-name="Cacute" unicode="&#x106;" horiz-adv-x="646" 
d="M566 592c-8 0 -16 2 -24 6c-39 21 -87 32 -142 32c-76 0 -138 -26 -187 -78s-73 -119 -73 -202s25 -151 76 -202c50 -52 116 -78 197 -78c54 0 102 13 145 39c7 5 16 7 25 7c13 0 23 -5 30 -14c5 -5 7 -12 7 -20c0 -13 -6 -25 -19 -34c-55 -39 -120 -58 -196 -58
c-105 0 -191 33 -256 99c-66 65 -99 152 -99 261c0 103 32 189 95 258c63 68 147 102 254 102c71 0 133 -16 184 -47c14 -9 21 -21 21 -34c0 -7 -2 -13 -6 -19c-7 -12 -18 -18 -32 -18zM337 796l147 78c4 2 8 3 12 3c11 0 18 -5 23 -15l8 -18c1 -3 2 -6 2 -11
c0 -12 -5 -20 -16 -24l-152 -64c-4 -1 -7 -2 -10 -2c-12 0 -21 5 -26 15c-2 4 -3 8 -3 13c0 11 5 20 15 25z" />
    <glyph glyph-name="cacute" unicode="&#x107;" horiz-adv-x="477" 
d="M380 359c-33 17 -66 26 -99 26c-42 0 -78 -15 -108 -45c-31 -31 -46 -69 -46 -115c0 -48 16 -87 47 -116s69 -44 115 -44c37 0 69 10 96 31c11 9 21 13 31 13c9 0 16 -3 23 -10s11 -15 11 -25c0 -11 -4 -20 -11 -26c-43 -39 -95 -58 -156 -58c-72 0 -130 22 -174 65
c-45 43 -67 99 -67 170c0 66 22 122 65 167s98 68 163 68c56 0 105 -12 146 -35c14 -7 21 -19 21 -34c0 -7 -2 -13 -5 -18c-7 -12 -18 -18 -33 -18c-7 0 -14 1 -19 4zM231 590l72 107c5 8 13 12 24 12c6 0 12 -2 17 -6l14 -10c7 -6 11 -14 11 -23c0 -8 -2 -14 -7 -19
l-80 -97c-7 -8 -15 -12 -26 -12c-6 0 -12 2 -17 5c-9 6 -13 15 -13 26c0 6 2 12 5 17z" />
    <glyph glyph-name="Ccircumflex" unicode="&#x108;" horiz-adv-x="646" 
d="M566 592c-8 0 -16 2 -24 6c-39 21 -87 32 -142 32c-76 0 -138 -26 -187 -78s-73 -119 -73 -202s25 -151 76 -202c50 -52 116 -78 197 -78c54 0 102 13 145 39c7 5 16 7 25 7c13 0 23 -5 30 -14c5 -5 7 -12 7 -20c0 -13 -6 -25 -19 -34c-55 -39 -120 -58 -196 -58
c-105 0 -191 33 -256 99c-66 65 -99 152 -99 261c0 103 32 189 95 258c63 68 147 102 254 102c71 0 133 -16 184 -47c14 -9 21 -21 21 -34c0 -7 -2 -13 -6 -19c-7 -12 -18 -18 -32 -18zM510 744l-121 67l-115 -65c-5 -3 -11 -5 -17 -5c-11 0 -19 4 -25 13c-3 4 -5 9 -5 16
c0 11 5 20 15 25l122 72c7 5 16 7 25 7c10 0 18 -2 25 -7l126 -73c9 -5 14 -13 14 -24c0 -7 -1 -12 -4 -15c-5 -10 -14 -15 -26 -15c-5 0 -9 1 -14 4z" />
    <glyph glyph-name="ccircumflex" unicode="&#x109;" horiz-adv-x="477" 
d="M380 359c-33 17 -66 26 -99 26c-42 0 -78 -15 -108 -45c-31 -31 -46 -69 -46 -115c0 -48 16 -87 47 -116s69 -44 115 -44c37 0 69 10 96 31c11 9 21 13 31 13c9 0 16 -3 23 -10s11 -15 11 -25c0 -11 -4 -20 -11 -26c-43 -39 -95 -58 -156 -58c-72 0 -130 22 -174 65
c-45 43 -67 99 -67 170c0 66 22 122 65 167s98 68 163 68c56 0 105 -12 146 -35c14 -7 21 -19 21 -34c0 -7 -2 -13 -5 -18c-7 -12 -18 -18 -33 -18c-7 0 -14 1 -19 4zM357 546l-81 71l-81 -70c-7 -5 -14 -8 -21 -8c-8 0 -15 3 -22 10c-5 5 -8 12 -8 20c0 9 3 17 9 23l102 94
c12 12 34 12 46 0l99 -94c7 -7 10 -14 10 -23c0 -8 -3 -15 -9 -21c-7 -7 -14 -10 -23 -10c-7 0 -14 3 -21 8z" />
    <glyph glyph-name="Cdotaccent" unicode="&#x10a;" horiz-adv-x="646" 
d="M566 592c-8 0 -16 2 -24 6c-39 21 -87 32 -142 32c-76 0 -138 -26 -187 -78s-73 -119 -73 -202s25 -151 76 -202c50 -52 116 -78 197 -78c54 0 102 13 145 39c7 5 16 7 25 7c13 0 23 -5 30 -14c5 -5 7 -12 7 -20c0 -13 -6 -25 -19 -34c-55 -39 -120 -58 -196 -58
c-105 0 -191 33 -256 99c-66 65 -99 152 -99 261c0 103 32 189 95 258c63 68 147 102 254 102c71 0 133 -16 184 -47c14 -9 21 -21 21 -34c0 -7 -2 -13 -6 -19c-7 -12 -18 -18 -32 -18zM325 817c0 31 25 51 57 51c29 0 54 -20 54 -51c0 -33 -25 -54 -54 -54
c-32 0 -57 21 -57 54z" />
    <glyph glyph-name="cdotaccent" unicode="&#x10b;" horiz-adv-x="477" 
d="M380 359c-33 17 -66 26 -99 26c-42 0 -78 -15 -108 -45c-31 -31 -46 -69 -46 -115c0 -48 16 -87 47 -116s69 -44 115 -44c37 0 69 10 96 31c11 9 21 13 31 13c9 0 16 -3 23 -10s11 -15 11 -25c0 -11 -4 -20 -11 -26c-43 -39 -95 -58 -156 -58c-72 0 -130 22 -174 65
c-45 43 -67 99 -67 170c0 66 22 122 65 167s98 68 163 68c56 0 105 -12 146 -35c14 -7 21 -19 21 -34c0 -7 -2 -13 -5 -18c-7 -12 -18 -18 -33 -18c-7 0 -14 1 -19 4zM226 619c0 28 23 48 52 48c27 0 49 -20 49 -48c0 -32 -22 -52 -49 -52c-29 0 -52 20 -52 52z" />
    <glyph glyph-name="Ccaron" unicode="&#x10c;" horiz-adv-x="646" 
d="M566 592c-8 0 -16 2 -24 6c-39 21 -87 32 -142 32c-76 0 -138 -26 -187 -78s-73 -119 -73 -202s25 -151 76 -202c50 -52 116 -78 197 -78c54 0 102 13 145 39c7 5 16 7 25 7c13 0 23 -5 30 -14c5 -5 7 -12 7 -20c0 -13 -6 -25 -19 -34c-55 -39 -120 -58 -196 -58
c-105 0 -191 33 -256 99c-66 65 -99 152 -99 261c0 103 32 189 95 258c63 68 147 102 254 102c71 0 133 -16 184 -47c14 -9 21 -21 21 -34c0 -7 -2 -13 -6 -19c-7 -12 -18 -18 -32 -18zM269 876l123 -70l118 69c5 3 10 4 16 4c11 0 19 -4 24 -13c3 -5 4 -10 4 -15
c0 -11 -5 -20 -14 -25l-123 -73c-15 -9 -37 -9 -52 0l-125 73c-9 5 -14 14 -14 25c0 5 1 10 3 14c5 10 14 15 26 15c5 0 9 -1 14 -4z" />
    <glyph glyph-name="ccaron" unicode="&#x10d;" horiz-adv-x="477" 
d="M380 359c-33 17 -66 26 -99 26c-42 0 -78 -15 -108 -45c-31 -31 -46 -69 -46 -115c0 -48 16 -87 47 -116s69 -44 115 -44c37 0 69 10 96 31c11 9 21 13 31 13c9 0 16 -3 23 -10s11 -15 11 -25c0 -11 -4 -20 -11 -26c-43 -39 -95 -58 -156 -58c-72 0 -130 22 -174 65
c-45 43 -67 99 -67 170c0 66 22 122 65 167s98 68 163 68c56 0 105 -12 146 -35c14 -7 21 -19 21 -34c0 -7 -2 -13 -5 -18c-7 -12 -18 -18 -33 -18c-7 0 -14 1 -19 4zM194 689l82 -82l82 81c6 6 14 9 23 9c8 0 15 -3 20 -8c6 -5 9 -12 9 -21c0 -8 -3 -15 -9 -21l-104 -97
c-12 -12 -34 -12 -46 0l-102 97c-6 5 -9 12 -9 21s3 16 10 22c7 5 14 8 21 8c9 0 17 -3 23 -9z" />
    <glyph glyph-name="Dcaron" unicode="&#x10e;" horiz-adv-x="739" 
d="M105 42v616c0 23 18 42 42 42c98 2 148 3 149 3c280 0 393 -160 393 -344c0 -105 -35 -191 -104 -259c-70 -68 -169 -102 -297 -102c-22 0 -69 1 -141 2c-23 0 -42 19 -42 42zM190 620v-540c61 -1 95 -2 101 -2c97 0 173 26 227 78c54 51 81 119 81 203
c0 79 -26 142 -79 191s-128 73 -226 73c-34 0 -77 -3 -104 -3zM214 876l123 -70l118 69c5 3 10 4 16 4c11 0 19 -4 24 -13c3 -5 4 -10 4 -15c0 -11 -5 -20 -14 -25l-123 -73c-15 -9 -37 -9 -52 0l-125 73c-9 5 -14 14 -14 25c0 5 1 10 3 14c5 10 14 15 26 15c5 0 9 -1 14 -4
z" />
    <glyph glyph-name="dcaron" unicode="&#x10f;" horiz-adv-x="554" 
d="M482 662v-631c4 -49 -84 -49 -80 0v26c-40 -43 -88 -65 -143 -65c-66 0 -119 21 -158 63s-59 98 -59 167c0 70 23 127 70 172c46 44 105 66 176 66c46 0 84 -11 114 -32v234c-4 49 84 49 80 0zM402 127v223c-37 23 -74 35 -111 35c-46 0 -85 -15 -116 -44
c-32 -30 -48 -69 -48 -117c0 -97 60 -157 147 -157c49 0 92 20 128 60zM569 514c-6 0 -12 2 -17 6c-5 5 -8 11 -8 18c0 9 3 17 10 24c19 23 28 53 28 91c0 6 -1 14 -2 23c0 1 -1 5 -1 6c0 12 7 18 21 18h28c17 0 27 -12 28 -25c1 -3 1 -7 1 -13c0 -59 -21 -105 -64 -139
c-8 -6 -16 -9 -24 -9z" />
    <glyph glyph-name="Dcroat" unicode="&#x110;" horiz-adv-x="754" 
d="M704 359c0 -105 -35 -191 -104 -259c-70 -68 -169 -102 -297 -102c-22 0 -69 1 -141 2c-23 0 -42 19 -42 42v274h-73c-20 0 -37 17 -37 38c0 20 17 37 37 37h73v267c0 23 18 42 42 42c98 2 148 3 149 3c280 0 393 -160 393 -344zM357 316h-152v-236c61 -1 95 -2 101 -2
c97 0 173 26 227 78c54 51 81 119 81 203c0 79 -26 142 -79 191s-128 73 -226 73c-34 0 -77 -3 -104 -3v-229h152c19 0 36 -17 36 -37c0 -21 -17 -38 -36 -38z" />
    <glyph glyph-name="dslash" unicode="&#x111;" horiz-adv-x="554" 
d="M402 127v223c-37 23 -74 35 -111 35c-46 0 -85 -15 -116 -44c-32 -30 -48 -69 -48 -117c0 -97 60 -157 147 -157c49 0 92 20 128 60zM539 534h-57v-503c4 -49 -84 -49 -80 0v26c-40 -43 -88 -65 -143 -65c-66 0 -119 21 -158 63s-59 98 -59 167c0 70 23 127 70 172
c46 44 105 66 176 66c46 0 84 -11 114 -32v106h-122c-50 0 -42 65 0 65h122v63c-4 49 84 49 80 0v-63h57c23 0 35 -16 35 -32c0 -19 -14 -33 -35 -33z" />
    <glyph glyph-name="Emacron" unicode="&#x112;" horiz-adv-x="575" 
d="M190 314v-234h281c21 0 39 -19 39 -40s-18 -40 -39 -40h-324c-23 0 -42 19 -42 42v616c0 23 19 42 42 42h314c21 0 39 -19 39 -40s-18 -40 -39 -40h-271v-226h241c21 0 39 -19 39 -40s-18 -40 -39 -40h-241zM182 835h240c42 0 42 -65 0 -65h-240c-19 0 -32 14 -32 33
c0 17 13 32 32 32z" />
    <glyph glyph-name="emacron" unicode="&#x113;" horiz-adv-x="525" 
d="M127 265h273c-4 75 -53 120 -130 120c-80 0 -134 -49 -143 -120zM483 254c0 -10 0 -17 -1 -22c-1 -16 -18 -32 -34 -32h-316c7 -84 68 -135 157 -135c42 0 79 9 110 27c7 4 15 6 22 6c10 0 19 -4 27 -13c4 -5 6 -11 6 -18c0 -13 -4 -22 -12 -27
c-47 -33 -100 -50 -159 -50c-73 0 -131 21 -175 64s-66 100 -66 171c0 68 21 124 62 169c41 44 98 66 170 66c59 0 109 -19 149 -57c40 -39 60 -88 60 -149zM164 645h200c42 0 42 -65 0 -65h-200c-19 0 -32 14 -32 33c0 17 13 32 32 32z" />
    <glyph glyph-name="Edotaccent" unicode="&#x116;" horiz-adv-x="575" 
d="M190 314v-234h281c21 0 39 -19 39 -40s-18 -40 -39 -40h-324c-23 0 -42 19 -42 42v616c0 23 19 42 42 42h314c21 0 39 -19 39 -40s-18 -40 -39 -40h-271v-226h241c21 0 39 -19 39 -40s-18 -40 -39 -40h-241zM250 817c0 31 25 51 57 51c29 0 54 -20 54 -51
c0 -33 -25 -54 -54 -54c-32 0 -57 21 -57 54z" />
    <glyph glyph-name="edotaccent" unicode="&#x117;" horiz-adv-x="525" 
d="M127 265h273c-4 75 -53 120 -130 120c-80 0 -134 -49 -143 -120zM483 254c0 -10 0 -17 -1 -22c-1 -16 -18 -32 -34 -32h-316c7 -84 68 -135 157 -135c42 0 79 9 110 27c7 4 15 6 22 6c10 0 19 -4 27 -13c4 -5 6 -11 6 -18c0 -13 -4 -22 -12 -27
c-47 -33 -100 -50 -159 -50c-73 0 -131 21 -175 64s-66 100 -66 171c0 68 21 124 62 169c41 44 98 66 170 66c59 0 109 -19 149 -57c40 -39 60 -88 60 -149zM215 619c0 28 23 48 52 48c27 0 49 -20 49 -48c0 -32 -22 -52 -49 -52c-29 0 -52 20 -52 52z" />
    <glyph glyph-name="Eogonek" unicode="&#x118;" horiz-adv-x="575" 
d="M190 314v-234h281c21 0 39 -19 39 -40s-18 -40 -39 -40h-20c-27 -1 -50 -10 -70 -27s-30 -35 -30 -55c0 -37 31 -53 60 -53c7 0 15 1 22 3c5 1 9 2 12 2c14 0 23 -7 27 -21c1 -2 1 -5 1 -9c0 -12 -7 -22 -22 -29c-16 -7 -35 -11 -58 -11c-67 0 -122 28 -122 92
c0 49 30 85 91 108h-215c-23 0 -42 19 -42 42v616c0 23 19 42 42 42h314c21 0 39 -19 39 -40s-18 -40 -39 -40h-271v-226h241c21 0 39 -19 39 -40s-18 -40 -39 -40h-241z" />
    <glyph glyph-name="eogonek" unicode="&#x119;" horiz-adv-x="525" 
d="M483 254c0 -10 0 -17 -1 -22c-1 -16 -18 -32 -34 -32h-316c7 -84 68 -135 157 -135c42 0 79 9 110 27c7 4 15 6 22 6c10 0 19 -4 27 -13c4 -5 6 -11 6 -18c0 -13 -4 -22 -12 -27c-44 -31 -94 -48 -149 -50c-35 -15 -57 -43 -57 -72c0 -37 31 -53 60 -53c8 0 15 1 22 3
c5 1 9 2 12 2c14 0 23 -7 27 -21c1 -2 1 -5 1 -9c0 -12 -7 -22 -22 -29c-16 -7 -35 -11 -58 -11c-67 0 -122 28 -122 92c0 44 26 78 77 102c-117 19 -191 107 -191 231c0 68 21 124 62 169c41 44 98 66 170 66c59 0 109 -19 149 -57c40 -39 60 -88 60 -149zM127 265h273
c-4 75 -53 120 -130 120c-80 0 -134 -49 -143 -120z" />
    <glyph glyph-name="Ecaron" unicode="&#x11a;" horiz-adv-x="575" 
d="M190 314v-234h281c21 0 39 -19 39 -40s-18 -40 -39 -40h-324c-23 0 -42 19 -42 42v616c0 23 19 42 42 42h314c21 0 39 -19 39 -40s-18 -40 -39 -40h-271v-226h241c21 0 39 -19 39 -40s-18 -40 -39 -40h-241zM189 876l123 -70l118 69c5 3 10 4 16 4c11 0 19 -4 24 -13
c3 -5 4 -10 4 -15c0 -11 -5 -20 -14 -25l-123 -73c-15 -9 -37 -9 -52 0l-125 73c-9 5 -14 14 -14 25c0 5 1 10 3 14c5 10 14 15 26 15c5 0 9 -1 14 -4z" />
    <glyph glyph-name="ecaron" unicode="&#x11b;" horiz-adv-x="525" 
d="M127 265h273c-4 75 -53 120 -130 120c-80 0 -134 -49 -143 -120zM483 254c0 -10 0 -17 -1 -22c-1 -16 -18 -32 -34 -32h-316c7 -84 68 -135 157 -135c42 0 79 9 110 27c7 4 15 6 22 6c10 0 19 -4 27 -13c4 -5 6 -11 6 -18c0 -13 -4 -22 -12 -27
c-47 -33 -100 -50 -159 -50c-73 0 -131 21 -175 64s-66 100 -66 171c0 68 21 124 62 169c41 44 98 66 170 66c59 0 109 -19 149 -57c40 -39 60 -88 60 -149zM192 689l82 -82l82 81c6 6 14 9 23 9c8 0 15 -3 20 -8c6 -5 9 -12 9 -21c0 -8 -3 -15 -9 -21l-104 -97
c-12 -12 -34 -12 -46 0l-102 97c-6 5 -9 12 -9 21s3 16 10 22c7 5 14 8 21 8c9 0 17 -3 23 -9z" />
    <glyph glyph-name="Gcircumflex" unicode="&#x11c;" horiz-adv-x="727" 
d="M404 630c-79 0 -142 -26 -191 -77s-73 -119 -73 -203c0 -85 25 -152 74 -203s113 -77 193 -77c67 0 143 26 180 62v144h-150c-21 0 -39 19 -39 40s18 40 39 40h188c23 0 42 -19 42 -42v-200c0 -19 -8 -35 -24 -47c-63 -48 -158 -77 -238 -77c-109 0 -195 33 -259 98
s-96 153 -96 262c0 103 32 188 95 257s146 103 249 103c74 0 138 -16 192 -48c14 -8 21 -19 21 -33c0 -7 -2 -14 -6 -21c-7 -12 -18 -18 -33 -18c-9 0 -17 2 -26 7c-42 22 -88 33 -138 33zM510 744l-121 67l-115 -65c-5 -3 -11 -5 -17 -5c-11 0 -19 4 -25 13
c-3 4 -5 9 -5 16c0 11 5 20 15 25l122 72c7 5 16 7 25 7c10 0 18 -2 25 -7l126 -73c9 -5 14 -13 14 -24c0 -7 -1 -12 -4 -15c-5 -10 -14 -15 -26 -15c-5 0 -9 1 -14 4z" />
    <glyph glyph-name="gcircumflex" unicode="&#x11d;" horiz-adv-x="502" 
d="M212 79c5 0 20 1 27 1c137 0 229 -50 229 -145c0 -93 -92 -143 -229 -143s-229 48 -229 143c0 71 55 118 144 137c-15 19 -15 55 1 75c-64 25 -101 81 -101 148c0 47 17 86 51 118c33 31 78 47 133 47c43 0 81 -11 114 -33l101 24c2 1 5 1 8 1c15 0 27 -11 30 -24
c1 -1 1 -4 1 -7c0 -17 -8 -27 -25 -32l-66 -16c14 -23 21 -49 21 -78c0 -46 -17 -84 -51 -115s-78 -47 -133 -47c-13 0 -23 0 -30 1c-3 -7 -5 -15 -5 -25c0 -12 3 -22 9 -30zM126 -7c-27 -14 -41 -33 -41 -58s14 -44 42 -58c27 -13 65 -20 112 -20c95 0 154 27 154 78
c0 49 -58 80 -154 80c-48 0 -86 -7 -113 -22zM129 295c0 -56 44 -97 109 -97c64 0 109 40 109 97c0 29 -10 53 -30 72s-46 28 -79 28s-59 -9 -79 -28s-30 -43 -30 -72zM323 546l-81 71l-81 -70c-7 -5 -14 -8 -21 -8c-8 0 -15 3 -22 10c-5 5 -8 12 -8 20c0 9 3 17 9 23
l102 94c12 12 34 12 46 0l99 -94c7 -7 10 -14 10 -23c0 -8 -3 -15 -9 -21c-7 -7 -14 -10 -23 -10c-7 0 -14 3 -21 8z" />
    <glyph glyph-name="Gbreve" unicode="&#x11e;" horiz-adv-x="727" 
d="M404 630c-79 0 -142 -26 -191 -77s-73 -119 -73 -203c0 -85 25 -152 74 -203s113 -77 193 -77c67 0 143 26 180 62v144h-150c-21 0 -39 19 -39 40s18 40 39 40h188c23 0 42 -19 42 -42v-200c0 -19 -8 -35 -24 -47c-63 -48 -158 -77 -238 -77c-109 0 -195 33 -259 98
s-96 153 -96 262c0 103 32 188 95 257s146 103 249 103c74 0 138 -16 192 -48c14 -8 21 -19 21 -33c0 -7 -2 -14 -6 -21c-7 -12 -18 -18 -33 -18c-9 0 -17 2 -26 7c-42 22 -88 33 -138 33zM527 862c11 11 29 10 40 1c6 -5 9 -12 9 -21c0 -5 -2 -10 -5 -15
c-47 -55 -102 -82 -166 -82c-69 0 -126 27 -170 80c-3 5 -5 10 -5 15c0 9 4 17 11 23c11 9 27 10 40 -1c34 -31 75 -47 124 -47c47 0 88 16 122 47z" />
    <glyph glyph-name="gbreve" unicode="&#x11f;" horiz-adv-x="502" 
d="M212 79c5 0 20 1 27 1c137 0 229 -50 229 -145c0 -93 -92 -143 -229 -143s-229 48 -229 143c0 71 55 118 144 137c-15 19 -15 55 1 75c-64 25 -101 81 -101 148c0 47 17 86 51 118c33 31 78 47 133 47c43 0 81 -11 114 -33l101 24c2 1 5 1 8 1c15 0 27 -11 30 -24
c1 -1 1 -4 1 -7c0 -17 -8 -27 -25 -32l-66 -16c14 -23 21 -49 21 -78c0 -46 -17 -84 -51 -115s-78 -47 -133 -47c-13 0 -23 0 -30 1c-3 -7 -5 -15 -5 -25c0 -12 3 -22 9 -30zM126 -7c-27 -14 -41 -33 -41 -58s14 -44 42 -58c27 -13 65 -20 112 -20c95 0 154 27 154 78
c0 49 -58 80 -154 80c-48 0 -86 -7 -113 -22zM129 295c0 -56 44 -97 109 -97c64 0 109 40 109 97c0 29 -10 53 -30 72s-46 28 -79 28s-59 -9 -79 -28s-30 -43 -30 -72zM361 670c6 0 12 -2 18 -7c5 -5 8 -12 8 -19c0 -5 -2 -11 -7 -17c-41 -48 -87 -72 -140 -72
s-99 24 -138 71c-4 5 -6 11 -6 18c0 8 3 15 9 20c7 5 13 8 19 8c8 0 16 -4 23 -11c27 -27 59 -41 96 -41c35 0 67 13 96 40c8 7 15 10 22 10z" />
    <glyph glyph-name="Gdotaccent" unicode="&#x120;" horiz-adv-x="727" 
d="M404 630c-79 0 -142 -26 -191 -77s-73 -119 -73 -203c0 -85 25 -152 74 -203s113 -77 193 -77c67 0 143 26 180 62v144h-150c-21 0 -39 19 -39 40s18 40 39 40h188c23 0 42 -19 42 -42v-200c0 -19 -8 -35 -24 -47c-63 -48 -158 -77 -238 -77c-109 0 -195 33 -259 98
s-96 153 -96 262c0 103 32 188 95 257s146 103 249 103c74 0 138 -16 192 -48c14 -8 21 -19 21 -33c0 -7 -2 -14 -6 -21c-7 -12 -18 -18 -33 -18c-9 0 -17 2 -26 7c-42 22 -88 33 -138 33zM325 817c0 31 25 51 57 51c29 0 54 -20 54 -51c0 -33 -25 -54 -54 -54
c-32 0 -57 21 -57 54z" />
    <glyph glyph-name="gdotaccent" unicode="&#x121;" horiz-adv-x="502" 
d="M212 79c5 0 20 1 27 1c137 0 229 -50 229 -145c0 -93 -92 -143 -229 -143s-229 48 -229 143c0 71 55 118 144 137c-15 19 -15 55 1 75c-64 25 -101 81 -101 148c0 47 17 86 51 118c33 31 78 47 133 47c43 0 81 -11 114 -33l101 24c2 1 5 1 8 1c15 0 27 -11 30 -24
c1 -1 1 -4 1 -7c0 -17 -8 -27 -25 -32l-66 -16c14 -23 21 -49 21 -78c0 -46 -17 -84 -51 -115s-78 -47 -133 -47c-13 0 -23 0 -30 1c-3 -7 -5 -15 -5 -25c0 -12 3 -22 9 -30zM126 -7c-27 -14 -41 -33 -41 -58s14 -44 42 -58c27 -13 65 -20 112 -20c95 0 154 27 154 78
c0 49 -58 80 -154 80c-48 0 -86 -7 -113 -22zM129 295c0 -56 44 -97 109 -97c64 0 109 40 109 97c0 29 -10 53 -30 72s-46 28 -79 28s-59 -9 -79 -28s-30 -43 -30 -72zM189 619c0 28 23 48 52 48c27 0 49 -20 49 -48c0 -32 -22 -52 -49 -52c-29 0 -52 20 -52 52z" />
    <glyph glyph-name="Gcommaaccent" unicode="&#x122;" horiz-adv-x="727" 
d="M404 630c-79 0 -142 -26 -191 -77s-73 -119 -73 -203c0 -85 25 -152 74 -203s113 -77 193 -77c67 0 143 26 180 62v144h-150c-21 0 -39 19 -39 40s18 40 39 40h188c23 0 42 -19 42 -42v-200c0 -19 -8 -35 -24 -47c-63 -48 -158 -77 -238 -77c-109 0 -195 33 -259 98
s-96 153 -96 262c0 103 32 188 95 257s146 103 249 103c74 0 138 -16 192 -48c14 -8 21 -19 21 -33c0 -7 -2 -14 -6 -21c-7 -12 -18 -18 -33 -18c-9 0 -17 2 -26 7c-42 22 -88 33 -138 33zM359 -200c-10 0 -17 3 -20 10c-2 4 -3 8 -3 11c0 9 4 15 12 20c18 12 27 30 27 53
c0 8 -2 15 -5 22c-2 4 -3 8 -3 11c0 12 7 19 20 22l27 6c2 1 5 1 8 1c23 0 33 -26 33 -51c0 -52 -35 -87 -83 -103c-5 -1 -10 -2 -13 -2z" />
    <glyph glyph-name="gcommaaccent" unicode="&#x123;" horiz-adv-x="502" 
d="M212 79c5 0 20 1 27 1c137 0 229 -50 229 -145c0 -93 -92 -143 -229 -143s-229 48 -229 143c0 71 55 118 144 137c-15 19 -15 55 1 75c-64 25 -101 81 -101 148c0 47 17 86 51 118c33 31 78 47 133 47c43 0 81 -11 114 -33l101 24c2 1 5 1 8 1c15 0 27 -11 30 -24
c1 -1 1 -4 1 -7c0 -17 -8 -27 -25 -32l-66 -16c14 -23 21 -49 21 -78c0 -46 -17 -84 -51 -115s-78 -47 -133 -47c-13 0 -23 0 -30 1c-3 -7 -5 -15 -5 -25c0 -12 3 -22 9 -30zM126 -7c-27 -14 -41 -33 -41 -58s14 -44 42 -58c27 -13 65 -20 112 -20c95 0 154 27 154 78
c0 49 -58 80 -154 80c-48 0 -86 -7 -113 -22zM129 295c0 -56 44 -97 109 -97c64 0 109 40 109 97c0 29 -10 53 -30 72s-46 28 -79 28s-59 -9 -79 -28s-30 -43 -30 -72zM277 697c10 0 17 -3 20 -10c2 -4 3 -8 3 -11c0 -8 -4 -15 -12 -20c-18 -12 -27 -30 -27 -53
c0 -8 2 -15 5 -22c2 -4 3 -8 3 -11c0 -12 -7 -19 -20 -22l-27 -6c-2 -1 -5 -1 -8 -1c-23 0 -33 26 -33 51c0 52 35 87 83 103c5 1 10 2 13 2z" />
    <glyph glyph-name="Hcircumflex" unicode="&#x124;" horiz-adv-x="765" 
d="M575 397v267c0 23 19 41 43 41c23 0 42 -18 42 -41v-629c0 -23 -19 -42 -42 -42c-24 0 -43 19 -43 42v282h-385v-282c0 -23 -19 -42 -42 -42c-24 0 -43 19 -43 42v629c0 23 19 41 43 41c23 0 42 -18 42 -41v-267h385zM503 744l-121 67l-115 -65c-5 -3 -11 -5 -17 -5
c-11 0 -19 4 -25 13c-3 4 -5 9 -5 16c0 11 5 20 15 25l122 72c7 5 16 7 25 7c10 0 18 -2 25 -7l126 -73c9 -5 14 -13 14 -24c0 -7 -1 -12 -4 -15c-5 -10 -14 -15 -26 -15c-5 0 -9 1 -14 4z" />
    <glyph glyph-name="hcircumflex" unicode="&#x125;" horiz-adv-x="558" 
d="M152 326v-295c4 -49 -84 -49 -80 0v631c-4 49 84 49 80 0v-264c35 35 91 60 147 60c125 0 187 -67 187 -200v-227c4 -49 -84 -49 -80 0v216c0 91 -42 136 -126 136c-48 0 -99 -24 -128 -57zM277 744l-121 67l-115 -65c-5 -3 -11 -5 -17 -5c-11 0 -19 4 -25 13
c-3 4 -5 9 -5 16c0 11 5 20 15 25l122 72c7 5 16 7 25 7c10 0 18 -2 25 -7l126 -73c9 -5 14 -13 14 -24c0 -7 -1 -12 -4 -15c-5 -10 -14 -15 -26 -15c-5 0 -9 1 -14 4z" />
    <glyph glyph-name="Hbar" unicode="&#x126;" horiz-adv-x="775" 
d="M580 317h-385v-282c0 -23 -19 -42 -42 -42c-24 0 -43 19 -43 42v479h-48c-20 0 -37 17 -37 38c0 20 17 37 37 37h48v75c0 23 19 41 43 41c23 0 42 -18 42 -41v-75h385v75c0 23 19 41 43 41c23 0 42 -18 42 -41v-75h49c19 0 36 -17 36 -37c0 -21 -17 -38 -36 -38h-49v-479
c0 -23 -19 -42 -42 -42c-24 0 -43 19 -43 42v282zM195 514v-117h385v117h-385z" />
    <glyph glyph-name="hbar" unicode="&#x127;" horiz-adv-x="574" 
d="M177 326v-295c4 -49 -84 -49 -80 0v489h-79c-21 0 -38 17 -38 38c0 20 17 37 38 37h79v67c-4 49 84 49 80 0v-67h124c21 0 38 -17 38 -37c0 -21 -17 -38 -38 -38h-124v-122c35 35 91 60 147 60c125 0 187 -67 187 -200v-227c4 -49 -84 -49 -80 0v216
c0 91 -42 136 -126 136c-48 0 -99 -24 -128 -57z" />
    <glyph glyph-name="Imacron" unicode="&#x12a;" horiz-adv-x="335" 
d="M125 35v629c0 23 19 41 43 41c23 0 42 -18 42 -41v-629c0 -23 -19 -42 -42 -42c-24 0 -43 19 -43 42zM50 835h240c42 0 42 -65 0 -65h-240c-19 0 -32 14 -32 33c0 17 13 32 32 32z" />
    <glyph glyph-name="imacron" unicode="&#x12b;" horiz-adv-x="268" 
d="M174 417v-386c4 -49 -84 -49 -80 0v386c-4 49 84 49 80 0zM34 645h200c42 0 42 -65 0 -65h-200c-19 0 -32 14 -32 33c0 17 13 32 32 32z" />
    <glyph glyph-name="Iogonek" unicode="&#x12e;" horiz-adv-x="335" 
d="M125 35v629c0 23 19 41 43 41c23 0 42 -18 42 -41v-629c0 -23 -19 -42 -42 -42c-7 0 -13 2 -20 5c-45 -11 -80 -45 -80 -80c0 -37 31 -53 60 -53c8 0 15 1 22 3c5 1 9 2 12 2c14 0 23 -7 27 -21c1 -2 1 -5 1 -9c0 -12 -7 -22 -22 -29c-16 -7 -35 -11 -58 -11
c-67 0 -122 28 -122 92s63 109 143 122c-4 6 -6 13 -6 21z" />
    <glyph glyph-name="iogonek" unicode="&#x12f;" horiz-adv-x="268" 
d="M174 417v-386c0 -21 -17 -38 -40 -38c-7 0 -13 2 -20 5c-44 -9 -78 -45 -78 -80c0 -37 31 -53 60 -53c8 0 15 1 22 3c5 1 9 2 12 2c14 0 23 -7 27 -21c1 -2 1 -5 1 -9c0 -12 -7 -22 -22 -29c-16 -7 -35 -11 -58 -11c-67 0 -122 28 -122 92s62 108 142 121
c-3 5 -4 11 -4 18v386c-4 49 84 49 80 0zM84 619c0 28 23 48 52 48c27 0 49 -20 49 -48c0 -32 -22 -52 -49 -52c-29 0 -52 20 -52 52z" />
    <glyph glyph-name="Idot" unicode="&#x130;" horiz-adv-x="335" 
d="M125 35v629c0 23 19 41 43 41c23 0 42 -18 42 -41v-629c0 -23 -19 -42 -42 -42c-24 0 -43 19 -43 42zM112 817c0 31 25 51 57 51c29 0 54 -20 54 -51c0 -33 -25 -54 -54 -54c-32 0 -57 21 -57 54z" />
    <glyph glyph-name="dotlessi" unicode="&#x131;" horiz-adv-x="268" 
d="M174 417v-386c4 -49 -84 -49 -80 0v386c-4 49 84 49 80 0z" />
    <glyph glyph-name="Jcircumflex" unicode="&#x134;" horiz-adv-x="369" 
d="M64 77c15 -5 27 -7 36 -7c53 0 79 34 79 103v491c0 23 19 41 43 41c23 0 42 -18 42 -41v-505c0 -113 -51 -169 -153 -169c-25 0 -51 6 -78 17c-14 7 -21 18 -21 34c0 6 1 11 3 16c7 15 19 23 34 23c5 0 10 -1 15 -3zM336 744l-121 67l-115 -65c-5 -3 -11 -5 -17 -5
c-11 0 -19 4 -25 13c-3 4 -5 9 -5 16c0 11 5 20 15 25l122 72c7 5 16 7 25 7c10 0 18 -2 25 -7l126 -73c9 -5 14 -13 14 -24c0 -7 -1 -12 -4 -15c-5 -10 -14 -15 -26 -15c-5 0 -9 1 -14 4z" />
    <glyph glyph-name="jcircumflex" unicode="&#x135;" horiz-adv-x="283" 
d="M115 -27v444c-4 49 84 49 80 0v-450c0 -117 -47 -175 -141 -175c-27 0 -51 4 -70 11c-17 7 -26 18 -26 35c0 21 14 34 37 34c7 0 13 -1 17 -2c8 -2 16 -3 24 -3c53 0 79 35 79 106zM236 546l-81 71l-81 -70c-7 -5 -14 -8 -21 -8c-8 0 -15 3 -22 10c-5 5 -8 12 -8 20
c0 9 3 17 9 23l102 94c12 12 34 12 46 0l99 -94c7 -7 10 -14 10 -23c0 -8 -3 -15 -9 -21c-7 -7 -14 -10 -23 -10c-7 0 -14 3 -21 8z" />
    <glyph glyph-name="Kcommaaccent" unicode="&#x136;" horiz-adv-x="635" 
d="M510 16l-276 318c-7 9 -11 19 -11 30c0 12 4 23 12 32l262 287c13 15 26 22 39 22c21 0 37 -15 37 -34c0 -12 -5 -23 -15 -33l-253 -267l271 -306c10 -11 15 -22 15 -35c0 -21 -16 -37 -39 -37c-15 0 -29 8 -42 23zM105 35v629c0 23 19 41 43 41c23 0 42 -18 42 -41v-629
c0 -23 -19 -42 -42 -42c-24 0 -43 19 -43 42zM279 -200c-10 0 -17 3 -20 10c-2 4 -3 8 -3 11c0 9 4 15 12 20c18 12 27 30 27 53c0 8 -2 15 -5 22c-2 4 -3 8 -3 11c0 12 7 19 20 22l27 6c2 1 5 1 8 1c23 0 33 -26 33 -51c0 -52 -35 -87 -83 -103c-5 -1 -10 -2 -13 -2z" />
    <glyph glyph-name="kcommaaccent" unicode="&#x137;" horiz-adv-x="476" 
d="M360 14l-166 192c-15 17 -15 41 0 58l147 170c12 14 24 21 36 21c23 0 39 -15 39 -34c0 -10 -4 -19 -12 -28l-138 -152l161 -181c8 -10 12 -20 12 -30c0 -21 -16 -37 -40 -37c-14 0 -27 7 -39 21zM152 662v-631c4 -49 -84 -49 -80 0v631c-4 49 84 49 80 0zM193 -200
c-10 0 -17 3 -20 10c-2 4 -3 8 -3 11c0 9 4 15 12 20c18 12 27 30 27 53c0 8 -2 15 -5 22c-2 4 -3 8 -3 11c0 12 7 19 20 22l27 6c2 1 5 1 8 1c23 0 33 -26 33 -51c0 -52 -35 -87 -83 -103c-5 -1 -10 -2 -13 -2z" />
    <glyph glyph-name="Lacute" unicode="&#x139;" horiz-adv-x="550" 
d="M190 664v-584h306c21 0 39 -19 39 -40s-18 -40 -39 -40h-349c-23 0 -42 19 -42 42v622c0 23 19 41 43 41c23 0 42 -18 42 -41zM237 796l147 78c4 2 8 3 12 3c11 0 18 -5 23 -15l8 -18c1 -3 2 -6 2 -11c0 -12 -5 -20 -16 -24l-152 -64c-4 -1 -7 -2 -10 -2
c-12 0 -21 5 -26 15c-2 4 -3 8 -3 13c0 11 5 20 15 25z" />
    <glyph glyph-name="lacute" unicode="&#x13a;" horiz-adv-x="288" 
d="M152 662v-506c0 -61 16 -89 53 -89c12 0 38 5 45 5c16 0 33 -11 33 -32c0 -31 -31 -47 -94 -47c-78 0 -117 42 -117 127v542c-4 49 84 49 80 0zM94 796l147 78c4 2 8 3 12 3c11 0 18 -5 23 -15l8 -18c1 -3 2 -6 2 -11c0 -12 -5 -20 -16 -24l-152 -64c-4 -1 -7 -2 -10 -2
c-12 0 -21 5 -26 15c-2 4 -3 8 -3 13c0 11 5 20 15 25z" />
    <glyph glyph-name="Lcommaaccent" unicode="&#x13b;" horiz-adv-x="550" 
d="M190 664v-584h306c21 0 39 -19 39 -40s-18 -40 -39 -40h-349c-23 0 -42 19 -42 42v622c0 23 19 41 43 41c23 0 42 -18 42 -41zM269 -200c-10 0 -17 3 -20 10c-2 4 -3 8 -3 11c0 9 4 15 12 20c18 12 27 30 27 53c0 8 -2 15 -5 22c-2 4 -3 8 -3 11c0 12 7 19 20 22l27 6
c2 1 5 1 8 1c23 0 33 -26 33 -51c0 -52 -35 -87 -83 -103c-5 -1 -10 -2 -13 -2z" />
    <glyph glyph-name="lcommaaccent" unicode="&#x13c;" horiz-adv-x="288" 
d="M152 662v-506c0 -61 16 -89 53 -89c12 0 38 5 45 5c16 0 33 -11 33 -32c0 -31 -31 -47 -94 -47c-78 0 -117 42 -117 127v542c-4 49 84 49 80 0zM126 -200c-10 0 -17 3 -20 10c-2 4 -3 8 -3 11c0 9 4 15 12 20c18 12 27 30 27 53c0 8 -2 15 -5 22c-2 4 -3 8 -3 11
c0 12 7 19 20 22l27 6c2 1 5 1 8 1c23 0 33 -26 33 -51c0 -52 -35 -87 -83 -103c-5 -1 -10 -2 -13 -2z" />
    <glyph glyph-name="Lcaron" unicode="&#x13d;" horiz-adv-x="550" 
d="M190 664v-584h306c21 0 39 -19 39 -40s-18 -40 -39 -40h-349c-23 0 -42 19 -42 42v622c0 23 19 41 43 41c23 0 42 -18 42 -41zM354 514c-7 0 -12 2 -17 6c-5 5 -8 11 -8 18c0 9 3 17 10 24c19 23 28 53 28 91c0 6 -1 14 -2 23c0 1 -1 5 -1 6c0 12 7 18 21 18h28
c17 0 27 -12 28 -25c1 -3 1 -7 1 -13c0 -59 -21 -105 -64 -139c-8 -6 -16 -9 -24 -9z" />
    <glyph glyph-name="lcaron" unicode="&#x13e;" horiz-adv-x="288" 
d="M152 662v-506c0 -61 16 -89 53 -89c12 0 38 5 45 5c16 0 33 -11 33 -32c0 -31 -31 -47 -94 -47c-78 0 -117 42 -117 127v542c-4 49 84 49 80 0zM244 514c-6 0 -12 2 -17 6c-5 5 -8 11 -8 18c0 9 3 17 10 24c19 23 28 53 28 91c0 6 -1 14 -2 23c0 1 -1 5 -1 6
c0 12 7 18 21 18h28c17 0 27 -12 28 -25c1 -3 1 -7 1 -13c0 -59 -21 -105 -64 -139c-8 -6 -16 -9 -24 -9z" />
    <glyph glyph-name="Ldot" unicode="&#x13f;" horiz-adv-x="550" 
d="M190 664v-584h306c21 0 39 -19 39 -40s-18 -40 -39 -40h-349c-23 0 -42 19 -42 42v622c0 23 19 41 43 41c23 0 42 -18 42 -41zM368 374c0 28 24 53 57 53c29 0 53 -26 53 -53c0 -31 -22 -57 -53 -57c-33 0 -57 26 -57 57z" />
    <glyph glyph-name="ldot" unicode="&#x140;" horiz-adv-x="324" 
d="M152 662v-506c0 -61 16 -89 53 -89c12 0 38 5 45 5c16 0 33 -11 33 -32c0 -31 -31 -47 -94 -47c-78 0 -117 42 -117 127v542c-4 49 84 49 80 0zM226 326c0 28 23 48 52 48c27 0 49 -20 49 -48c0 -32 -22 -52 -49 -52c-29 0 -52 20 -52 52z" />
    <glyph glyph-name="Lslash" unicode="&#x141;" horiz-adv-x="553" 
d="M501 0h-349c-23 0 -42 19 -42 42v221l-45 -22c-5 -2 -10 -3 -15 -3c-15 0 -26 7 -33 21c-3 5 -4 10 -4 16c0 15 7 26 20 33l77 37v319c0 23 19 41 43 41c23 0 42 -18 42 -41v-278l127 62c5 2 10 3 15 3c15 0 27 -7 34 -20c3 -5 4 -10 4 -16c0 -15 -6 -26 -19 -32
l-161 -79v-224h306c21 0 39 -19 39 -40s-18 -40 -39 -40z" />
    <glyph glyph-name="lslash" unicode="&#x142;" horiz-adv-x="306" 
d="M271 348l-102 -50v-142c0 -61 16 -89 53 -89c12 0 38 5 45 5c16 0 33 -11 33 -32c0 -31 -31 -47 -94 -47c-78 0 -117 42 -117 127v141l-30 -15c-5 -3 -10 -4 -17 -4c-16 0 -27 6 -33 19c-2 5 -3 10 -3 15c0 16 7 28 21 35l62 31v320c-4 49 84 49 80 0v-282l70 34
c5 3 10 4 17 4c16 0 27 -7 34 -20c2 -4 3 -9 3 -14c0 -17 -7 -29 -22 -36z" />
    <glyph glyph-name="Nacute" unicode="&#x143;" horiz-adv-x="795" 
d="M198 669l412 -521v518c0 21 19 39 40 39s40 -18 40 -39v-630c0 -25 -15 -43 -36 -43c-17 0 -34 10 -51 31l-418 527v-519c0 -21 -19 -39 -40 -39s-40 18 -40 39v626c0 27 14 47 39 47c17 0 35 -12 54 -36zM362 796l147 78c4 2 8 3 12 3c11 0 18 -5 23 -15l8 -18
c1 -3 2 -6 2 -11c0 -12 -5 -20 -16 -24l-152 -64c-4 -1 -7 -2 -10 -2c-12 0 -21 5 -26 15c-2 4 -3 8 -3 13c0 11 5 20 15 25z" />
    <glyph glyph-name="nacute" unicode="&#x144;" horiz-adv-x="558" 
d="M152 325v-294c4 -49 -84 -49 -80 0v386c-4 49 84 49 80 0v-22c33 36 91 63 147 63c125 0 187 -66 187 -198v-229c4 -49 -84 -49 -80 0v214c0 92 -42 138 -127 138c-51 0 -93 -19 -127 -58zM240 590l72 107c5 8 13 12 24 12c7 0 12 -2 17 -6l14 -10c7 -6 11 -14 11 -23
c0 -8 -2 -14 -7 -19l-80 -97c-7 -8 -16 -12 -26 -12c-6 0 -12 2 -17 5c-9 6 -13 15 -13 26c0 6 2 12 5 17z" />
    <glyph glyph-name="Ncommaaccent" unicode="&#x145;" horiz-adv-x="795" 
d="M198 669l412 -521v518c0 21 19 39 40 39s40 -18 40 -39v-630c0 -25 -15 -43 -36 -43c-17 0 -34 10 -51 31l-418 527v-519c0 -21 -19 -39 -40 -39s-40 18 -40 39v626c0 27 14 47 39 47c17 0 35 -12 54 -36zM354 -200c-10 0 -17 3 -20 10c-2 4 -3 8 -3 11c0 9 4 15 12 20
c18 12 27 30 27 53c0 8 -2 15 -5 22c-2 4 -3 8 -3 11c0 12 7 19 20 22l27 6c2 1 5 1 8 1c23 0 33 -26 33 -51c0 -52 -35 -87 -83 -103c-5 -1 -10 -2 -13 -2z" />
    <glyph glyph-name="ncommaaccent" unicode="&#x146;" horiz-adv-x="558" 
d="M152 325v-294c4 -49 -84 -49 -80 0v386c-4 49 84 49 80 0v-22c33 36 91 63 147 63c125 0 187 -66 187 -198v-229c4 -49 -84 -49 -80 0v214c0 92 -42 138 -127 138c-51 0 -93 -19 -127 -58zM232 -200c-10 0 -17 3 -20 10c-2 4 -3 8 -3 11c0 9 4 15 12 20
c18 12 27 30 27 53c0 8 -2 15 -5 22c-2 4 -3 8 -3 11c0 12 7 19 20 22l27 6c2 1 5 1 8 1c23 0 33 -26 33 -51c0 -52 -35 -87 -83 -103c-5 -1 -10 -2 -13 -2z" />
    <glyph glyph-name="Ncaron" unicode="&#x147;" horiz-adv-x="795" 
d="M198 669l412 -521v518c0 21 19 39 40 39s40 -18 40 -39v-630c0 -25 -15 -43 -36 -43c-17 0 -34 10 -51 31l-418 527v-519c0 -21 -19 -39 -40 -39s-40 18 -40 39v626c0 27 14 47 39 47c17 0 35 -12 54 -36zM276 876l123 -70l118 69c5 3 10 4 16 4c11 0 19 -4 24 -13
c3 -5 4 -10 4 -15c0 -11 -5 -20 -14 -25l-123 -73c-15 -9 -37 -9 -52 0l-125 73c-9 5 -14 14 -14 25c0 5 1 10 3 14c5 10 14 15 26 15c5 0 9 -1 14 -4z" />
    <glyph glyph-name="ncaron" unicode="&#x148;" horiz-adv-x="558" 
d="M152 325v-294c4 -49 -84 -49 -80 0v386c-4 49 84 49 80 0v-22c33 36 91 63 147 63c125 0 187 -66 187 -198v-229c4 -49 -84 -49 -80 0v214c0 92 -42 138 -127 138c-51 0 -93 -19 -127 -58zM192 689l82 -82l82 81c6 6 14 9 23 9c8 0 15 -3 20 -8c6 -5 9 -12 9 -21
c0 -8 -3 -15 -9 -21l-104 -97c-12 -12 -34 -12 -46 0l-102 97c-6 5 -9 12 -9 21s3 16 10 22c7 5 14 8 21 8c9 0 17 -3 23 -9z" />
    <glyph glyph-name="Omacron" unicode="&#x14c;" horiz-adv-x="814" 
d="M407 -10c-103 0 -188 34 -255 101c-68 67 -102 154 -102 259c0 102 34 188 101 257s153 103 256 103s188 -34 256 -101c67 -67 101 -154 101 -259c0 -103 -34 -189 -102 -257c-68 -69 -153 -103 -255 -103zM407 630c-77 0 -140 -26 -191 -79s-76 -120 -76 -201
c0 -79 26 -146 77 -199c51 -54 115 -81 190 -81c79 0 143 27 193 80c49 53 74 120 74 200c0 81 -26 148 -77 201s-115 79 -190 79zM292 835h240c42 0 42 -65 0 -65h-240c-19 0 -32 14 -32 33c0 17 13 32 32 32z" />
    <glyph glyph-name="omacron" unicode="&#x14d;" 
d="M109 57c-45 44 -67 100 -67 168s22 124 67 169c44 44 102 66 173 66s129 -22 174 -66c44 -45 66 -101 66 -169s-22 -124 -66 -168c-45 -45 -103 -67 -174 -67s-129 22 -173 67zM127 225c0 -93 64 -160 155 -160s155 65 155 160c0 93 -64 160 -155 160
c-89 0 -155 -65 -155 -160zM187 645h200c42 3 41 -69 0 -65h-200c-19 0 -32 14 -32 33c0 17 15 32 32 32z" />
    <glyph glyph-name="Ohungarumlaut" unicode="&#x150;" horiz-adv-x="814" 
d="M407 -10c-103 0 -188 34 -255 101c-68 67 -102 154 -102 259c0 102 34 188 101 257s153 103 256 103s188 -34 256 -101c67 -67 101 -154 101 -259c0 -103 -34 -189 -102 -257c-68 -69 -153 -103 -255 -103zM407 630c-77 0 -140 -26 -191 -79s-76 -120 -76 -201
c0 -79 26 -146 77 -199c51 -54 115 -81 190 -81c79 0 143 27 193 80c49 53 74 120 74 200c0 81 -26 148 -77 201s-115 79 -190 79zM471 785l115 87c5 4 11 6 18 6c8 0 15 -3 22 -8l17 -17c5 -3 7 -8 7 -13c0 -7 -3 -12 -10 -17l-135 -75c-7 -3 -13 -5 -18 -5
c-8 0 -15 3 -20 8c-4 4 -6 9 -6 15c0 7 3 14 10 19zM291 785l90 84c7 7 15 10 25 10c6 0 12 -1 17 -4l21 -12c12 -7 11 -22 2 -27l-119 -86c-7 -5 -14 -7 -20 -7c-7 0 -13 3 -18 8c-9 9 -10 22 2 34z" />
    <glyph glyph-name="ohungarumlaut" unicode="&#x151;" 
d="M109 57c-45 44 -67 100 -67 168s22 124 67 169c44 44 102 66 173 66s129 -22 174 -66c44 -45 66 -101 66 -169s-22 -124 -66 -168c-45 -45 -103 -67 -174 -67s-129 22 -173 67zM127 225c0 -93 64 -160 155 -160s155 65 155 160c0 93 -64 160 -155 160
c-89 0 -155 -65 -155 -160zM329 588l80 105c5 7 12 11 22 11c7 0 13 -2 18 -6l13 -9c7 -6 10 -13 10 -22c0 -7 -2 -13 -6 -18l-87 -96c-6 -7 -14 -11 -24 -11c-7 0 -13 2 -19 6c-8 6 -12 14 -12 24c0 5 2 11 5 16zM173 589l71 110c5 8 13 12 23 12c5 0 11 -2 16 -5l12 -9
c7 -5 11 -13 11 -23c0 -7 -2 -13 -5 -17l-79 -103c-5 -8 -12 -12 -23 -12c-7 0 -13 2 -18 6c-9 7 -13 15 -13 25c0 5 2 11 5 16z" />
    <glyph glyph-name="OE" unicode="&#x152;" horiz-adv-x="1042" 
d="M657 314v-234h281c21 0 39 -19 39 -40s-18 -40 -39 -40h-339c-15 0 -27 12 -27 28c-47 -25 -103 -38 -167 -38c-105 0 -191 33 -256 99c-66 65 -99 152 -99 261c0 103 32 189 95 258c63 68 147 102 254 102c65 0 123 -13 173 -39c0 16 13 29 29 29h327
c21 0 39 -19 39 -40s-18 -40 -39 -40h-271v-226h241c21 0 39 -19 39 -40s-18 -40 -39 -40h-241zM572 116v462c-47 35 -104 52 -172 52c-76 0 -138 -26 -187 -78s-73 -119 -73 -202s25 -151 76 -202c50 -52 116 -78 197 -78c60 0 113 15 159 46z" />
    <glyph glyph-name="oe" unicode="&#x153;" horiz-adv-x="842" 
d="M360 225c0 45 10 86 29 123c-29 25 -65 37 -107 37c-89 0 -155 -65 -155 -160c0 -93 64 -160 155 -160c43 0 79 12 107 37c-19 35 -29 76 -29 123zM445 265h273c-5 75 -54 120 -131 120c-80 0 -133 -49 -142 -120zM607 65c42 0 79 9 110 27c7 5 15 7 24 7
c11 0 20 -4 26 -12c5 -5 7 -12 7 -20c0 -11 -5 -20 -14 -27c-47 -33 -100 -50 -159 -50c-65 0 -119 17 -161 51c-42 -34 -95 -51 -158 -51c-71 0 -129 22 -173 67c-45 44 -67 100 -67 168s22 124 67 169c44 44 102 66 173 66c62 0 114 -17 156 -52c42 35 93 52 154 52
c59 0 109 -19 149 -57c39 -39 59 -88 59 -149c0 -10 0 -17 -1 -22c-1 -16 -18 -32 -34 -32h-315c5 -84 68 -135 157 -135z" />
    <glyph glyph-name="Racute" unicode="&#x154;" horiz-adv-x="627" 
d="M587 32c0 -21 -16 -39 -39 -39c-16 0 -30 8 -43 24l-201 263h-114v-245c0 -23 -19 -42 -42 -42c-24 0 -43 19 -43 42v623c0 23 19 42 42 42c71 1 119 2 146 2c166 0 249 -69 249 -208c0 -51 -15 -94 -44 -129c-30 -35 -66 -58 -108 -69l186 -235c7 -9 11 -19 11 -29z
M190 620v-260h103c43 0 80 12 112 37c31 24 47 56 47 96c0 86 -55 129 -164 129c-21 0 -54 -1 -98 -2zM232 796l147 78c4 2 8 3 12 3c11 0 18 -5 23 -15l8 -18c1 -3 2 -6 2 -11c0 -12 -5 -20 -16 -24l-152 -64c-4 -1 -7 -2 -10 -2c-12 0 -21 5 -26 15c-2 4 -3 8 -3 13
c0 11 5 20 15 25z" />
    <glyph glyph-name="racute" unicode="&#x155;" horiz-adv-x="340" 
d="M152 319v-286c2 -52 -82 -52 -80 0v382c-2 52 82 52 80 0v-18c27 41 65 61 113 61c11 0 25 -2 41 -6c19 -6 29 -17 29 -32c0 -2 -1 -6 -2 -13c-5 -19 -19 -28 -40 -28c-4 0 -11 1 -20 2c-6 1 -15 2 -27 2c-41 0 -72 -21 -94 -64zM154 590l72 107c5 8 13 12 24 12
c7 0 12 -2 17 -6l14 -10c7 -6 11 -14 11 -23c0 -8 -2 -14 -7 -19l-80 -97c-7 -8 -16 -12 -26 -12c-6 0 -12 2 -17 5c-9 6 -13 15 -13 26c0 6 2 12 5 17z" />
    <glyph glyph-name="Rcommaaccent" unicode="&#x156;" horiz-adv-x="627" 
d="M587 32c0 -21 -16 -39 -39 -39c-16 0 -30 8 -43 24l-201 263h-114v-245c0 -23 -19 -42 -42 -42c-24 0 -43 19 -43 42v623c0 23 19 42 42 42c71 1 119 2 146 2c166 0 249 -69 249 -208c0 -51 -15 -94 -44 -129c-30 -35 -66 -58 -108 -69l186 -235c7 -9 11 -19 11 -29z
M190 620v-260h103c43 0 80 12 112 37c31 24 47 56 47 96c0 86 -55 129 -164 129c-21 0 -54 -1 -98 -2zM274 -200c-10 0 -17 3 -20 10c-2 4 -3 8 -3 11c0 9 4 15 12 20c18 12 27 30 27 53c0 8 -2 15 -5 22c-2 4 -3 8 -3 11c0 12 7 19 20 22l27 6c2 1 5 1 8 1
c23 0 33 -26 33 -51c0 -52 -35 -87 -83 -103c-5 -1 -10 -2 -13 -2z" />
    <glyph glyph-name="rcommaaccent" unicode="&#x157;" horiz-adv-x="340" 
d="M152 319v-286c2 -52 -82 -52 -80 0v382c-2 52 82 52 80 0v-18c27 41 65 61 113 61c11 0 25 -2 41 -6c19 -6 29 -17 29 -32c0 -2 -1 -6 -2 -13c-5 -19 -19 -28 -40 -28c-4 0 -11 1 -20 2c-6 1 -15 2 -27 2c-41 0 -72 -21 -94 -64zM117 -200c-10 0 -17 3 -20 10
c-2 4 -3 8 -3 11c0 9 4 15 12 20c18 12 27 30 27 53c0 8 -2 15 -5 22c-2 4 -3 8 -3 11c0 12 7 19 20 22l27 6c2 1 5 1 8 1c23 0 33 -26 33 -51c0 -52 -35 -87 -83 -103c-5 -1 -10 -2 -13 -2z" />
    <glyph glyph-name="Rcaron" unicode="&#x158;" horiz-adv-x="627" 
d="M587 32c0 -21 -16 -39 -39 -39c-16 0 -30 8 -43 24l-201 263h-114v-245c0 -23 -19 -42 -42 -42c-24 0 -43 19 -43 42v623c0 23 19 42 42 42c71 1 119 2 146 2c166 0 249 -69 249 -208c0 -51 -15 -94 -44 -129c-30 -35 -66 -58 -108 -69l186 -235c7 -9 11 -19 11 -29z
M190 620v-260h103c43 0 80 12 112 37c31 24 47 56 47 96c0 86 -55 129 -164 129c-21 0 -54 -1 -98 -2zM169 876l123 -70l118 69c5 3 10 4 16 4c11 0 19 -4 24 -13c3 -5 4 -10 4 -15c0 -11 -5 -20 -14 -25l-123 -73c-15 -9 -37 -9 -52 0l-125 73c-9 5 -14 14 -14 25
c0 5 1 10 3 14c5 10 14 15 26 15c5 0 9 -1 14 -4z" />
    <glyph glyph-name="rcaron" unicode="&#x159;" horiz-adv-x="340" 
d="M152 319v-286c2 -52 -82 -52 -80 0v382c-2 52 82 52 80 0v-18c27 41 65 61 113 61c11 0 25 -2 41 -6c19 -6 29 -17 29 -32c0 -2 -1 -6 -2 -13c-5 -19 -19 -28 -40 -28c-4 0 -11 1 -20 2c-6 1 -15 2 -27 2c-41 0 -72 -21 -94 -64zM112 689l82 -82l82 81c6 6 14 9 23 9
c8 0 15 -3 20 -8c6 -5 9 -12 9 -21c0 -8 -3 -15 -9 -21l-104 -97c-12 -12 -34 -12 -46 0l-102 97c-6 5 -9 12 -9 21s3 16 10 22c7 5 14 8 21 8c9 0 17 -3 23 -9z" />
    <glyph glyph-name="Sacute" unicode="&#x15a;" horiz-adv-x="526" 
d="M252 -10c-66 0 -131 27 -194 80c-8 7 -12 16 -12 28c0 9 3 18 9 25c8 10 18 15 31 15c9 0 16 -2 23 -7c55 -41 103 -61 144 -61c77 0 137 41 137 109c0 171 -342 116 -342 348c0 52 19 96 57 131s89 52 154 52c60 0 115 -16 164 -47c11 -7 16 -18 16 -32
c0 -9 -2 -16 -7 -21c-9 -13 -20 -19 -33 -19c-6 0 -14 2 -23 7c-35 21 -73 32 -112 32c-77 0 -126 -40 -126 -103c0 -173 342 -108 342 -347c0 -57 -22 -102 -65 -137c-44 -35 -98 -53 -163 -53zM221 796l147 78c4 2 8 3 12 3c11 0 18 -5 23 -15l8 -18c1 -3 2 -6 2 -11
c0 -12 -5 -20 -16 -24l-152 -64c-4 -1 -7 -2 -10 -2c-12 0 -21 5 -26 15c-2 4 -3 8 -3 13c0 11 5 20 15 25z" />
    <glyph glyph-name="sacute" unicode="&#x15b;" horiz-adv-x="410" 
d="M41 66c0 8 3 15 8 22c7 9 17 14 28 14c9 0 16 -2 23 -7c35 -23 69 -35 104 -35c45 0 80 23 80 62c0 90 -243 47 -243 211c0 77 62 127 153 127c46 0 89 -11 128 -34c11 -7 16 -16 16 -28c0 -7 -2 -13 -6 -19c-7 -11 -17 -16 -30 -16c-7 0 -14 2 -20 5
c-28 15 -56 22 -84 22c-44 0 -72 -25 -72 -56c0 -94 243 -51 243 -208c0 -89 -75 -136 -174 -136c-53 0 -100 16 -141 48c-9 7 -13 16 -13 28zM159 590l72 107c5 8 13 12 24 12c6 0 12 -2 17 -6l14 -10c7 -6 11 -14 11 -23c0 -8 -2 -14 -7 -19l-80 -97
c-7 -8 -15 -12 -26 -12c-6 0 -12 2 -17 5c-9 6 -13 15 -13 26c0 6 2 12 5 17z" />
    <glyph glyph-name="Scircumflex" unicode="&#x15c;" horiz-adv-x="526" 
d="M252 -10c-66 0 -131 27 -194 80c-8 7 -12 16 -12 28c0 9 3 18 9 25c8 10 18 15 31 15c9 0 16 -2 23 -7c55 -41 103 -61 144 -61c77 0 137 41 137 109c0 171 -342 116 -342 348c0 52 19 96 57 131s89 52 154 52c60 0 115 -16 164 -47c11 -7 16 -18 16 -32
c0 -9 -2 -16 -7 -21c-9 -13 -20 -19 -33 -19c-6 0 -14 2 -23 7c-35 21 -73 32 -112 32c-77 0 -126 -40 -126 -103c0 -173 342 -108 342 -347c0 -57 -22 -102 -65 -137c-44 -35 -98 -53 -163 -53zM374 744l-121 67l-115 -65c-5 -3 -11 -5 -17 -5c-11 0 -19 4 -25 13
c-3 4 -5 9 -5 16c0 11 5 20 15 25l122 72c7 5 16 7 25 7c10 0 18 -2 25 -7l126 -73c9 -5 14 -13 14 -24c0 -7 -1 -12 -4 -15c-5 -10 -14 -15 -26 -15c-5 0 -9 1 -14 4z" />
    <glyph glyph-name="scircumflex" unicode="&#x15d;" horiz-adv-x="410" 
d="M41 66c0 8 3 15 8 22c7 9 17 14 28 14c9 0 16 -2 23 -7c35 -23 69 -35 104 -35c45 0 80 23 80 62c0 90 -243 47 -243 211c0 77 62 127 153 127c46 0 89 -11 128 -34c11 -7 16 -16 16 -28c0 -7 -2 -13 -6 -19c-7 -11 -17 -16 -30 -16c-7 0 -14 2 -20 5
c-28 15 -56 22 -84 22c-44 0 -72 -25 -72 -56c0 -94 243 -51 243 -208c0 -89 -75 -136 -174 -136c-53 0 -100 16 -141 48c-9 7 -13 16 -13 28zM281 546l-81 71l-81 -70c-7 -5 -14 -8 -21 -8c-8 0 -15 3 -22 10c-5 5 -8 12 -8 20c0 9 3 17 9 23l102 94c12 12 34 12 46 0
l99 -94c7 -7 10 -14 10 -23c0 -8 -3 -15 -9 -21c-7 -7 -14 -10 -23 -10c-7 0 -14 3 -21 8z" />
    <glyph glyph-name="Scedilla" unicode="&#x15e;" horiz-adv-x="526" 
d="M480 180c0 -54 -20 -98 -61 -133s-92 -54 -153 -57v-33c71 -4 106 -31 106 -80s-47 -82 -123 -82c-37 0 -69 9 -98 26c-7 5 -10 11 -10 18c0 6 1 11 4 14c5 8 11 12 20 12c4 0 8 -1 12 -3c21 -11 39 -17 54 -17c33 0 56 13 56 36c0 24 -16 39 -40 39c-13 0 -24 10 -24 22
v50c-57 7 -112 33 -165 78c-8 7 -12 16 -12 28c0 9 3 18 9 25c8 10 18 15 31 15c9 0 16 -2 23 -7c55 -41 103 -61 144 -61c77 0 137 41 137 109c0 171 -342 116 -342 348c0 52 19 96 57 131s89 52 154 52c60 0 115 -16 164 -47c11 -7 16 -18 16 -32c0 -9 -2 -16 -7 -21
c-9 -13 -20 -19 -33 -19c-6 0 -14 2 -23 7c-35 21 -73 32 -112 32c-77 0 -126 -40 -126 -103c0 -173 342 -108 342 -347z" />
    <glyph glyph-name="scedilla" unicode="&#x15f;" horiz-adv-x="410" 
d="M41 66c0 8 3 15 8 22c7 9 17 14 28 14c9 0 16 -2 23 -7c35 -23 69 -35 104 -35c45 0 80 23 80 62c0 90 -243 47 -243 211c0 77 62 127 153 127c46 0 89 -11 128 -34c11 -7 16 -16 16 -28c0 -7 -2 -13 -6 -19c-7 -11 -17 -16 -30 -16c-7 0 -14 2 -20 5
c-28 15 -56 22 -84 22c-44 0 -72 -25 -72 -56c0 -94 243 -51 243 -208c0 -83 -66 -130 -155 -135v-34c67 -4 101 -31 101 -80s-47 -82 -126 -82c-31 0 -59 7 -84 21c-9 4 -13 11 -13 22c0 4 1 7 2 10c3 8 10 12 20 12c5 0 10 -1 15 -3c18 -8 35 -12 50 -12c37 0 56 13 56 40
c0 21 -15 35 -40 35c-13 0 -24 11 -24 24v47c-43 3 -82 19 -117 47c-9 7 -13 16 -13 28z" />
    <glyph glyph-name="Scaron" unicode="&#x160;" horiz-adv-x="526" 
d="M252 -10c-66 0 -131 27 -194 80c-8 7 -12 16 -12 28c0 9 3 18 9 25c8 10 18 15 31 15c9 0 16 -2 23 -7c55 -41 103 -61 144 -61c77 0 137 41 137 109c0 171 -342 116 -342 348c0 52 19 96 57 131s89 52 154 52c60 0 115 -16 164 -47c11 -7 16 -18 16 -32
c0 -9 -2 -16 -7 -21c-9 -13 -20 -19 -33 -19c-6 0 -14 2 -23 7c-35 21 -73 32 -112 32c-77 0 -126 -40 -126 -103c0 -173 342 -108 342 -347c0 -57 -22 -102 -65 -137c-44 -35 -98 -53 -163 -53zM138 876l123 -70l118 69c5 3 10 4 16 4c11 0 19 -4 24 -13c3 -5 4 -10 4 -15
c0 -11 -5 -20 -14 -25l-123 -73c-15 -9 -37 -9 -52 0l-125 73c-9 5 -14 14 -14 25c0 5 1 10 3 14c5 10 14 15 26 15c5 0 9 -1 14 -4z" />
    <glyph glyph-name="scaron" unicode="&#x161;" horiz-adv-x="410" 
d="M41 66c0 8 3 15 8 22c7 9 17 14 28 14c9 0 16 -2 23 -7c35 -23 69 -35 104 -35c45 0 80 23 80 62c0 90 -243 47 -243 211c0 77 62 127 153 127c46 0 89 -11 128 -34c11 -7 16 -16 16 -28c0 -7 -2 -13 -6 -19c-7 -11 -17 -16 -30 -16c-7 0 -14 2 -20 5
c-28 15 -56 22 -84 22c-44 0 -72 -25 -72 -56c0 -94 243 -51 243 -208c0 -89 -75 -136 -174 -136c-53 0 -100 16 -141 48c-9 7 -13 16 -13 28zM117 689l82 -82l82 81c6 6 14 9 23 9c8 0 15 -3 20 -8c6 -5 9 -12 9 -21c0 -8 -3 -15 -9 -21l-104 -97c-12 -12 -34 -12 -46 0
l-102 97c-6 5 -9 12 -9 21s3 16 10 22c7 5 14 8 21 8c9 0 17 -3 23 -9z" />
    <glyph glyph-name="Tcedilla" unicode="&#x162;" horiz-adv-x="595" 
d="M546 620h-206v-585c0 -17 -7 -29 -22 -37v-41c71 -4 106 -31 106 -80s-47 -82 -123 -82c-37 0 -69 9 -98 26c-7 5 -10 11 -10 18c0 6 1 11 4 14c5 8 12 12 20 12c4 0 8 -1 12 -3c21 -11 39 -17 54 -17c33 0 56 13 56 36c0 24 -16 39 -40 39c-13 0 -24 10 -24 22v58
c-13 8 -20 20 -20 35v585h-206c-21 0 -39 19 -39 40s18 40 39 40h497c21 0 39 -19 39 -40s-18 -40 -39 -40z" />
    <glyph glyph-name="tcedilla" unicode="&#x163;" horiz-adv-x="344" 
d="M222 67c19 0 56 12 64 12c19 0 34 -13 34 -33c0 -13 -7 -23 -21 -32c-23 -13 -52 -21 -89 -22v-35c67 -4 101 -31 101 -80s-47 -82 -126 -82c-31 0 -59 7 -84 21c-9 4 -13 11 -13 22c0 4 1 7 2 10c3 8 10 12 20 12c5 0 10 -1 15 -3c18 -8 35 -12 50 -12c37 0 56 13 56 40
c0 21 -15 35 -40 35c-13 0 -24 11 -24 24v51c-70 13 -105 72 -105 176v366c-4 49 84 49 80 0v-87h127c21 0 38 -17 38 -37c0 -21 -17 -38 -38 -38h-127v-196c0 -75 27 -112 80 -112z" />
    <glyph glyph-name="Tcaron" unicode="&#x164;" horiz-adv-x="595" 
d="M546 620h-206v-585c0 -23 -19 -42 -42 -42c-24 0 -43 19 -43 42v585h-206c-21 0 -39 19 -39 40s18 40 39 40h497c21 0 39 -19 39 -40s-18 -40 -39 -40zM173 876l123 -70l118 69c5 3 10 4 16 4c11 0 19 -4 24 -13c3 -5 4 -10 4 -15c0 -11 -5 -20 -14 -25l-123 -73
c-15 -9 -37 -9 -52 0l-125 73c-9 5 -14 14 -14 25c0 5 1 10 3 14c5 10 14 15 26 15c5 0 9 -1 14 -4z" />
    <glyph glyph-name="tcaron" unicode="&#x165;" horiz-adv-x="344" 
d="M222 67c19 0 56 12 64 12c19 0 34 -13 34 -33c0 -13 -7 -23 -21 -32c-24 -15 -56 -22 -96 -22c-99 0 -141 60 -141 179v366c-4 49 84 49 80 0v-87h127c21 0 38 -17 38 -37c0 -21 -17 -38 -38 -38h-127v-196c0 -75 27 -112 80 -112zM244 514c-6 0 -12 2 -17 6
c-5 5 -8 11 -8 18c0 9 3 17 10 24c19 23 28 53 28 91c0 6 -1 14 -2 23c0 1 -1 5 -1 6c0 12 7 18 21 18h28c17 0 27 -12 28 -25c1 -3 1 -7 1 -13c0 -59 -21 -105 -64 -139c-8 -6 -16 -9 -24 -9z" />
    <glyph glyph-name="Umacron" unicode="&#x16a;" horiz-adv-x="751" 
d="M180 664v-349c0 -153 74 -244 205 -244c117 0 186 82 186 238v355c0 23 19 41 43 41c23 0 42 -18 42 -41v-372c0 -101 -26 -176 -77 -226s-116 -75 -194 -75c-87 0 -157 27 -210 80s-80 129 -80 228v365c0 23 19 41 43 41c23 0 42 -18 42 -41zM260 835h240
c42 0 42 -65 0 -65h-240c-19 0 -32 14 -32 33c0 17 13 32 32 32z" />
    <glyph glyph-name="umacron" unicode="&#x16b;" horiz-adv-x="540" 
d="M387 132v285c-4 49 84 49 80 0v-386c4 -49 -84 -49 -80 0v33c-35 -41 -92 -74 -159 -74c-104 0 -166 64 -166 192v235c-4 49 84 49 80 0v-217c0 -90 39 -135 116 -135c49 0 100 28 129 67zM167 645h200c42 3 41 -69 0 -65h-200c-19 0 -32 14 -32 33c0 17 15 32 32 32z
" />
    <glyph glyph-name="Ubreve" unicode="&#x16c;" horiz-adv-x="751" 
d="M180 664v-349c0 -153 74 -244 205 -244c117 0 186 82 186 238v355c0 23 19 41 43 41c23 0 42 -18 42 -41v-372c0 -101 -26 -176 -77 -226s-116 -75 -194 -75c-87 0 -157 27 -210 80s-80 129 -80 228v365c0 23 19 41 43 41c23 0 42 -18 42 -41zM499 862c11 11 29 10 40 1
c6 -5 9 -12 9 -21c0 -5 -2 -10 -5 -15c-47 -55 -102 -82 -166 -82c-69 0 -126 27 -170 80c-3 5 -5 10 -5 15c0 9 4 17 11 23c11 9 27 10 40 -1c34 -31 75 -47 124 -47c47 0 88 16 122 47z" />
    <glyph glyph-name="ubreve" unicode="&#x16d;" horiz-adv-x="540" 
d="M387 132v285c-4 49 84 49 80 0v-386c4 -49 -84 -49 -80 0v33c-35 -41 -92 -74 -159 -74c-104 0 -166 64 -166 192v235c-4 49 84 49 80 0v-217c0 -90 39 -135 116 -135c49 0 100 28 129 67zM388 670c6 0 12 -2 18 -7c5 -5 8 -12 8 -19c0 -5 -2 -11 -7 -17
c-41 -48 -87 -72 -140 -72s-99 24 -138 71c-4 5 -6 11 -6 18c0 8 3 15 9 20c7 5 13 8 19 8c8 0 16 -4 23 -11c27 -27 59 -41 96 -41c35 0 67 13 96 40c8 7 15 10 22 10z" />
    <glyph glyph-name="Uring" unicode="&#x16e;" horiz-adv-x="751" 
d="M180 664v-349c0 -153 74 -244 205 -244c117 0 186 82 186 238v355c0 23 19 41 43 41c23 0 42 -18 42 -41v-372c0 -101 -26 -176 -77 -226s-116 -75 -194 -75c-87 0 -157 27 -210 80s-80 129 -80 228v365c0 23 19 41 43 41c23 0 42 -18 42 -41zM286 718
c-23 17 -35 42 -35 74s12 56 35 72s52 24 89 24c75 0 126 -32 126 -96s-53 -100 -126 -100c-36 0 -66 9 -89 26zM311 792c0 -36 26 -55 65 -55c37 0 65 19 65 55c0 34 -22 51 -65 51s-65 -17 -65 -51z" />
    <glyph glyph-name="uring" unicode="&#x16f;" horiz-adv-x="540" 
d="M387 132v285c-4 49 84 49 80 0v-386c4 -49 -84 -49 -80 0v33c-35 -41 -92 -74 -159 -74c-104 0 -166 64 -166 192v235c-4 49 84 49 80 0v-217c0 -90 39 -135 116 -135c49 0 100 28 129 67zM266 503c-64 0 -114 49 -114 110s50 111 114 111c65 0 116 -50 116 -111
s-51 -110 -116 -110zM312 660c-36 42 -113 10 -108 -46c0 -37 27 -66 63 -66s63 29 63 66c0 18 -6 33 -18 46z" />
    <glyph glyph-name="Uhungarumlaut" unicode="&#x170;" horiz-adv-x="751" 
d="M180 664v-349c0 -153 74 -244 205 -244c117 0 186 82 186 238v355c0 23 19 41 43 41c23 0 42 -18 42 -41v-372c0 -101 -26 -176 -77 -226s-116 -75 -194 -75c-87 0 -157 27 -210 80s-80 129 -80 228v365c0 23 19 41 43 41c23 0 42 -18 42 -41zM426 785l115 87
c5 4 11 6 18 6c8 0 15 -3 22 -8l17 -17c5 -3 7 -8 7 -13c0 -7 -3 -12 -10 -17l-135 -75c-7 -3 -13 -5 -18 -5c-8 0 -15 3 -20 8c-4 4 -6 9 -6 15c0 7 3 14 10 19zM246 785l90 84c7 7 15 10 25 10c6 0 12 -1 17 -4l21 -12c12 -7 11 -22 2 -27l-119 -86c-13 -9 -27 -10 -38 1
c-9 9 -10 22 2 34z" />
    <glyph glyph-name="uhungarumlaut" unicode="&#x171;" horiz-adv-x="540" 
d="M387 132v285c-4 49 84 49 80 0v-386c4 -49 -84 -49 -80 0v33c-35 -41 -92 -74 -159 -74c-104 0 -166 64 -166 192v235c-4 49 84 49 80 0v-217c0 -90 39 -135 116 -135c49 0 100 28 129 67zM314 588l80 105c5 7 12 11 22 11c7 0 13 -2 18 -6l13 -9c7 -6 10 -13 10 -22
c0 -7 -2 -13 -6 -18l-87 -96c-6 -7 -14 -11 -24 -11c-7 0 -13 2 -19 6c-8 6 -12 14 -12 24c0 5 2 11 5 16zM158 589l71 110c5 8 12 12 23 12c5 0 11 -2 16 -5l12 -9c7 -5 11 -13 11 -23c0 -7 -2 -13 -5 -17l-79 -103c-5 -8 -12 -12 -23 -12c-7 0 -13 2 -18 6
c-9 7 -13 15 -13 25c0 5 2 11 5 16z" />
    <glyph glyph-name="Uogonek" unicode="&#x172;" horiz-adv-x="751" 
d="M180 664v-349c0 -153 74 -244 205 -244c117 0 186 82 186 238v355c0 23 19 41 43 41c23 0 42 -18 42 -41v-372c0 -97 -24 -171 -72 -221s-109 -77 -184 -80c-36 -15 -60 -44 -60 -73c0 -37 31 -53 60 -53c8 0 15 1 22 3c5 1 9 2 12 2c14 0 23 -7 27 -21c1 -2 1 -5 1 -9
c0 -12 -7 -22 -22 -29c-16 -7 -35 -11 -58 -11c-67 0 -122 28 -122 92c0 44 26 78 77 102c-148 19 -242 125 -242 305v365c0 23 19 41 43 41c23 0 42 -18 42 -41z" />
    <glyph glyph-name="uogonek" unicode="&#x173;" horiz-adv-x="540" 
d="M387 132v285c-4 49 84 49 80 0v-386c0 -21 -17 -38 -40 -38c-7 0 -13 2 -20 5c-44 -9 -78 -45 -78 -80c0 -37 31 -53 60 -53c7 0 15 1 22 3c5 1 9 2 12 2c14 0 23 -7 27 -21c1 -2 1 -5 1 -9c0 -12 -7 -22 -22 -29c-16 -7 -35 -11 -58 -11c-67 0 -122 28 -122 92
s62 108 142 121c-3 5 -4 11 -4 18v33c-35 -41 -92 -74 -159 -74c-104 0 -166 64 -166 192v235c-4 49 84 49 80 0v-217c0 -90 39 -135 116 -135c49 0 100 28 129 67z" />
    <glyph glyph-name="Ydieresis" unicode="&#x178;" horiz-adv-x="584" 
d="M28 664c0 23 18 41 43 41c16 0 30 -10 42 -31l180 -294l181 294c13 21 27 31 44 31c24 0 38 -16 38 -36c0 -7 -2 -15 -7 -23l-217 -346v-265c0 -23 -19 -42 -42 -42c-24 0 -43 19 -43 42v265l-212 340c-5 7 -7 15 -7 24zM121 813c0 27 24 45 55 45c28 0 52 -18 52 -45
c0 -29 -24 -48 -52 -48c-32 0 -55 19 -55 48zM353 813c0 27 25 45 56 45c28 0 51 -17 51 -45c0 -29 -23 -48 -51 -48c-32 0 -56 19 -56 48z" />
    <glyph glyph-name="Zacute" unicode="&#x179;" horiz-adv-x="625" 
d="M546 0h-488c-20 0 -34 13 -34 30c0 12 7 27 20 45l414 545h-369c-21 0 -39 19 -39 40s18 40 39 40h459c23 0 34 -11 34 -32c0 -11 -7 -26 -21 -43l-416 -545h401c21 0 39 -19 39 -40s-18 -40 -39 -40zM267 796l147 78c4 2 8 3 12 3c11 0 18 -5 23 -15l8 -18
c1 -3 2 -6 2 -11c0 -12 -5 -20 -16 -24l-152 -64c-4 -1 -7 -2 -10 -2c-12 0 -21 5 -26 15c-2 4 -3 8 -3 13c0 11 5 20 15 25z" />
    <glyph glyph-name="zacute" unicode="&#x17a;" horiz-adv-x="456" 
d="M384 0h-310c-34 0 -55 40 -27 68l262 307h-224c-21 0 -38 17 -38 38c0 20 17 37 38 37h296c23 0 39 -14 39 -39c0 -9 -4 -18 -12 -29l-263 -307h239c21 0 38 -17 38 -37c0 -21 -17 -38 -38 -38zM195 590l72 107c5 8 13 12 24 12c6 0 12 -2 17 -6l14 -10
c7 -6 11 -14 11 -23c0 -8 -2 -14 -7 -19l-80 -97c-7 -8 -16 -12 -26 -12c-6 0 -12 2 -17 5c-9 6 -13 15 -13 26c0 6 2 12 5 17z" />
    <glyph glyph-name="Zdotaccent" unicode="&#x17b;" horiz-adv-x="625" 
d="M546 0h-488c-20 0 -34 13 -34 30c0 12 7 27 20 45l414 545h-369c-21 0 -39 19 -39 40s18 40 39 40h459c23 0 34 -11 34 -32c0 -11 -7 -26 -21 -43l-416 -545h401c21 0 39 -19 39 -40s-18 -40 -39 -40zM250 817c0 31 25 51 57 51c29 0 54 -20 54 -51
c0 -33 -25 -54 -54 -54c-32 0 -57 21 -57 54z" />
    <glyph glyph-name="zdotaccent" unicode="&#x17c;" horiz-adv-x="456" 
d="M384 0h-310c-34 0 -55 40 -27 68l262 307h-224c-21 0 -38 17 -38 38c0 20 17 37 38 37h296c23 0 39 -14 39 -39c0 -9 -4 -18 -12 -29l-263 -307h239c21 0 38 -17 38 -37c0 -21 -17 -38 -38 -38zM176 619c0 28 23 48 52 48c27 0 49 -20 49 -48c0 -32 -22 -52 -49 -52
c-29 0 -52 20 -52 52z" />
    <glyph glyph-name="Zcaron" unicode="&#x17d;" horiz-adv-x="625" 
d="M546 0h-488c-20 0 -34 13 -34 30c0 12 7 27 20 45l414 545h-369c-21 0 -39 19 -39 40s18 40 39 40h459c23 0 34 -11 34 -32c0 -11 -7 -26 -21 -43l-416 -545h401c21 0 39 -19 39 -40s-18 -40 -39 -40zM189 876l123 -70l118 69c5 3 10 4 16 4c11 0 19 -4 24 -13
c3 -5 4 -10 4 -15c0 -11 -5 -20 -14 -25l-123 -73c-15 -9 -37 -9 -52 0l-125 73c-9 5 -14 14 -14 25c0 5 1 10 3 14c5 10 14 15 26 15c5 0 9 -1 14 -4z" />
    <glyph glyph-name="zcaron" unicode="&#x17e;" horiz-adv-x="456" 
d="M384 0h-310c-34 0 -55 40 -27 68l262 307h-224c-21 0 -38 17 -38 38c0 20 17 37 38 37h296c23 0 39 -14 39 -39c0 -9 -4 -18 -12 -29l-263 -307h239c21 0 38 -17 38 -37c0 -21 -17 -38 -38 -38zM153 689l82 -82l82 81c6 6 14 9 23 9c8 0 15 -3 20 -8c6 -5 9 -12 9 -21
c0 -8 -3 -15 -9 -21l-104 -97c-12 -12 -34 -12 -46 0l-102 97c-6 5 -9 12 -9 21s3 16 10 22c7 5 14 8 21 8c9 0 17 -3 23 -9z" />
    <glyph glyph-name="longs" unicode="&#x17f;" horiz-adv-x="284" 
d="M302 626c-14 6 -30 9 -49 9c-61 0 -91 -40 -91 -121v-483c4 -49 -84 -49 -80 0v492c0 124 57 187 158 187c37 0 69 -8 96 -23c15 -9 22 -19 22 -32c0 -19 -14 -34 -35 -34c-5 0 -12 2 -21 5z" />
    <glyph glyph-name="uni018F" unicode="&#x18f;" horiz-adv-x="766" 
d="M138 622c0 13 6 23 17 31c57 38 127 57 210 57c105 0 190 -32 255 -97c64 -65 96 -152 96 -261c0 -107 -31 -194 -94 -261s-148 -101 -253 -101c-100 0 -181 33 -242 100c-62 67 -93 155 -94 265c0 23 19 42 42 42h549c-17 145 -123 233 -278 233
c-55 0 -103 -12 -146 -37c-7 -5 -16 -7 -25 -7c-12 0 -22 5 -30 15c-5 7 -7 14 -7 21zM627 317h-504c3 -70 27 -129 71 -176s102 -71 174 -71c148 0 244 96 259 247z" />
    <glyph glyph-name="florin" unicode="&#x192;" horiz-adv-x="585" 
d="M160 450h118l13 73c24 131 72 187 169 187c39 0 74 -9 103 -27c13 -8 19 -18 19 -30c0 -6 -2 -12 -5 -17c-7 -11 -16 -17 -28 -17c-8 0 -16 2 -23 5c-18 7 -38 11 -61 11c-53 0 -78 -34 -94 -121l-12 -64h110c19 0 34 -16 34 -37c0 -23 -14 -38 -34 -38h-123l-72 -408
c-21 -116 -68 -175 -157 -175c-34 0 -62 6 -83 18c-13 7 -20 19 -20 34c0 6 1 11 4 16c7 11 16 16 27 16c5 0 14 -2 25 -5s20 -4 28 -4c56 0 84 36 96 108l71 400h-105c-20 0 -34 15 -34 38c0 21 15 37 34 37z" />
    <glyph glyph-name="uni01DD" unicode="&#x1dd;" horiz-adv-x="515" 
d="M393 190h-273c3 -80 52 -125 133 -125c77 0 133 52 140 125zM241 385c-41 0 -78 -9 -110 -27c-7 -4 -15 -6 -22 -6c-11 0 -20 5 -27 15c-3 5 -5 11 -5 16c0 13 6 23 19 32c43 30 93 45 151 45c144 0 231 -91 231 -235c0 -68 -20 -124 -61 -168c-41 -45 -97 -67 -168 -67
c-61 0 -111 19 -151 57c-41 38 -61 88 -61 149c0 11 0 20 1 26c1 16 19 33 36 33h314c-4 76 -60 130 -147 130z" />
    <glyph glyph-name="Scommaaccent" unicode="&#x218;" horiz-adv-x="526" 
d="M252 -10c-66 0 -131 27 -194 80c-8 7 -12 16 -12 28c0 9 3 18 9 25c8 10 18 15 31 15c9 0 16 -2 23 -7c55 -41 103 -61 144 -61c77 0 137 41 137 109c0 171 -342 116 -342 348c0 52 19 96 57 131s89 52 154 52c60 0 115 -16 164 -47c11 -7 16 -18 16 -32
c0 -9 -2 -16 -7 -21c-9 -13 -20 -19 -33 -19c-6 0 -14 2 -23 7c-35 21 -73 32 -112 32c-77 0 -126 -40 -126 -103c0 -173 342 -108 342 -347c0 -57 -22 -102 -65 -137c-44 -35 -98 -53 -163 -53zM218 -200c-10 0 -17 3 -20 10c-2 4 -3 8 -3 11c0 9 4 15 12 20
c18 12 27 30 27 53c0 8 -2 15 -5 22c-2 4 -3 8 -3 11c0 12 7 19 20 22l27 6c2 1 5 1 8 1c23 0 33 -26 33 -51c0 -52 -35 -87 -83 -103c-5 -1 -10 -2 -13 -2z" />
    <glyph glyph-name="scommaaccent" unicode="&#x219;" horiz-adv-x="410" 
d="M41 66c0 8 3 15 8 22c7 9 17 14 28 14c9 0 16 -2 23 -7c35 -23 69 -35 104 -35c45 0 80 23 80 62c0 90 -243 47 -243 211c0 77 62 127 153 127c46 0 89 -11 128 -34c11 -7 16 -16 16 -28c0 -7 -2 -13 -6 -19c-7 -11 -17 -16 -30 -16c-7 0 -14 2 -20 5
c-28 15 -56 22 -84 22c-44 0 -72 -25 -72 -56c0 -94 243 -51 243 -208c0 -89 -75 -136 -174 -136c-53 0 -100 16 -141 48c-9 7 -13 16 -13 28zM162 -200c-10 0 -17 3 -20 10c-2 4 -3 8 -3 11c0 9 4 15 12 20c18 12 27 30 27 53c0 8 -2 15 -5 22c-2 4 -3 8 -3 11
c0 12 7 19 20 22l27 6c2 1 5 1 8 1c23 0 33 -26 33 -51c0 -52 -35 -87 -83 -103c-5 -1 -10 -2 -13 -2z" />
    <glyph glyph-name="Tcommaaccent" unicode="&#x21a;" horiz-adv-x="595" 
d="M546 620h-206v-585c0 -23 -19 -42 -42 -42c-24 0 -43 19 -43 42v585h-206c-21 0 -39 19 -39 40s18 40 39 40h497c21 0 39 -19 39 -40s-18 -40 -39 -40zM254 -200c-10 0 -17 3 -20 10c-2 4 -3 8 -3 11c0 9 4 15 12 20c18 12 27 30 27 53c0 8 -2 15 -5 22c-2 4 -3 8 -3 11
c0 12 7 19 20 22l27 6c2 1 5 1 8 1c23 0 33 -26 33 -51c0 -52 -35 -87 -83 -103c-5 -1 -10 -2 -13 -2z" />
    <glyph glyph-name="tcommaaccent" unicode="&#x21b;" horiz-adv-x="344" 
d="M222 67c19 0 56 12 64 12c19 0 34 -13 34 -33c0 -13 -7 -23 -21 -32c-24 -15 -56 -22 -96 -22c-99 0 -141 60 -141 179v366c-4 49 84 49 80 0v-87h127c21 0 38 -17 38 -37c0 -21 -17 -38 -38 -38h-127v-196c0 -75 27 -112 80 -112zM141 -200c-10 0 -17 3 -20 10
c-2 4 -3 8 -3 11c0 9 4 15 12 20c18 12 27 30 27 53c0 8 -2 15 -5 22c-2 4 -3 8 -3 11c0 12 7 19 20 22l27 6c2 1 5 1 8 1c23 0 33 -26 33 -51c0 -52 -35 -87 -83 -103c-5 -1 -10 -2 -13 -2z" />
    <glyph glyph-name="uni0237" unicode="&#x237;" horiz-adv-x="283" 
d="M115 -27v444c-4 49 84 49 80 0v-450c0 -117 -47 -175 -141 -175c-27 0 -51 4 -70 11c-17 7 -26 18 -26 35c0 21 14 34 37 34c7 0 13 -1 17 -2c8 -2 16 -3 24 -3c53 0 79 35 79 106z" />
    <glyph glyph-name="uni0259" unicode="&#x259;" horiz-adv-x="515" 
d="M393 190h-273c3 -80 52 -125 133 -125c77 0 133 52 140 125zM241 385c-41 0 -78 -9 -110 -27c-7 -4 -15 -6 -22 -6c-11 0 -20 5 -27 15c-3 5 -5 11 -5 16c0 13 6 23 19 32c43 30 93 45 151 45c144 0 231 -91 231 -235c0 -68 -20 -124 -61 -168c-41 -45 -97 -67 -168 -67
c-61 0 -111 19 -151 57c-41 38 -61 88 -61 149c0 11 0 20 1 26c1 16 19 33 36 33h314c-4 76 -60 130 -147 130z" />
    <glyph glyph-name="afii57929" unicode="&#x2bc;" horiz-adv-x="221" 
d="M79 446c-7 0 -13 2 -18 7c-12 12 -12 26 0 38c19 21 28 48 28 80c0 13 -2 25 -7 37c-3 8 -4 13 -4 16c0 8 5 15 16 22l22 13c4 2 8 3 12 3c10 0 17 -4 22 -13c9 -17 14 -38 14 -61c0 -57 -21 -102 -64 -135c-6 -5 -13 -7 -21 -7z" />
    <glyph glyph-name="circumflex" unicode="&#x2c6;" horiz-adv-x="404" 
d="M283 546l-81 71l-81 -70c-7 -5 -14 -8 -21 -8c-8 0 -15 3 -22 10c-5 5 -8 12 -8 20c0 9 3 17 9 23l102 94c12 12 34 12 46 0l99 -94c7 -7 10 -14 10 -23c0 -8 -3 -15 -9 -21c-7 -7 -14 -10 -23 -10c-7 0 -14 3 -21 8z" />
    <glyph glyph-name="caron" unicode="&#x2c7;" horiz-adv-x="404" 
d="M121 689l82 -82l82 81c6 6 14 9 23 9c8 0 15 -3 20 -8c6 -5 9 -12 9 -21c0 -8 -3 -15 -9 -21l-104 -97c-12 -12 -34 -12 -46 0l-102 97c-6 5 -9 12 -9 21s3 16 10 22c7 5 14 8 21 8c9 0 17 -3 23 -9z" />
    <glyph glyph-name="breve" unicode="&#x2d8;" horiz-adv-x="415" 
d="M329 670c6 0 12 -2 18 -7c5 -5 8 -12 8 -19c0 -5 -2 -11 -7 -17c-41 -48 -87 -72 -140 -72s-99 24 -138 71c-4 5 -6 11 -6 18c0 8 3 15 9 20c7 5 13 8 19 8c8 0 16 -4 23 -11c27 -27 59 -41 96 -41c35 0 67 13 96 40c8 7 15 10 22 10z" />
    <glyph glyph-name="dotaccent" unicode="&#x2d9;" horiz-adv-x="221" 
d="M60 619c0 28 23 48 52 48c27 0 49 -20 49 -48c0 -32 -22 -52 -49 -52c-29 0 -52 20 -52 52z" />
    <glyph glyph-name="ring" unicode="&#x2da;" horiz-adv-x="350" 
d="M174 503c-64 0 -114 49 -114 110s50 111 114 111c65 0 116 -50 116 -111s-51 -110 -116 -110zM220 660c-36 42 -112 10 -108 -46c0 -37 27 -66 63 -66s63 29 63 66c0 18 -6 33 -18 46z" />
    <glyph glyph-name="ogonek" unicode="&#x2db;" horiz-adv-x="328" 
d="M259 17v-17h-15c-27 0 -51 -9 -72 -26s-32 -35 -32 -56c0 -37 31 -53 60 -53c8 0 15 1 22 3c5 1 9 2 12 2c14 0 23 -7 27 -21c1 -2 1 -5 1 -9c0 -12 -7 -22 -22 -29c-16 -7 -35 -11 -58 -11c-67 0 -122 28 -122 92c0 37 19 67 57 90c37 24 80 35 127 35h15z" />
    <glyph glyph-name="tilde" unicode="&#x2dc;" horiz-adv-x="442" 
d="M378 614c0 -9 -3 -15 -8 -20c-35 -30 -66 -45 -93 -45c-15 0 -35 7 -60 22c-25 14 -44 21 -59 21c-7 0 -24 -8 -49 -24c-7 -4 -14 -6 -20 -6c-7 0 -13 3 -19 9c-3 5 -5 9 -5 14c0 9 4 17 13 25c31 26 60 39 87 39c16 0 37 -7 62 -21s44 -21 57 -21c10 0 27 9 51 26
c5 4 10 6 17 6s14 -3 21 -10c3 -3 5 -8 5 -15z" />
    <glyph glyph-name="hungarumlaut" unicode="&#x2dd;" horiz-adv-x="448" 
d="M232 588l80 105c5 7 12 11 22 11c7 0 13 -2 18 -6l13 -9c7 -6 10 -13 10 -22c0 -7 -2 -13 -6 -18l-87 -96c-6 -7 -14 -11 -24 -11c-7 0 -13 2 -19 6c-8 6 -12 14 -12 24c0 5 2 11 5 16zM76 589l71 110c5 8 13 12 23 12c5 0 11 -2 16 -5l12 -9c7 -5 11 -13 11 -23
c0 -7 -2 -13 -5 -17l-79 -103c-5 -8 -12 -12 -23 -12c-7 0 -13 2 -18 6c-9 7 -13 15 -13 25c0 5 2 11 5 16z" />
    <glyph glyph-name="gravecomb" unicode="&#x300;" horiz-adv-x="0" 
d="M-309 695l71 -104c4 -5 6 -11 6 -18c0 -10 -4 -18 -13 -25c-5 -3 -10 -5 -17 -5c-12 0 -21 4 -28 12l-79 94c-5 5 -7 12 -7 20c0 9 4 17 11 23l13 10c5 4 11 6 18 6c10 0 18 -4 25 -13z" />
    <glyph glyph-name="acutecomb" unicode="&#x301;" horiz-adv-x="0" 
d="M-304 590l72 107c5 8 13 12 24 12c7 0 12 -2 17 -6l14 -10c7 -6 11 -14 11 -23c0 -8 -2 -14 -7 -19l-80 -97c-7 -8 -16 -12 -26 -12c-6 0 -12 2 -17 5c-9 6 -13 15 -13 26c0 6 2 12 5 17z" />
    <glyph glyph-name="uni0394" unicode="&#x394;" horiz-adv-x="696" 
d="M40 57l266 623c8 19 20 29 36 29c19 0 32 -10 41 -29l273 -623c3 -7 4 -12 4 -16c0 -23 -18 -41 -41 -41h-542c-23 0 -41 18 -41 41c0 4 1 9 4 16zM138 80h416l-212 484z" />
    <glyph glyph-name="uni0394" unicode="&#x2206;" horiz-adv-x="696" 
d="M40 57l266 623c8 19 20 29 36 29c19 0 32 -10 41 -29l273 -623c3 -7 4 -12 4 -16c0 -23 -18 -41 -41 -41h-542c-23 0 -41 18 -41 41c0 4 1 9 4 16zM138 80h416l-212 484z" />
    <glyph glyph-name="uni03A9" unicode="&#x3a9;" horiz-adv-x="816" 
d="M146 355c0 -56 16 -109 47 -158c31 -50 73 -86 126 -108c23 -10 35 -25 35 -46c0 -25 -16 -43 -41 -43h-206c-21 0 -39 19 -39 40s18 40 39 40h130c-49 17 -92 52 -127 105c-36 53 -54 115 -54 185c0 100 34 182 101 245s151 95 251 95c101 0 185 -31 252 -94
s100 -145 100 -246c0 -72 -18 -134 -54 -186c-36 -53 -79 -87 -128 -104h130c21 0 39 -19 39 -40s-18 -40 -39 -40h-207c-24 0 -40 17 -40 44c0 20 12 35 35 45c107 45 174 150 174 267c0 77 -24 142 -73 195s-112 79 -189 79c-79 0 -142 -26 -190 -79s-72 -119 -72 -196z
" />
    <glyph glyph-name="uni03A9" unicode="&#x2126;" horiz-adv-x="816" 
d="M146 355c0 -56 16 -109 47 -158c31 -50 73 -86 126 -108c23 -10 35 -25 35 -46c0 -25 -16 -43 -41 -43h-206c-21 0 -39 19 -39 40s18 40 39 40h130c-49 17 -92 52 -127 105c-36 53 -54 115 -54 185c0 100 34 182 101 245s151 95 251 95c101 0 185 -31 252 -94
s100 -145 100 -246c0 -72 -18 -134 -54 -186c-36 -53 -79 -87 -128 -104h130c21 0 39 -19 39 -40s-18 -40 -39 -40h-207c-24 0 -40 17 -40 44c0 20 12 35 35 45c107 45 174 150 174 267c0 77 -24 142 -73 195s-112 79 -189 79c-79 0 -142 -26 -190 -79s-72 -119 -72 -196z
" />
    <glyph glyph-name="pi" unicode="&#x3c0;" horiz-adv-x="623" 
d="M403 120v255h-192v-61c0 -155 -37 -241 -74 -282c-27 -30 -50 -39 -70 -39c-27 0 -43 15 -43 38c0 18 10 31 29 40c52 23 78 99 78 228v76h-59c-19 0 -35 17 -35 38s16 37 35 37h466c19 0 35 -16 35 -37s-16 -38 -35 -38h-55v-219c0 -61 16 -89 53 -89c12 0 38 5 45 5
c16 0 33 -11 33 -32c0 -31 -31 -47 -94 -47c-78 0 -117 42 -117 127z" />
    <glyph glyph-name="afii10023" unicode="&#x401;" horiz-adv-x="575" 
d="M190 314v-234h281c21 0 39 -19 39 -40s-18 -40 -39 -40h-324c-23 0 -42 19 -42 42v616c0 23 19 42 42 42h314c21 0 39 -19 39 -40s-18 -40 -39 -40h-271v-226h241c21 0 39 -19 39 -40s-18 -40 -39 -40h-241zM139 813c0 27 24 45 55 45c28 0 52 -18 52 -45
c0 -29 -24 -48 -52 -48c-32 0 -55 19 -55 48zM371 813c0 27 25 45 56 45c28 0 51 -17 51 -45c0 -29 -23 -48 -51 -48c-32 0 -56 19 -56 48z" />
    <glyph glyph-name="afii10051" unicode="&#x402;" horiz-adv-x="762" 
d="M546 620h-206v-247c50 33 104 50 163 50c139 0 209 -73 209 -219c0 -144 -66 -214 -174 -214c-27 0 -55 5 -82 15c-17 6 -26 17 -26 34c0 5 1 10 3 16c7 16 19 24 36 24c3 0 8 -1 15 -2c17 -5 32 -7 44 -7c66 0 99 44 99 132c0 94 -47 141 -140 141
c-44 0 -89 -15 -108 -25c-9 -5 -22 -13 -39 -23v-260c0 -23 -19 -42 -42 -42c-24 0 -43 19 -43 42v585h-206c-21 0 -39 19 -39 40s18 40 39 40h497c21 0 39 -19 39 -40s-18 -40 -39 -40z" />
    <glyph glyph-name="afii10052" unicode="&#x403;" horiz-adv-x="505" 
d="M456 620h-266v-585c0 -23 -19 -42 -42 -42c-24 0 -43 19 -43 42v623c0 23 19 42 42 42h309c21 0 39 -19 39 -40s-18 -40 -39 -40zM282 796l147 78c4 2 8 3 12 3c11 0 18 -5 23 -15l8 -18c1 -3 2 -6 2 -11c0 -12 -5 -20 -16 -24l-152 -64c-4 -1 -7 -2 -10 -2
c-12 0 -21 5 -26 15c-2 4 -3 8 -3 13c0 11 5 20 15 25z" />
    <glyph glyph-name="afii10053" unicode="&#x404;" horiz-adv-x="665" 
d="M618 629c0 -7 -2 -14 -7 -21c-8 -12 -18 -18 -31 -18c-8 0 -15 2 -21 5c-46 23 -94 35 -144 35c-153 0 -258 -90 -277 -233h306c21 0 39 -19 39 -40s-18 -40 -39 -40h-308c7 -77 37 -138 90 -181c53 -44 117 -66 194 -66c59 0 110 13 153 40c7 4 15 6 22 6
c13 0 24 -6 33 -18c4 -6 6 -13 6 -21c0 -14 -5 -24 -15 -30c-57 -38 -125 -57 -206 -57c-109 0 -197 33 -263 98c-67 65 -100 153 -100 262c0 106 33 193 98 260s149 100 253 100c70 0 134 -15 193 -46c16 -9 24 -20 24 -35z" />
    <glyph glyph-name="afii10054" unicode="&#x405;" horiz-adv-x="526" 
d="M252 -10c-66 0 -131 27 -194 80c-8 7 -12 16 -12 28c0 9 3 18 9 25c8 10 18 15 31 15c9 0 16 -2 23 -7c55 -41 103 -61 144 -61c77 0 137 41 137 109c0 171 -342 116 -342 348c0 52 19 96 57 131s89 52 154 52c60 0 115 -16 164 -47c11 -7 16 -18 16 -32
c0 -9 -2 -16 -7 -21c-9 -13 -20 -19 -33 -19c-6 0 -14 2 -23 7c-35 21 -73 32 -112 32c-77 0 -126 -40 -126 -103c0 -173 342 -108 342 -347c0 -57 -22 -102 -65 -137c-44 -35 -98 -53 -163 -53z" />
    <glyph glyph-name="afii10055" unicode="&#x406;" horiz-adv-x="335" 
d="M125 35v629c0 23 19 41 43 41c23 0 42 -18 42 -41v-629c0 -23 -19 -42 -42 -42c-24 0 -43 19 -43 42z" />
    <glyph glyph-name="afii10056" unicode="&#x407;" horiz-adv-x="336" 
d="M91 765c-27 0 -48 19 -48 48c0 27 21 45 48 45c25 0 46 -18 46 -45c0 -29 -21 -48 -46 -48zM247 765c-27 0 -48 19 -48 48c0 27 21 45 48 45c25 0 46 -18 46 -45c0 -29 -21 -48 -46 -48zM125 35v629c0 23 19 41 43 41c23 0 42 -18 42 -41v-629c0 -23 -19 -42 -42 -42
c-24 0 -43 19 -43 42z" />
    <glyph glyph-name="afii10057" unicode="&#x408;" horiz-adv-x="369" 
d="M64 77c15 -5 27 -7 36 -7c53 0 79 34 79 103v491c0 23 19 41 43 41c23 0 42 -18 42 -41v-505c0 -113 -51 -169 -153 -169c-25 0 -51 6 -78 17c-14 7 -21 18 -21 34c0 6 1 11 3 16c7 15 19 23 34 23c5 0 10 -1 15 -3z" />
    <glyph glyph-name="afii10058" unicode="&#x409;" horiz-adv-x="1025" 
d="M623 359v-278c54 -2 82 -3 84 -3c119 0 178 50 178 149c0 89 -62 138 -175 138c-23 0 -52 -2 -87 -6zM194 560l7 98c3 24 21 42 45 42h335c23 0 42 -19 42 -42v-218c42 3 73 5 93 5c172 0 259 -80 259 -216c0 -147 -103 -231 -278 -231c-33 0 -72 1 -117 2
c-24 0 -42 19 -42 42v578h-254l-12 -132c-24 -257 -68 -403 -120 -455c-26 -27 -58 -40 -95 -40c-10 0 -17 0 -22 1c-23 3 -39 18 -39 41v6c3 25 18 37 43 37h6h4c27 0 62 28 94 136c20 68 40 191 51 346z" />
    <glyph glyph-name="afii10059" unicode="&#x40a;" horiz-adv-x="1052" 
d="M565 37v304h-375v-306c0 -23 -19 -42 -42 -42c-24 0 -43 19 -43 42v629c0 23 19 41 43 41c23 0 42 -18 42 -41v-243h375v243c0 23 19 41 43 41c23 0 42 -18 42 -41v-239c42 3 73 5 93 5c172 0 259 -78 259 -209c0 -140 -103 -223 -278 -223c-17 0 -38 0 -65 1
s-47 1 -59 1c-23 0 -35 17 -35 37zM650 344v-263c54 -2 82 -3 84 -3c116 0 178 49 178 142c0 83 -62 130 -175 130c-23 0 -52 -2 -87 -6z" />
    <glyph glyph-name="afii10060" unicode="&#x40b;" horiz-adv-x="762" 
d="M340 295v-260c0 -23 -19 -42 -42 -42c-24 0 -43 19 -43 42v585h-206c-21 0 -39 19 -39 40s18 40 39 40h497c21 0 39 -19 39 -40s-18 -40 -39 -40h-206v-247c47 33 103 50 168 50c120 0 204 -71 204 -224v-164c0 -23 -19 -42 -42 -42c-24 0 -43 19 -43 42v142
c0 111 -47 166 -142 166c-48 0 -96 -16 -145 -48z" />
    <glyph glyph-name="afii10061" unicode="&#x40c;" horiz-adv-x="635" 
d="M510 16l-276 318c-7 9 -11 19 -11 30c0 12 4 23 12 32l262 287c13 15 26 22 39 22c21 0 37 -15 37 -34c0 -12 -5 -23 -15 -33l-253 -267l271 -306c10 -11 15 -22 15 -35c0 -21 -16 -37 -39 -37c-15 0 -29 8 -42 23zM105 35v629c0 23 19 41 43 41c23 0 42 -18 42 -41v-629
c0 -23 -19 -42 -42 -42c-24 0 -43 19 -43 42zM312 796l147 78c4 2 8 3 12 3c11 0 18 -5 23 -15l8 -18c1 -3 2 -6 2 -11c0 -12 -5 -20 -16 -24l-152 -64c-4 -1 -7 -2 -10 -2c-12 0 -21 5 -26 15c-2 4 -3 8 -3 13c0 11 5 20 15 25z" />
    <glyph glyph-name="afii10062" unicode="&#x40e;" horiz-adv-x="652" 
d="M31 666c0 21 15 39 40 39c17 0 31 -10 44 -31l246 -413l180 411c10 22 23 33 40 33c25 0 40 -16 40 -36c0 -7 -1 -14 -4 -19l-220 -490c-49 -111 -99 -160 -174 -160c-19 0 -37 3 -53 8s-32 20 -32 40c0 5 2 11 5 19c7 14 18 21 33 21c7 0 12 -1 16 -3c10 -4 20 -6 30 -6
c35 0 63 24 86 71l12 26l-282 466c-5 7 -7 15 -7 24zM479 869c2 0 6 -1 11 -2c16 -7 24 -17 24 -31c0 -7 -1 -13 -4 -19c-9 -23 -31 -43 -64 -58c-34 -16 -71 -24 -112 -24c-91 0 -162 31 -179 82c-2 6 -3 12 -3 17c0 18 7 29 22 33c3 1 8 2 14 2c19 0 29 -12 48 -40
c17 -23 49 -34 98 -34s83 14 102 42c15 21 30 32 43 32z" />
    <glyph glyph-name="afii10145" unicode="&#x40f;" horiz-adv-x="750" 
d="M603 0h-189v-116c0 -21 -19 -39 -40 -39s-40 18 -40 39v116h-187c-23 0 -42 19 -42 42v622c0 23 19 41 43 41c23 0 42 -18 42 -41v-584h370v584c0 23 19 41 43 41c23 0 42 -18 42 -41v-622c0 -23 -19 -42 -42 -42z" />
    <glyph glyph-name="afii10017" unicode="&#x410;" horiz-adv-x="685" 
d="M581 21l-81 191h-319l-80 -191c-7 -19 -20 -28 -38 -28c-25 0 -40 18 -40 39c0 4 1 10 4 18l268 621c10 23 26 34 49 34s39 -11 48 -34l267 -618c2 -6 3 -12 3 -17c0 -23 -16 -43 -41 -43c-19 0 -32 9 -40 28zM215 292h252l-126 299z" />
    <glyph glyph-name="afii10018" unicode="&#x411;" horiz-adv-x="612" 
d="M462 620h-272v-201c35 4 71 6 107 6c155 0 245 -78 245 -206c0 -144 -100 -223 -269 -223c-16 0 -58 1 -126 3c-24 1 -42 20 -42 43v616c0 23 19 42 42 42h315c21 0 39 -19 39 -40s-18 -40 -39 -40zM190 339v-259c41 -3 73 -4 96 -4c113 0 171 50 171 137
c0 81 -57 132 -165 132c-31 0 -65 -2 -102 -6z" />
    <glyph glyph-name="afii10019" unicode="&#x412;" horiz-adv-x="617" 
d="M297 703c157 0 225 -68 225 -173c0 -84 -48 -138 -120 -163c89 -16 145 -74 145 -167c0 -136 -101 -203 -254 -203c-40 0 -89 1 -146 2c-23 1 -42 20 -42 43v615c0 23 19 43 42 43c86 2 136 3 150 3zM303 319h-113v-238c31 -3 67 -4 108 -4c105 0 164 44 164 128
c0 73 -58 114 -159 114zM190 620v-226h112c77 0 135 44 135 117c0 75 -47 112 -142 112c-20 0 -55 -1 -105 -3z" />
    <glyph glyph-name="afii10020" unicode="&#x413;" horiz-adv-x="505" 
d="M456 620h-266v-585c0 -23 -19 -42 -42 -42c-24 0 -43 19 -43 42v623c0 23 19 42 42 42h309c21 0 39 -19 39 -40s-18 -40 -39 -40z" />
    <glyph glyph-name="afii10021" unicode="&#x414;" horiz-adv-x="749" 
d="M639 -91v91h-544v-91c0 -21 -19 -39 -40 -39s-40 18 -40 39v129c0 23 19 42 42 42h33c21 27 44 81 69 164c24 82 39 187 46 316l5 98c1 24 20 42 44 42h328c23 0 42 -19 42 -42v-578h53c23 0 42 -19 42 -42v-129c0 -21 -19 -39 -40 -39s-40 18 -40 39zM184 80h355v540
h-245l-9 -125c-7 -107 -22 -197 -43 -271c-21 -75 -41 -123 -58 -144z" />
    <glyph glyph-name="afii10022" unicode="&#x415;" horiz-adv-x="575" 
d="M190 314v-234h281c21 0 39 -19 39 -40s-18 -40 -39 -40h-324c-23 0 -42 19 -42 42v616c0 23 19 42 42 42h314c21 0 39 -19 39 -40s-18 -40 -39 -40h-271v-226h241c21 0 39 -19 39 -40s-18 -40 -39 -40h-241z" />
    <glyph glyph-name="afii10024" unicode="&#x416;" horiz-adv-x="903" 
d="M605 366l248 -308c22 -28 8 -65 -25 -65c-19 0 -27 7 -47 31l-250 317c-11 15 -11 34 0 47l242 293c13 16 26 24 40 24c21 0 37 -15 37 -35c0 -9 -3 -18 -10 -27zM409 35v629c0 23 19 41 43 41c23 0 42 -18 42 -41v-629c0 -23 -19 -42 -42 -42c-24 0 -43 19 -43 42z
M134 677l239 -289c11 -13 11 -32 0 -47l-250 -317c-16 -21 -31 -31 -46 -31c-35 0 -49 35 -27 64l249 308l-233 275c-24 28 -8 65 25 65c14 0 28 -9 43 -28z" />
    <glyph glyph-name="afii10025" unicode="&#x417;" horiz-adv-x="563" 
d="M72 637c59 49 123 73 191 73c123 0 203 -69 203 -186c0 -63 -36 -126 -101 -161c83 -17 128 -84 128 -167c0 -63 -23 -113 -69 -150c-47 -37 -103 -56 -170 -56c-73 0 -141 27 -204 80c-9 8 -14 19 -14 32c0 8 3 16 8 23c8 10 18 15 31 15c9 0 18 -3 25 -8
c57 -41 106 -62 149 -62c95 0 159 50 159 134c0 69 -50 114 -137 114h-42c-21 0 -39 18 -39 41c0 21 17 39 37 39h38c31 0 58 11 81 34c23 22 35 50 35 84c0 73 -52 114 -127 114c-46 0 -91 -17 -136 -51c-8 -6 -17 -9 -27 -9c-11 0 -20 4 -27 12c-6 7 -9 15 -9 23
c0 11 6 22 17 32z" />
    <glyph glyph-name="afii10026" unicode="&#x418;" horiz-adv-x="795" 
d="M690 660v-625c0 -23 -19 -42 -42 -42c-24 0 -43 19 -43 42v524l-407 -535c-15 -21 -32 -31 -50 -31c-29 0 -43 15 -43 46v625c0 23 19 41 43 41c23 0 42 -18 42 -41v-524l407 535c15 20 31 30 48 30c28 0 45 -17 45 -45z" />
    <glyph glyph-name="afii10027" unicode="&#x419;" horiz-adv-x="795" 
d="M690 660v-625c0 -23 -19 -42 -42 -42c-24 0 -43 19 -43 42v524l-407 -535c-15 -21 -32 -31 -50 -31c-29 0 -43 15 -43 46v625c0 23 19 41 43 41c23 0 42 -18 42 -41v-524l407 535c15 20 31 30 48 30c28 0 45 -17 45 -45zM549 869c2 0 6 -1 11 -2c16 -7 24 -17 24 -31
c0 -7 -1 -13 -4 -19c-9 -23 -31 -43 -64 -58c-34 -16 -71 -24 -112 -24c-91 0 -162 31 -179 82c-2 6 -3 12 -3 17c0 18 7 29 22 33c3 1 8 2 14 2c19 0 29 -12 48 -40c17 -23 50 -34 98 -34c49 0 83 14 102 42c15 21 30 32 43 32z" />
    <glyph glyph-name="afii10028" unicode="&#x41a;" horiz-adv-x="635" 
d="M510 16l-276 318c-7 9 -11 19 -11 30c0 12 4 23 12 32l262 287c13 15 26 22 39 22c21 0 37 -15 37 -34c0 -12 -5 -23 -15 -33l-253 -267l271 -306c10 -11 15 -22 15 -35c0 -21 -16 -37 -39 -37c-15 0 -29 8 -42 23zM105 35v629c0 23 19 41 43 41c23 0 42 -18 42 -41v-629
c0 -23 -19 -42 -42 -42c-24 0 -43 19 -43 42z" />
    <glyph glyph-name="afii10029" unicode="&#x41b;" horiz-adv-x="728" 
d="M623 659v-625c0 -23 -19 -41 -42 -41c-24 0 -43 18 -43 41v586h-254l-12 -132c-24 -257 -68 -403 -120 -455c-26 -27 -58 -40 -95 -40c-10 0 -17 0 -22 1c-23 3 -39 18 -39 41v6c3 25 18 37 43 37h6h4c27 0 62 28 94 136c20 68 40 191 51 346l7 99c3 23 21 41 44 41h337
c21 0 41 -18 41 -41z" />
    <glyph glyph-name="afii10030" unicode="&#x41c;" horiz-adv-x="892" 
d="M702 35v532l-210 -296c-27 -36 -63 -36 -90 0l-212 290v-526c0 -23 -19 -42 -42 -42c-24 0 -43 19 -43 42v616c0 32 20 54 49 54c21 0 40 -11 55 -32l245 -332l235 335c13 19 29 29 49 29c31 0 49 -23 49 -48v-622c0 -23 -19 -42 -42 -42c-24 0 -43 19 -43 42z" />
    <glyph glyph-name="afii10031" unicode="&#x41d;" horiz-adv-x="765" 
d="M575 397v267c0 23 19 41 43 41c23 0 42 -18 42 -41v-629c0 -23 -19 -42 -42 -42c-24 0 -43 19 -43 42v282h-385v-282c0 -23 -19 -42 -42 -42c-24 0 -43 19 -43 42v629c0 23 19 41 43 41c23 0 42 -18 42 -41v-267h385z" />
    <glyph glyph-name="afii10032" unicode="&#x41e;" horiz-adv-x="814" 
d="M407 -10c-103 0 -188 34 -255 101c-68 67 -102 154 -102 259c0 102 34 188 101 257s153 103 256 103s188 -34 256 -101c67 -67 101 -154 101 -259c0 -103 -34 -189 -102 -257c-68 -69 -153 -103 -255 -103zM407 630c-77 0 -140 -26 -191 -79s-76 -120 -76 -201
c0 -79 26 -146 77 -199c51 -54 115 -81 190 -81c79 0 143 27 193 80c49 53 74 120 74 200c0 81 -26 148 -77 201s-115 79 -190 79z" />
    <glyph glyph-name="afii10033" unicode="&#x41f;" horiz-adv-x="760" 
d="M147 700h466c23 0 42 -19 42 -42v-623c0 -23 -19 -42 -42 -42c-24 0 -43 19 -43 42v585h-380v-585c0 -23 -19 -42 -42 -42c-24 0 -43 19 -43 42v623c0 23 19 42 42 42z" />
    <glyph glyph-name="afii10034" unicode="&#x420;" horiz-adv-x="597" 
d="M147 700c61 1 108 2 141 2c92 0 158 -20 199 -61c40 -41 60 -93 60 -156c0 -61 -22 -113 -65 -156c-44 -43 -106 -64 -187 -64c-39 0 -74 1 -105 4v-234c0 -23 -19 -42 -42 -42c-24 0 -43 19 -43 42v623c0 23 19 42 42 42zM190 620v-270c38 -3 72 -5 102 -5
c103 0 165 53 165 141c0 85 -53 136 -161 136c-27 0 -62 -1 -106 -2z" />
    <glyph glyph-name="afii10035" unicode="&#x421;" horiz-adv-x="646" 
d="M566 592c-8 0 -16 2 -24 6c-39 21 -87 32 -142 32c-76 0 -138 -26 -187 -78s-73 -119 -73 -202s25 -151 76 -202c50 -52 116 -78 197 -78c54 0 102 13 145 39c7 5 16 7 25 7c13 0 23 -5 30 -14c5 -5 7 -12 7 -20c0 -13 -6 -25 -19 -34c-55 -39 -120 -58 -196 -58
c-105 0 -191 33 -256 99c-66 65 -99 152 -99 261c0 103 32 189 95 258c63 68 147 102 254 102c71 0 133 -16 184 -47c14 -9 21 -21 21 -34c0 -7 -2 -13 -6 -19c-7 -12 -18 -18 -32 -18z" />
    <glyph glyph-name="afii10036" unicode="&#x422;" horiz-adv-x="595" 
d="M546 620h-206v-585c0 -23 -19 -42 -42 -42c-24 0 -43 19 -43 42v585h-206c-21 0 -39 19 -39 40s18 40 39 40h497c21 0 39 -19 39 -40s-18 -40 -39 -40z" />
    <glyph glyph-name="afii10037" unicode="&#x423;" horiz-adv-x="652" 
d="M31 666c0 21 15 39 40 39c17 0 31 -10 44 -31l246 -413l180 411c10 22 23 33 40 33c25 0 40 -16 40 -36c0 -7 -1 -14 -4 -19l-220 -490c-49 -111 -99 -160 -174 -160c-19 0 -37 3 -53 8s-32 20 -32 40c0 5 2 11 5 19c7 14 18 21 33 21c7 0 12 -1 16 -3c10 -4 20 -6 30 -6
c35 0 63 24 86 71l12 26l-282 466c-5 7 -7 15 -7 24z" />
    <glyph glyph-name="afii10038" unicode="&#x424;" horiz-adv-x="834" 
d="M458 667v-31c103 -1 184 -25 245 -74s91 -116 91 -202c0 -87 -31 -154 -92 -203s-142 -73 -243 -73v-51c0 -21 -20 -41 -43 -41c-24 0 -43 18 -43 41v51c-101 0 -181 24 -242 73s-91 116 -91 203s30 154 90 203c60 48 141 72 243 73v31c0 23 19 41 43 41
c23 0 42 -18 42 -41zM459 557v-395c153 0 245 69 245 198c0 124 -90 197 -245 197zM373 162v395c-152 0 -243 -74 -243 -197c0 -128 92 -198 243 -198z" />
    <glyph glyph-name="afii10039" unicode="&#x425;" horiz-adv-x="633" 
d="M51 665c0 23 16 40 41 40c14 0 28 -10 42 -30l185 -255l182 255c13 20 29 30 46 30c23 0 39 -17 39 -38c0 -9 -3 -17 -9 -26l-205 -285l216 -300c5 -5 7 -13 7 -22c0 -21 -16 -41 -39 -41c-15 0 -29 8 -41 25l-199 273l-197 -273c-12 -17 -26 -25 -42 -25
c-23 0 -39 19 -39 40c0 9 3 18 9 26l215 297l-203 283c-5 7 -8 16 -8 26z" />
    <glyph glyph-name="afii10040" unicode="&#x426;" horiz-adv-x="775" 
d="M745 38v-129c0 -21 -19 -39 -40 -39s-40 18 -40 39v91h-518c-23 0 -42 19 -42 42v622c0 23 19 41 43 41c23 0 42 -18 42 -41v-584h375v584c0 23 19 41 43 41c23 0 42 -18 42 -41v-584h53c23 0 42 -19 42 -42z" />
    <glyph glyph-name="afii10041" unicode="&#x427;" horiz-adv-x="650" 
d="M150 664v-166c0 -115 56 -166 147 -166c57 0 111 18 163 53v279c0 23 19 41 43 41c23 0 42 -18 42 -41v-629c0 -23 -19 -42 -42 -42c-24 0 -43 19 -43 42v271c-50 -36 -112 -54 -185 -54c-123 0 -210 70 -210 223v189c0 23 19 41 43 41c23 0 42 -18 42 -41z" />
    <glyph glyph-name="afii10042" unicode="&#x428;" horiz-adv-x="995" 
d="M805 80v584c0 23 19 41 43 41c23 0 42 -18 42 -41v-622c0 -23 -19 -42 -42 -42h-701c-23 0 -42 19 -42 42v622c0 23 19 41 43 41c23 0 42 -18 42 -41v-584h265v584c0 23 19 41 43 41c23 0 42 -18 42 -41v-584h265z" />
    <glyph glyph-name="afii10043" unicode="&#x429;" horiz-adv-x="1015" 
d="M985 38v-129c0 -21 -19 -39 -40 -39s-40 18 -40 39v91h-758c-23 0 -42 19 -42 42v622c0 23 19 41 43 41c23 0 42 -18 42 -41v-584h265v584c0 23 19 41 43 41c23 0 42 -18 42 -41v-584h265v584c0 23 19 41 43 41c23 0 42 -18 42 -41v-584h53c23 0 42 -19 42 -42z" />
    <glyph glyph-name="afii10044" unicode="&#x42a;" horiz-adv-x="669" 
d="M619 229c0 -147 -104 -231 -283 -231c-33 0 -74 1 -122 2c-24 0 -42 19 -42 42v578h-128c-21 0 -39 19 -39 40s18 40 39 40h171c23 0 42 -19 42 -42v-218c42 3 75 5 98 5c176 0 264 -80 264 -216zM257 359v-278c54 -2 84 -3 89 -3c117 0 183 50 183 149
c0 89 -65 138 -180 138c-27 0 -57 -2 -92 -6z" />
    <glyph glyph-name="afii10045" unicode="&#x42b;" horiz-adv-x="845" 
d="M655 35v629c0 23 19 41 43 41c23 0 42 -18 42 -41v-629c0 -23 -19 -42 -42 -42c-24 0 -43 19 -43 42zM190 359v-278c54 -2 82 -3 84 -3c119 0 178 50 178 149c0 89 -62 138 -175 138c-23 0 -52 -2 -87 -6zM264 -2c-33 0 -72 1 -117 2c-24 0 -42 19 -42 42v622
c0 23 19 41 43 41c23 0 42 -18 42 -41v-224c42 3 73 5 93 5c172 0 259 -80 259 -216c0 -147 -103 -231 -278 -231z" />
    <glyph glyph-name="afii10046" unicode="&#x42c;" horiz-adv-x="602" 
d="M190 359v-278c54 -2 84 -3 89 -3c117 0 183 50 183 149c0 89 -65 138 -180 138c-26 0 -57 -2 -92 -6zM269 -2c-33 0 -74 1 -122 2c-24 0 -42 19 -42 42v622c0 23 19 41 43 41c23 0 42 -18 42 -41v-224c42 3 75 5 98 5c176 0 264 -80 264 -216c0 -147 -104 -231 -283 -231
z" />
    <glyph glyph-name="afii10047" unicode="&#x42d;" horiz-adv-x="665" 
d="M30 73c0 8 2 15 6 21c8 12 19 18 32 18c9 0 16 -2 22 -5c53 -25 107 -37 164 -37c75 0 137 22 188 67c50 44 79 104 86 180h-308c-21 0 -39 19 -39 40s18 40 39 40h307c-17 145 -126 233 -283 233c-39 0 -87 -13 -144 -38c-5 -3 -11 -4 -18 -4c-15 0 -26 6 -33 18
c-3 5 -5 12 -5 19c0 15 6 26 19 33c64 35 131 52 201 52c105 0 189 -33 254 -98s97 -152 97 -260c0 -107 -33 -194 -98 -261s-152 -101 -261 -101c-79 0 -148 16 -207 48c-13 8 -19 20 -19 35z" />
    <glyph glyph-name="afii10048" unicode="&#x42e;" horiz-adv-x="1078" 
d="M340 317h-150v-282c0 -23 -19 -42 -42 -42c-24 0 -43 19 -43 42v629c0 23 19 41 43 41c23 0 42 -18 42 -41v-267h151c10 91 46 166 109 225c62 59 139 88 231 88c102 0 185 -33 250 -100s97 -154 97 -260c0 -104 -32 -190 -97 -258s-149 -102 -250 -102
c-92 0 -170 30 -234 91c-65 61 -100 139 -107 236zM683 630c-73 0 -134 -26 -182 -79s-72 -120 -72 -201c0 -79 24 -146 73 -199c48 -54 108 -81 181 -81c79 0 141 26 187 79c45 53 68 120 68 201c0 82 -24 149 -71 202c-47 52 -109 78 -184 78z" />
    <glyph glyph-name="afii10049" unicode="&#x42f;" horiz-adv-x="608" 
d="M339 703c11 0 30 0 59 -1c28 -1 49 -1 63 -1c24 -1 42 -20 42 -43v-623c0 -23 -19 -42 -42 -42c-24 0 -43 19 -43 42v225h-131l-169 -242c-11 -17 -25 -25 -42 -25c-23 0 -37 16 -37 36c0 9 3 18 9 26l156 220c-79 32 -138 103 -138 196c0 67 23 123 69 167
c46 43 114 65 204 65zM277 340h141v280c-46 2 -78 3 -95 3c-105 0 -167 -60 -167 -147c0 -71 56 -125 121 -136z" />
    <glyph glyph-name="afii10065" unicode="&#x430;" horiz-adv-x="460" 
d="M40 132c0 89 70 143 170 143c48 0 85 -10 112 -29c0 96 -19 142 -102 142c-29 0 -59 -6 -90 -18c-5 -2 -10 -3 -15 -3c-15 0 -25 7 -31 20c-2 5 -3 9 -3 14c0 16 7 27 20 32c43 18 85 27 124 27c124 0 173 -61 173 -184v-248c0 -19 -17 -35 -38 -35s-38 16 -38 35v30
c-35 -43 -83 -65 -144 -65c-83 0 -138 54 -138 139zM322 123v57c-28 20 -62 30 -101 30c-53 0 -96 -26 -96 -74c0 -44 30 -71 81 -71c45 0 83 19 116 58z" />
    <glyph glyph-name="afii10066" unicode="&#x431;" horiz-adv-x="549" 
d="M509 221c0 -64 -22 -118 -65 -163s-99 -68 -166 -68c-147 0 -238 107 -238 280c0 195 56 316 167 363c29 13 63 22 103 29s68 15 83 24c13 9 26 14 37 14s20 -5 27 -14c6 -7 9 -15 9 -24c0 -12 -5 -22 -14 -30c-23 -21 -59 -36 -108 -45s-86 -19 -110 -30
c-69 -31 -106 -104 -113 -217c29 63 103 105 179 105c128 0 209 -88 209 -224zM125 255c0 -115 62 -190 151 -190c43 0 79 15 107 44c27 29 41 65 41 108c0 91 -53 153 -144 153c-80 0 -140 -52 -155 -115z" />
    <glyph glyph-name="afii10067" unicode="&#x432;" horiz-adv-x="494" 
d="M429 338c0 -53 -37 -95 -90 -104c70 -13 105 -49 105 -107c0 -87 -69 -131 -207 -131c-7 0 -49 1 -127 3c-21 1 -38 19 -38 40v372c0 21 17 39 38 40c72 2 114 3 125 3c129 0 194 -39 194 -116zM248 202h-96v-138c48 -2 79 -3 92 -3c77 0 115 24 115 72
c0 46 -37 69 -111 69zM152 386v-134h101c55 0 91 27 91 70c0 45 -34 67 -103 67c-19 0 -49 -1 -89 -3z" />
    <glyph glyph-name="afii10068" unicode="&#x433;" horiz-adv-x="362" 
d="M319 375h-167v-344c4 -49 -84 -49 -80 0v381c0 21 17 38 38 38h209c21 0 38 -17 38 -37c0 -21 -17 -38 -38 -38z" />
    <glyph glyph-name="afii10069" unicode="&#x434;" horiz-adv-x="534" 
d="M449 0h-364v-72c0 -21 -17 -38 -37 -38c-21 0 -38 17 -38 38v109c0 21 17 38 38 38h18c32 40 61 139 69 256l5 81c1 21 19 38 40 38h231c21 0 38 -17 38 -38v-337h37c21 0 38 -17 38 -38v-109c0 -21 -17 -38 -37 -38c-21 0 -38 17 -38 38v72zM151 75h218v300h-152l-5 -75
c-9 -105 -37 -193 -61 -225z" />
    <glyph glyph-name="afii10070" unicode="&#x435;" horiz-adv-x="525" 
d="M127 265h273c-4 75 -53 120 -130 120c-80 0 -134 -49 -143 -120zM483 254c0 -10 0 -17 -1 -22c-1 -16 -18 -32 -34 -32h-316c7 -84 68 -135 157 -135c42 0 79 9 110 27c7 4 15 6 22 6c10 0 19 -4 27 -13c4 -5 6 -11 6 -18c0 -13 -4 -22 -12 -27
c-47 -33 -100 -50 -159 -50c-73 0 -131 21 -175 64s-66 100 -66 171c0 68 21 124 62 169c41 44 98 66 170 66c59 0 109 -19 149 -57c40 -39 60 -88 60 -149z" />
    <glyph glyph-name="afii10072" unicode="&#x436;" horiz-adv-x="651" 
d="M540 15l-134 187c-13 20 -13 42 0 62l120 169c10 15 22 22 37 22c25 0 41 -17 41 -38c0 -10 -3 -18 -8 -24l-121 -160l133 -176c6 -8 9 -17 9 -26c0 -21 -15 -38 -38 -38c-16 0 -29 7 -39 22zM242 202l-132 -187c-10 -15 -23 -22 -38 -22c-24 0 -38 18 -38 38
c0 9 3 18 8 25l131 177l-120 160c-5 7 -8 15 -8 23c0 21 16 39 41 39c15 0 27 -7 37 -22l119 -169c13 -17 13 -45 0 -62zM364 417v-386c4 -49 -84 -49 -80 0v386c-4 49 84 49 80 0z" />
    <glyph glyph-name="afii10073" unicode="&#x437;" horiz-adv-x="448" 
d="M214 460c108 0 169 -46 169 -121c0 -52 -26 -88 -79 -107c60 -8 94 -52 94 -107c0 -83 -78 -135 -191 -135c-63 0 -114 14 -155 41c-11 8 -17 18 -17 31c0 6 2 13 7 21c7 11 17 16 30 16c7 0 14 -2 21 -6c36 -21 70 -31 102 -31c69 0 118 30 118 74c0 37 -33 58 -88 58
h-42c-19 0 -34 14 -34 33c0 17 15 32 34 32h37c45 0 78 28 78 64c0 40 -37 65 -96 65c-35 0 -69 -8 -103 -24c-5 -3 -12 -4 -19 -4c-13 0 -23 6 -30 17c-3 5 -4 10 -4 16c0 13 7 23 21 32c40 23 89 35 147 35z" />
    <glyph glyph-name="afii10074" unicode="&#x438;" 
d="M492 414v-383c4 -49 -84 -49 -80 0v297l-243 -299c-20 -24 -39 -36 -57 -36c-23 0 -40 19 -40 40v384c-4 49 84 49 80 0v-298l243 299c21 25 40 37 57 37c23 0 40 -20 40 -41z" />
    <glyph glyph-name="afii10075" unicode="&#x439;" 
d="M492 414v-383c4 -49 -84 -49 -80 0v297l-243 -299c-20 -24 -39 -36 -57 -36c-23 0 -40 19 -40 40v384c-4 49 84 49 80 0v-298l243 299c21 25 40 37 57 37c23 0 40 -20 40 -41zM355 648c7 21 20 32 39 32c21 0 37 -14 37 -35c0 -2 -1 -6 -2 -13c-12 -51 -68 -92 -141 -92
c-80 0 -135 41 -146 92c-1 3 -1 7 -1 12c0 23 14 36 37 36c19 0 32 -11 39 -32c10 -31 34 -47 71 -47c35 0 57 16 67 47z" />
    <glyph glyph-name="afii10076" unicode="&#x43a;" horiz-adv-x="482" 
d="M362 13l-166 188c-13 17 -13 43 0 58l151 175c24 28 53 25 67 10s13 -38 0 -51l-145 -158l160 -174c8 -9 12 -19 12 -30c0 -20 -15 -38 -40 -38c-15 0 -28 7 -39 20zM152 417v-386c4 -49 -84 -49 -80 0v386c-4 49 84 49 80 0z" />
    <glyph glyph-name="afii10077" unicode="&#x43b;" horiz-adv-x="525" 
d="M453 412v-381c4 -49 -84 -49 -80 0v339h-158l-5 -76c-13 -209 -76 -301 -151 -301c-24 0 -40 14 -40 37c0 19 11 32 32 41c23 9 41 31 54 66s22 92 27 173l6 102c1 21 19 38 40 38h237c21 0 38 -17 38 -38z" />
    <glyph glyph-name="afii10078" unicode="&#x43c;" horiz-adv-x="625" 
d="M284 159l-132 162v-290c4 -49 -84 -49 -80 0v386c0 21 18 38 39 38c20 0 32 -10 55 -39l152 -189l145 191c18 25 35 37 51 37c21 0 39 -17 39 -38v-386c4 -49 -84 -49 -80 0v290l-127 -161c-16 -21 -46 -21 -62 -1z" />
    <glyph glyph-name="afii10079" unicode="&#x43d;" horiz-adv-x="554" 
d="M482 417v-386c4 -49 -84 -49 -80 0v159h-250v-159c4 -49 -84 -49 -80 0v386c-4 49 84 49 80 0v-152h250v152c-4 49 84 49 80 0z" />
    <glyph glyph-name="afii10080" unicode="&#x43e;" 
d="M109 57c-45 44 -67 100 -67 168s22 124 67 169c44 44 102 66 173 66s129 -22 174 -66c44 -45 66 -101 66 -169s-22 -124 -66 -168c-45 -45 -103 -67 -174 -67s-129 22 -173 67zM127 225c0 -93 64 -160 155 -160s155 65 155 160c0 93 -64 160 -155 160
c-89 0 -155 -65 -155 -160z" />
    <glyph glyph-name="afii10081" unicode="&#x43f;" horiz-adv-x="549" 
d="M477 412v-381c4 -49 -84 -49 -80 0v344h-245v-344c4 -49 -84 -49 -80 0v381c0 21 17 38 38 38h329c21 0 38 -17 38 -38z" />
    <glyph glyph-name="afii10082" unicode="&#x440;" horiz-adv-x="556" 
d="M152 21v-183c4 -49 -84 -49 -80 0v579c-4 49 84 49 80 0v-20c32 37 92 63 153 63c63 0 114 -21 152 -63c37 -43 56 -98 56 -165c0 -69 -22 -127 -65 -173s-100 -69 -169 -69c-53 0 -96 10 -127 31zM152 323v-223c35 -23 75 -35 120 -35c95 0 156 68 156 164
c0 93 -55 156 -146 156c-53 0 -97 -21 -130 -62z" />
    <glyph glyph-name="afii10083" unicode="&#x441;" horiz-adv-x="477" 
d="M380 359c-33 17 -66 26 -99 26c-42 0 -78 -15 -108 -45c-31 -31 -46 -69 -46 -115c0 -48 16 -87 47 -116s69 -44 115 -44c37 0 69 10 96 31c11 9 21 13 31 13c9 0 16 -3 23 -10s11 -15 11 -25c0 -11 -4 -20 -11 -26c-43 -39 -95 -58 -156 -58c-72 0 -130 22 -174 65
c-45 43 -67 99 -67 170c0 66 22 122 65 167s98 68 163 68c56 0 105 -12 146 -35c14 -7 21 -19 21 -34c0 -7 -2 -13 -5 -18c-7 -12 -18 -18 -33 -18c-7 0 -14 1 -19 4z" />
    <glyph glyph-name="afii10084" unicode="&#x442;" horiz-adv-x="440" 
d="M260 370v-339c4 -49 -84 -49 -80 0v339h-127c-49 -4 -49 84 0 80h334c49 4 49 -84 0 -80h-127z" />
    <glyph glyph-name="afii10085" unicode="&#x443;" horiz-adv-x="479" 
d="M106 430l123 -266c1 -3 10 -26 27 -68c6 22 13 45 21 69l95 259c7 21 20 31 39 31c28 0 44 -16 44 -39c0 -5 -1 -11 -4 -19l-159 -397c-31 -78 -59 -131 -84 -159c-25 -27 -55 -41 -88 -41c-53 0 -80 16 -80 47c0 21 11 32 32 32c7 0 27 -5 39 -5c37 0 65 30 96 102
l10 24l-189 394c-3 5 -4 12 -4 19c0 23 17 42 44 42c17 0 30 -8 38 -25z" />
    <glyph glyph-name="afii10086" unicode="&#x444;" horiz-adv-x="674" 
d="M390 -10h-13v-152c4 -49 -84 -49 -80 0v152h-11c-75 0 -135 22 -178 66c-44 44 -66 100 -66 169c0 65 22 120 66 166s103 69 177 69h12v202c-4 49 84 49 80 0v-202h13c73 0 132 -22 176 -67s66 -101 66 -168c0 -69 -21 -126 -63 -169c-43 -44 -102 -66 -179 -66zM289 65
h8v320h-13c-99 0 -157 -68 -157 -160c0 -96 57 -160 162 -160zM390 385h-13v-320h8c105 0 162 63 162 160c0 44 -14 82 -42 113s-66 47 -115 47z" />
    <glyph glyph-name="afii10087" unicode="&#x445;" horiz-adv-x="473" 
d="M129 433l110 -153l111 153c11 15 23 22 36 22c24 0 38 -16 38 -35c0 -8 -2 -15 -7 -22l-122 -165l130 -177c5 -7 8 -16 8 -25c0 -21 -15 -38 -40 -38c-13 0 -25 7 -36 22l-121 167l-123 -167c-11 -15 -23 -22 -37 -22c-23 0 -36 16 -36 35c0 9 3 17 8 24l131 177
l-119 165c-5 7 -7 14 -7 23c0 26 39 63 76 16z" />
    <glyph glyph-name="afii10088" unicode="&#x446;" horiz-adv-x="562" 
d="M547 37v-109c0 -21 -17 -38 -37 -38c-21 0 -38 17 -38 38v72h-362c-21 0 -38 17 -38 38v379c-4 49 84 49 80 0v-342h240v342c-4 49 84 49 80 0v-342h37c21 0 38 -17 38 -38z" />
    <glyph glyph-name="afii10089" unicode="&#x447;" horiz-adv-x="482" 
d="M330 245v172c-4 49 84 49 80 0v-386c4 -49 -84 -49 -80 0v144c-35 -22 -76 -33 -125 -33c-107 0 -160 57 -160 172v103c0 21 18 38 43 38c24 0 42 -17 42 -38v-94c0 -71 32 -106 97 -106c42 0 76 9 103 28z" />
    <glyph glyph-name="afii10090" unicode="&#x448;" horiz-adv-x="714" 
d="M642 417v-379c0 -21 -17 -38 -38 -38h-494c-21 0 -38 17 -38 38v379c-4 49 84 49 80 0v-342h165v342c-4 49 84 49 80 0v-342h165v342c-4 49 84 49 80 0z" />
    <glyph glyph-name="afii10091" unicode="&#x449;" horiz-adv-x="732" 
d="M717 37v-109c0 -21 -17 -38 -37 -38c-21 0 -38 17 -38 38v72h-532c-21 0 -38 17 -38 38v379c-4 49 84 49 80 0v-342h165v342c-4 49 84 49 80 0v-342h165v342c-4 49 84 49 80 0v-342h37c21 0 38 -17 38 -38z" />
    <glyph glyph-name="afii10092" unicode="&#x44a;" horiz-adv-x="509" 
d="M286 0h-114c-21 0 -38 17 -38 38v337h-91c-21 0 -38 17 -38 38c0 20 17 37 38 37h133c21 0 38 -17 38 -38v-97h82c128 0 178 -64 178 -155s-57 -160 -188 -160zM214 240v-165h66c73 0 109 27 109 82s-36 83 -108 83h-67z" />
    <glyph glyph-name="afii10093" unicode="&#x44b;" horiz-adv-x="642" 
d="M152 417v-102h74c128 0 178 -64 178 -155s-56 -160 -187 -160h-107c-21 0 -38 17 -38 38v379c-4 49 84 49 80 0zM570 417v-386c4 -49 -84 -49 -80 0v386c-4 49 84 49 80 0zM152 240v-165h58c77 0 109 27 109 82s-36 83 -108 83h-59z" />
    <glyph glyph-name="afii10094" unicode="&#x44c;" horiz-adv-x="447" 
d="M152 417v-102h82c128 0 178 -64 178 -155s-57 -160 -188 -160h-114c-21 0 -38 17 -38 38v379c-4 49 84 49 80 0zM152 240v-165h66c73 0 109 27 109 82s-36 83 -108 83h-67z" />
    <glyph glyph-name="afii10095" unicode="&#x44d;" horiz-adv-x="478" 
d="M67 96c9 0 18 -3 27 -8c29 -15 65 -23 108 -23c84 0 140 48 151 131h-188c-19 0 -34 14 -34 33c0 17 15 32 34 32h187c-12 81 -72 124 -156 124c-41 0 -77 -10 -110 -30c-7 -5 -15 -7 -24 -7c-12 0 -21 5 -28 14c-5 7 -7 14 -7 21c0 13 5 23 16 30c47 31 97 47 152 47
c71 0 129 -21 174 -64c44 -43 66 -100 66 -171c0 -66 -22 -122 -65 -167s-98 -68 -163 -68c-68 0 -121 13 -159 39c-11 7 -16 17 -16 30c0 9 3 17 8 23c7 9 16 14 27 14z" />
    <glyph glyph-name="afii10096" unicode="&#x44e;" horiz-adv-x="760" 
d="M254 190h-97v-157c0 -23 -18 -40 -42 -40c-25 0 -43 17 -43 40v382c0 23 18 40 43 40c24 0 42 -17 42 -40v-145h98c19 113 106 190 227 190c70 0 127 -22 170 -66c43 -45 65 -101 65 -169s-22 -124 -65 -168c-44 -45 -101 -67 -170 -67c-63 0 -114 19 -155 56
s-66 85 -73 144zM342 225c0 -93 59 -155 143 -155s142 62 142 155c0 92 -57 155 -142 155c-84 0 -143 -63 -143 -155z" />
    <glyph glyph-name="afii10097" unicode="&#x44f;" horiz-adv-x="463" 
d="M60 57l86 113c-52 12 -97 61 -97 130c0 87 61 150 201 150h102c21 0 38 -17 38 -38v-381c4 -49 -84 -49 -80 0v119h-87l-99 -135c-11 -15 -22 -22 -35 -22c-24 0 -40 15 -40 35c0 9 4 18 11 29zM218 225h92v150h-73c-71 0 -103 -32 -103 -77c0 -44 41 -73 84 -73z" />
    <glyph glyph-name="afii10071" unicode="&#x451;" horiz-adv-x="525" 
d="M127 265h273c-4 75 -53 120 -130 120c-80 0 -134 -49 -143 -120zM483 254c0 -10 0 -17 -1 -22c-1 -16 -18 -32 -34 -32h-316c7 -84 68 -135 157 -135c42 0 79 9 110 27c7 4 15 6 22 6c10 0 19 -4 27 -13c4 -5 6 -11 6 -18c0 -13 -4 -22 -12 -27
c-47 -33 -100 -50 -159 -50c-73 0 -131 21 -175 64s-66 100 -66 171c0 68 21 124 62 169c41 44 98 66 170 66c59 0 109 -19 149 -57c40 -39 60 -88 60 -149zM168 560c-27 0 -47 19 -47 50c0 28 20 46 47 46c23 0 44 -19 44 -46c0 -31 -20 -50 -44 -50zM372 560
c-27 0 -48 19 -48 50c0 27 21 46 48 46c23 0 44 -19 44 -46c0 -31 -20 -50 -44 -50z" />
    <glyph glyph-name="afii10099" unicode="&#x452;" horiz-adv-x="594" 
d="M213 236v-205c4 -49 -84 -49 -80 0v429h-92c-21 0 -35 14 -35 33c0 16 12 32 35 32h92v137c-4 49 84 49 80 0v-137h142c42 0 50 -65 0 -65h-142v-152c35 35 91 60 147 60c125 0 187 -66 187 -197c0 -154 -52 -273 -155 -358c-5 -4 -11 -6 -18 -6c-9 0 -17 4 -24 11
c-4 5 -6 11 -6 16c0 8 4 16 13 25c73 73 109 170 109 292c0 95 -42 142 -126 142c-49 0 -98 -24 -127 -57z" />
    <glyph glyph-name="afii10100" unicode="&#x453;" horiz-adv-x="362" 
d="M319 375h-167v-344c4 -49 -84 -49 -80 0v381c0 21 17 38 38 38h209c21 0 38 -17 38 -37c0 -21 -17 -38 -38 -38zM193 590l72 107c5 8 13 12 24 12c6 0 12 -2 17 -6l14 -10c7 -6 11 -14 11 -23c0 -8 -2 -14 -7 -19l-80 -97c-7 -8 -15 -12 -26 -12c-6 0 -12 2 -17 5
c-9 6 -13 15 -13 26c0 6 2 12 5 17z" />
    <glyph glyph-name="afii10101" unicode="&#x454;" horiz-adv-x="478" 
d="M125 261h186c19 0 33 -16 33 -32c0 -17 -14 -33 -33 -33h-187c11 -83 67 -131 151 -131c43 0 78 8 107 23c9 5 18 7 25 7c13 0 22 -5 29 -16c4 -6 6 -13 6 -20c0 -12 -4 -21 -13 -28c-39 -27 -92 -41 -159 -41c-65 0 -120 23 -163 68s-65 101 -65 167c0 71 22 128 67 171
c44 43 102 64 173 64c54 0 103 -14 146 -43c14 -10 21 -21 21 -34c0 -6 -2 -12 -6 -18c-7 -11 -16 -16 -29 -16c-7 0 -15 2 -24 7c-33 19 -70 29 -109 29c-84 0 -144 -43 -156 -124z" />
    <glyph glyph-name="afii10102" unicode="&#x455;" horiz-adv-x="410" 
d="M41 66c0 8 3 15 8 22c7 9 17 14 28 14c9 0 16 -2 23 -7c35 -23 69 -35 104 -35c45 0 80 23 80 62c0 90 -243 47 -243 211c0 77 62 127 153 127c46 0 89 -11 128 -34c11 -7 16 -16 16 -28c0 -7 -2 -13 -6 -19c-7 -11 -17 -16 -30 -16c-7 0 -14 2 -20 5
c-28 15 -56 22 -84 22c-44 0 -72 -25 -72 -56c0 -94 243 -51 243 -208c0 -89 -75 -136 -174 -136c-53 0 -100 16 -141 48c-9 7 -13 16 -13 28z" />
    <glyph glyph-name="afii10103" unicode="&#x456;" horiz-adv-x="268" 
d="M174 417v-386c4 -49 -84 -49 -80 0v386c-4 49 84 49 80 0zM84 619c0 28 23 48 52 48c27 0 49 -20 49 -48c0 -32 -22 -52 -49 -52c-29 0 -52 20 -52 52z" />
    <glyph glyph-name="afii10104" unicode="&#x457;" horiz-adv-x="293" 
d="M35 608c0 24 20 42 44 42c21 0 40 -18 40 -42c0 -25 -19 -44 -40 -44c-25 0 -44 17 -44 44zM175 608c0 24 19 42 43 42c21 0 40 -18 40 -42c0 -27 -19 -44 -40 -44c-24 0 -43 17 -43 44zM186 417v-386c4 -49 -84 -49 -80 0v386c-4 49 84 49 80 0z" />
    <glyph glyph-name="afii10105" unicode="&#x458;" horiz-adv-x="283" 
d="M115 -27v444c-4 49 84 49 80 0v-450c0 -117 -47 -175 -141 -175c-27 0 -51 4 -70 11c-17 7 -26 18 -26 35c0 21 14 34 37 34c7 0 13 -1 17 -2c8 -2 16 -3 24 -3c53 0 79 35 79 106zM104 619c0 28 23 48 52 48c27 0 49 -20 49 -48c0 -32 -22 -52 -49 -52
c-29 0 -52 20 -52 52z" />
    <glyph glyph-name="afii10106" unicode="&#x459;" horiz-adv-x="735" 
d="M453 240v-165h53c73 0 109 27 109 82s-36 83 -108 83h-54zM132 310l6 102c1 21 19 38 40 38h237c21 0 38 -17 38 -38v-97h69c128 0 178 -64 178 -155s-57 -160 -188 -160h-101c-21 0 -38 17 -38 38v332h-158l-5 -76c-13 -209 -76 -301 -151 -301c-24 0 -40 14 -40 37
c0 19 11 32 32 41c23 9 41 31 54 66s22 92 27 173z" />
    <glyph glyph-name="afii10107" unicode="&#x45a;" horiz-adv-x="764" 
d="M402 200h-250v-169c4 -49 -84 -49 -80 0v386c-4 49 84 49 80 0v-142h250v142c-4 49 84 49 80 0v-112h69c119 0 178 -50 178 -150c0 -89 -56 -155 -187 -155h-102c-21 0 -38 17 -38 38v162zM482 230v-155h53c79 0 109 24 109 77c0 55 -32 78 -108 78h-54z" />
    <glyph glyph-name="afii10108" unicode="&#x45b;" horiz-adv-x="594" 
d="M133 31v429h-92c-21 0 -35 14 -35 33c0 16 12 32 35 32h92v137c-4 49 84 49 80 0v-137h142c42 0 50 -65 0 -65h-142v-152c35 35 91 60 147 60c125 0 187 -67 187 -200v-137c4 -49 -84 -49 -80 0v126c0 91 -42 136 -127 136c-49 0 -98 -24 -127 -57v-205
c4 -49 -84 -49 -80 0z" />
    <glyph glyph-name="afii10109" unicode="&#x45c;" horiz-adv-x="482" 
d="M362 13l-166 188c-13 17 -13 43 0 58l151 175c24 28 53 25 67 10s13 -38 0 -51l-145 -158l160 -174c8 -9 12 -19 12 -30c0 -20 -15 -38 -40 -38c-15 0 -28 7 -39 20zM152 417v-386c4 -49 -84 -49 -80 0v386c-4 49 84 49 80 0zM214 590l72 107c5 8 13 12 24 12
c7 0 12 -2 17 -6l14 -10c7 -6 11 -14 11 -23c0 -8 -2 -14 -7 -19l-80 -97c-7 -8 -16 -12 -26 -12c-6 0 -12 2 -17 5c-9 6 -13 15 -13 26c0 6 2 12 5 17z" />
    <glyph glyph-name="afii10110" unicode="&#x45e;" horiz-adv-x="479" 
d="M106 430l123 -266c1 -3 10 -26 27 -68c6 22 13 45 21 69l95 259c7 21 20 31 39 31c28 0 44 -16 44 -39c0 -5 -1 -11 -4 -19l-159 -397c-31 -78 -59 -131 -84 -159c-25 -27 -55 -41 -88 -41c-53 0 -80 16 -80 47c0 21 11 32 32 32c7 0 27 -5 39 -5c37 0 65 30 96 102
l10 24l-189 394c-3 5 -4 12 -4 19c0 23 17 42 44 42c17 0 30 -8 38 -25zM311 648c7 21 20 32 39 32c21 0 37 -14 37 -35c0 -2 -1 -6 -2 -13c-12 -51 -68 -92 -141 -92c-80 0 -135 41 -146 92c-1 3 -1 7 -1 12c0 23 14 36 37 36c19 0 32 -11 39 -32c10 -31 34 -47 71 -47
c35 0 57 16 67 47z" />
    <glyph glyph-name="afii10193" unicode="&#x45f;" horiz-adv-x="539" 
d="M307 0v-87c0 -21 -17 -38 -37 -38c-21 0 -38 17 -38 38v87h-122c-21 0 -38 17 -38 38v379c-4 49 84 49 80 0v-342h235v342c-4 49 84 49 80 0v-379c0 -21 -17 -38 -38 -38h-122z" />
    <glyph glyph-name="afii10146" unicode="&#x462;" horiz-adv-x="639" 
d="M49 600h93v64c0 23 19 41 43 41c23 0 42 -18 42 -41v-64h118c21 0 39 -19 39 -40s-18 -40 -39 -40h-118v-100c42 3 75 5 98 5c176 0 264 -69 264 -206c0 -145 -102 -221 -283 -221c-33 0 -74 1 -122 2c-24 0 -42 19 -42 42v478h-93c-21 0 -39 19 -39 40s18 40 39 40z
M227 339v-258c54 -2 84 -3 89 -3c122 0 183 46 183 139c0 85 -60 128 -180 128c-26 0 -57 -2 -92 -6z" />
    <glyph glyph-name="afii10194" unicode="&#x463;" horiz-adv-x="506" 
d="M284 0h-112c-21 0 -38 17 -38 38v337h-91c-21 0 -38 17 -38 38c0 20 17 37 38 37h91v212c-4 49 84 49 80 0v-212h112c21 0 38 -17 38 -37c0 -21 -17 -38 -38 -38h-112v-90h79c119 0 178 -49 178 -146c0 -93 -62 -139 -187 -139zM214 210v-135h78c68 0 94 23 94 68
s-31 67 -94 67h-78z" />
    <glyph glyph-name="afii10147" unicode="&#x472;" horiz-adv-x="814" 
d="M407 -10c-103 0 -188 34 -255 101c-68 67 -102 154 -102 259c0 102 34 188 101 257s153 103 256 103s188 -34 256 -101c67 -67 101 -154 101 -259c0 -103 -34 -189 -102 -257c-68 -69 -153 -103 -255 -103zM287 357c-49 0 -96 -21 -142 -62c11 -66 41 -120 90 -162
s106 -63 172 -63c74 0 135 24 184 71s76 108 81 182c-47 -31 -92 -47 -137 -47c-35 0 -78 14 -127 41s-90 40 -121 40zM541 351c43 0 96 25 128 53c-11 67 -41 121 -90 163s-106 63 -172 63c-71 0 -132 -23 -181 -70c-50 -47 -78 -107 -85 -181c51 35 100 53 147 53
c36 0 79 -13 129 -40s91 -41 124 -41z" />
    <glyph glyph-name="afii10195" unicode="&#x473;" horiz-adv-x="574" 
d="M110 56c-45 44 -68 100 -68 169s23 125 68 169s104 66 177 66s133 -22 178 -66s67 -100 67 -169s-22 -125 -67 -169s-105 -66 -178 -66s-132 22 -177 66zM124 190c13 -84 80 -135 163 -135c87 0 155 54 164 146c-27 -22 -54 -33 -82 -33c-23 0 -52 10 -87 30
c-35 19 -61 29 -79 29c-29 0 -55 -12 -79 -37zM450 255c-12 88 -79 140 -163 140c-85 0 -155 -56 -164 -148c28 23 56 35 84 35c24 0 55 -10 92 -29c37 -20 63 -30 80 -30c27 0 50 11 71 32z" />
    <glyph glyph-name="afii10148" unicode="&#x474;" horiz-adv-x="664" 
d="M614 707c14 0 29 -2 45 -6c23 -5 34 -17 34 -35c0 -3 -1 -7 -2 -12c-5 -18 -16 -27 -35 -27c-8 0 -25 4 -30 4c-35 0 -51 -32 -86 -127l-174 -479c-7 -21 -21 -32 -41 -32c-21 0 -35 10 -44 31l-260 621c-3 8 -4 14 -4 18c0 24 17 42 41 42c20 0 34 -9 41 -28l228 -552
l148 427c39 111 76 155 139 155z" />
    <glyph glyph-name="afii10196" unicode="&#x475;" horiz-adv-x="481" 
d="M275 209l49 128c35 91 61 120 117 120c33 0 50 -12 50 -36c0 -25 -14 -39 -42 -41c-23 -3 -35 -19 -64 -92l-106 -267c-7 -19 -20 -28 -39 -28s-32 9 -41 28l-176 374c-3 5 -4 11 -4 18c0 23 18 42 43 42c18 0 31 -9 39 -26l104 -222c9 -19 22 -52 37 -98
c10 32 21 65 33 100z" />
    <glyph glyph-name="afii10050" unicode="&#x490;" horiz-adv-x="505" 
d="M453 620h-263v-585c0 -23 -19 -42 -42 -42c-24 0 -43 19 -43 42v623c0 23 19 42 42 42h268v86c0 21 19 39 40 39s40 -18 40 -39v-124c0 -23 -19 -42 -42 -42z" />
    <glyph glyph-name="afii10098" unicode="&#x491;" horiz-adv-x="362" 
d="M319 375h-167v-344c4 -49 -84 -49 -80 0v381c0 21 17 38 38 38h172v67c0 21 17 38 38 38c20 0 37 -17 37 -38v-104c0 -21 -17 -38 -38 -38z" />
    </font>
</defs>
</svg>
