<?xml version="1.0" encoding="UTF-8"?>
<svg width="15px" height="15px" viewBox="0 0 15 15" version="1.1" xmlns="http://www.w3.org/2000/svg" xmlns:xlink="http://www.w3.org/1999/xlink">
    <!-- Generator: Sketch 40.3 (33839) - http://www.bohemiancoding.com/sketch -->
    <title>61</title>
    <desc>Created with Sketch.</desc>
    <defs></defs>
    <g id="Meetings" stroke="none" stroke-width="1" fill="none" fill-rule="evenodd">
        <g id="Meetings-add" transform="translate(-983.000000, -442.000000)" fill="#7FD2F2">
            <g id="Add-meeting" transform="translate(370.000000, 366.000000)">
                <g id="theme" transform="translate(15.000000, 23.000000)">
                    <g id="Time" transform="translate(598.000000, 53.000000)">
                        <path d="M7.5,0 C5.4965625,0 3.61335937,0.780234375 2.19679687,2.19703125 C0.780234375,3.61335938 -3.55271368e-15,5.49679687 -3.55271368e-15,7.5 C-3.55271368e-15,9.50320313 0.780234375,11.3866406 2.19679687,12.8029687 C3.61335937,14.2197656 5.4965625,15 7.5,15 C9.50320312,15 11.3864062,14.2197656 12.8029687,12.8029687 C14.2197656,11.3866406 15,9.50320313 15,7.5 C15,5.49679687 14.2197656,3.61335938 12.8032031,2.19703125 C11.3864062,0.780234375 9.50320312,0 7.5,0 L7.5,0 Z M12.1401562,12.1401563 C10.9007812,13.3797656 9.25265625,14.0625 7.5,14.0625 C5.74710937,14.0625 4.09921875,13.3797656 2.85984375,12.1401563 C1.62023437,10.9007812 0.9375,9.25289063 0.9375,7.5 C0.9375,5.74734375 1.62023437,4.09945312 2.85984375,2.85984375 C4.09921875,1.62023438 5.74710937,0.9375 7.5,0.9375 C9.25265625,0.9375 10.9007812,1.62023438 12.1401562,2.85984375 C13.3797656,4.09945312 14.0625,5.74734375 14.0625,7.5 C14.0625,9.25289063 13.3797656,10.9007812 12.1401562,12.1401563 L12.1401562,12.1401563 Z M7.5,11.71875 C7.24101562,11.71875 7.03125,11.92875 7.03125,12.1875 L7.03125,12.65625 C7.03125,12.9152344 7.24101562,13.125 7.5,13.125 C7.75875,13.125 7.96875,12.9152344 7.96875,12.65625 L7.96875,12.1875 C7.96875,11.92875 7.75875,11.71875 7.5,11.71875 L7.5,11.71875 Z M10.9657031,8.47546875 L7.96875,7.19109375 L7.96875,2.34375 C7.96875,2.085 7.75875,1.875 7.5,1.875 C7.24101562,1.875 7.03125,2.085 7.03125,2.34375 L7.03125,7.5 C7.03125,7.6875 7.1428125,7.8571875 7.3153125,7.93078125 L10.5965625,9.33703125 C10.6567969,9.3628125 10.719375,9.37523437 10.7807812,9.37523437 C10.9626562,9.375 11.1358594,9.26859375 11.2120312,9.0909375 C11.3139844,8.85304688 11.2038281,8.57742187 10.9657031,8.47546875 L10.9657031,8.47546875 Z M2.8125,7.03125 L2.34375,7.03125 C2.08476562,7.03125 1.875,7.24125 1.875,7.5 C1.875,7.75898438 2.08476562,7.96875 2.34375,7.96875 L2.8125,7.96875 C3.07125,7.96875 3.28125,7.75898438 3.28125,7.5 C3.28125,7.24125 3.07125,7.03125 2.8125,7.03125 L2.8125,7.03125 Z M11.7185156,7.5 C11.7185156,7.75898438 11.9285156,7.96875 12.1872656,7.96875 L12.6560156,7.96875 C12.915,7.96875 13.1247656,7.75898438 13.1247656,7.5 C13.1247656,7.24125 12.915,7.03125 12.6560156,7.03125 L12.1872656,7.03125 C11.9285156,7.03125 11.7185156,7.24125 11.7185156,7.5 L11.7185156,7.5 Z" id="61"></path>
                    </g>
                </g>
            </g>
        </g>
    </g>
</svg>