<?xml version="1.0" encoding="UTF-8"?>
<svg width="11px" height="11px" viewBox="0 0 11 11" version="1.1" xmlns="http://www.w3.org/2000/svg" xmlns:xlink="http://www.w3.org/1999/xlink">
    <!-- Generator: Sketch 40.3 (33839) - http://www.bohemiancoding.com/sketch -->
    <title>81</title>
    <desc>Created with Sketch.</desc>
    <defs></defs>
    <g id="Symbols" stroke="none" stroke-width="1" fill="none" fill-rule="evenodd">
        <g id="edit" transform="translate(-2.000000, -2.000000)" fill="#2EBAEE">
            <g transform="translate(2.000000, 2.000000)" id="81">
                <path d="M0.44474806,10.8880952 C0.526761379,10.8880952 0.613301973,10.8672001 0.70228033,10.8288924 L3.20011699,9.7179689 C3.4149884,9.62219963 3.70281859,9.42543731 3.86928299,9.25827641 L10.6899703,2.43776321 C10.8212613,2.30716875 10.8936977,2.13130155 10.8936977,1.94498679 C10.8936977,1.75867203 10.8212613,1.58280483 10.6899703,1.45221037 L9.44113905,0.203727354 C9.30984809,0.0731328962 9.13502564,0 8.94871088,0 C8.76257025,0 8.5877478,0.0731328962 8.45628271,0.203727354 L1.46146944,7.1983665 C1.29308966,7.36726866 1.09754622,7.65980025 1.00682661,7.8809402 L0.0531388134,10.1968152 C-0.050291997,10.4475566 0.0228408992,10.6182 0.0756010601,10.6965567 C0.15674375,10.8184449 0.291343104,10.8880952 0.44474806,10.8880952 L0.44474806,10.8880952 Z M3.37685482,8.76549999 L3.37685482,8.76549999 L2.12802355,7.51701697 L7.90395522,1.74125943 L9.15278649,2.98974245 L3.37685482,8.76549999 L3.37685482,8.76549999 Z M8.94871088,0.696503773 L10.1975421,1.94498679 L9.64521466,2.49696603 L8.39655752,1.24848301 L8.94871088,0.696503773 L8.94871088,0.696503773 Z M1.65091847,8.14561163 C1.66101777,8.121234 1.67494785,8.09337385 1.69027093,8.06377244 L2.77211542,9.1468358 L0.895734253,9.97915781 L1.65091847,8.14561163 L1.65091847,8.14561163 Z"></path>
            </g>
        </g>
    </g>
</svg>