<?xml version="1.0" encoding="UTF-8" standalone="no"?>
<svg width="13px" height="13px" viewBox="0 0 13 13" version="1.1" xmlns="http://www.w3.org/2000/svg" xmlns:xlink="http://www.w3.org/1999/xlink">
    <!-- Generator: Sketch 40.3 (33839) - http://www.bohemiancoding.com/sketch -->
    <title>Info</title>
    <desc>Created with Sketch.</desc>
    <defs></defs>
    <g id="Symbols" stroke="none" stroke-width="1" fill="none" fill-rule="evenodd">
        <g id="DataTable/HeaderColumn" transform="translate(-903.000000, -22.000000)" fill="#2EBAEE">
            <g transform="translate(1.000000, 20.000000)" id="Columns">
                <g transform="translate(14.000000, 0.000000)">
                    <g id="6" transform="translate(817.000000, 0.000000)">
                        <g id="Info" transform="translate(71.000000, 2.000000)">
                            <g id="Shape">
                                <path d="M6.5,0 C2.9159,0 0,2.91593939 0,6.50003939 C0,10.0841394 2.9159,13 6.5,13 C10.0841,13 13,10.0841394 13,6.50003939 C13,2.91593939 10.0841,0 6.5,0 L6.5,0 Z M6.5,11.8181818 C3.56751515,11.8181818 1.18181818,9.43248485 1.18181818,6.50003939 C1.18181818,3.56759394 3.56751515,1.18181818 6.5,1.18181818 C9.43248485,1.18181818 11.8181818,3.56759394 11.8181818,6.50003939 C11.8181818,9.43248485 9.43244545,11.8181818 6.5,11.8181818 L6.5,11.8181818 Z"></path>
                                <path d="M6.49992121,2.75757576 C6.06556364,2.75757576 5.7122,3.11117576 5.7122,3.54580909 C5.7122,3.98004848 6.06556364,4.33333333 6.49992121,4.33333333 C6.93427879,4.33333333 7.28764242,3.98004848 7.28764242,3.54580909 C7.28764242,3.11117576 6.93427879,2.75757576 6.49992121,2.75757576 L6.49992121,2.75757576 Z"></path>
                                <path d="M6.5,5.51515152 C6.17366061,5.51515152 5.90909091,5.77972121 5.90909091,6.10606061 L5.90909091,9.65151515 C5.90909091,9.97785455 6.17366061,10.2424242 6.5,10.2424242 C6.82633939,10.2424242 7.09090909,9.97785455 7.09090909,9.65151515 L7.09090909,6.10606061 C7.09090909,5.77972121 6.82633939,5.51515152 6.5,5.51515152 L6.5,5.51515152 Z"></path>
                            </g>
                        </g>
                    </g>
                </g>
            </g>
        </g>
    </g>
</svg>