<?xml version="1.0" encoding="UTF-8"?>
<svg width="17px" height="19px" viewBox="0 0 17 19" version="1.1" xmlns="http://www.w3.org/2000/svg" xmlns:xlink="http://www.w3.org/1999/xlink">
    <!-- Generator: Sketch 40.3 (33839) - http://www.bohemiancoding.com/sketch -->
    <title>download</title>
    <desc>Created with Sketch.</desc>
    <defs></defs>
    <g id="Meetings" stroke="none" stroke-width="1" fill="none" fill-rule="evenodd">
        <g id="Meetings-themes" transform="translate(-1037.000000, -863.000000)" fill="#2EBAEE">
            <g id="Main-Content" transform="translate(15.000000, 91.000000)">
                <g id="Meetings" transform="translate(355.000000, 275.000000)">
                    <g id="5" transform="translate(0.000000, 432.000000)">
                        <g id="download" transform="translate(665.000000, 64.000000)">
                            <g transform="translate(2.000000, 1.000000)" id="clip">
                                <g>
                                    <path d="M7.74481828,8.18379583 C7.99566259,7.93295151 7.99566259,7.5253295 7.74481828,7.27448518 C7.49397396,7.02364087 7.08635195,7.02364087 6.83550763,7.27448518 L3.43343158,10.6765612 C2.8533541,11.2566387 2.53979871,12.0091717 2.53979871,12.8244157 C2.53979871,13.6396597 2.8533541,14.3921927 3.43343158,14.9722701 C4.62494209,16.1637807 6.55330777,16.1637807 7.72914051,14.9722701 L15.4112477,7.29016295 C16.210814,6.49059669 16.6497915,5.42450835 16.6497915,4.29570892 C16.6497915,3.1669095 16.210814,2.10082115 15.4112477,1.30125489 C13.7494041,-0.360588705 11.0685055,-0.360588705 9.40666187,1.30125489 L1.74023245,8.96768432 C0.705499641,10.0024171 0.141099928,11.3663831 0.141099928,12.8244157 C0.141099928,14.2824483 0.705499641,15.662092 1.74023245,16.6811471 C2.77496525,17.7158799 4.13893122,18.2802796 5.59696382,18.2802796 C7.05499641,18.2802796 8.43464015,17.7158799 9.45369518,16.6811471 L12.8557712,13.279071 C13.1066155,13.0282267 13.1066155,12.6206047 12.8557712,12.3697604 C12.6049269,12.118916 12.1973049,12.118916 11.9464606,12.3697604 L8.54438454,15.7718364 C7.76049605,16.5557249 6.71008547,16.9947025 5.59696382,16.9947025 C4.48384216,16.9947025 3.43343158,16.5557249 2.64954309,15.7718364 C1.86565461,14.9879479 1.42667705,13.9375373 1.42667705,12.8244157 C1.42667705,11.711294 1.86565461,10.6608835 2.64954309,9.87699497 L10.3159725,2.21056554 C10.8803722,1.64616583 11.6172274,1.3482882 12.4011159,1.3482882 C13.1850044,1.3482882 13.9375373,1.6618436 14.4862593,2.21056554 C15.050659,2.77496525 15.3485366,3.51182043 15.3485366,4.29570892 C15.3485366,5.07959741 15.0349812,5.83213036 14.4862593,6.3808523 L6.80415209,14.0629595 C6.13000799,14.7371036 5.01688633,14.7371036 4.32706446,14.0629595 C3.9978313,13.7337263 3.80969806,13.2947488 3.80969806,12.8244157 C3.80969806,12.3540826 3.9978313,11.915105 4.32706446,11.5858719 L7.74481828,8.18379583 L7.74481828,8.18379583 Z" id="Shape"></path>
                                </g>
                            </g>
                        </g>
                    </g>
                </g>
            </g>
        </g>
    </g>
</svg>