<?xml version="1.0" encoding="UTF-8" standalone="no"?>
<svg width="15px" height="15px" viewBox="0 0 15 15" version="1.1" xmlns="http://www.w3.org/2000/svg" xmlns:xlink="http://www.w3.org/1999/xlink">
    <!-- Generator: Sketch 3.8.3 (29802) - http://www.bohemiancoding.com/sketch -->
    <title>48</title>
    <desc>Created with Sketch.</desc>
    <defs></defs>
    <g id="Main-Pages" stroke="none" stroke-width="1" fill="none" fill-rule="evenodd">
        <g id="Study-Structure" transform="translate(-25.000000, -509.000000)" fill="#7FD2F2">
            <g id="Left-Side" transform="translate(0.000000, 161.000000)">
                <g id="Search" transform="translate(15.000000, 348.000000)">
                    <path d="M20.6438003,8.57551371 C20.4609735,8.39245254 20.163294,8.39245254 19.9804672,8.57551371 L19.6101258,8.9472615 L18.7170873,8.05398859 C19.4202672,7.20243769 19.8445191,6.11110243 19.8445191,4.92225955 C19.8445191,2.20821939 17.6365341,0 14.9222596,0 C12.207985,0 10,2.20821939 10,4.92225955 C10,7.6365341 12.207985,9.8445191 14.9222596,9.8445191 C16.1106336,9.8445191 17.2005625,9.42097039 18.0537542,8.71685288 L18.9467927,9.61012579 L18.5741074,9.98187358 C18.3912806,10.1649348 18.3912806,10.4619111 18.5741074,10.6447379 L22.793187,14.8640519 C22.8846004,14.9554653 23.0064849,15.001172 23.1260255,15.001172 C23.2455661,15.001172 23.3651066,14.9554653 23.45652,14.8640519 L24.8628799,13.457692 C25.0457067,13.2746308 25.0457067,12.9776545 24.8628799,12.7945933 L20.6438003,8.57551371 L20.6438003,8.57551371 Z M10.9375732,4.92225955 C10.9375732,2.72505665 12.7236503,0.937573248 14.9222596,0.937573248 C17.1185249,0.937573248 18.9069459,2.72505665 18.9069459,4.92225955 C18.9069459,7.11946246 17.1185249,8.90694586 14.9222596,8.90694586 C12.7236503,8.90694586 10.9375732,7.11946246 10.9375732,4.92225955 L10.9375732,4.92225955 Z M23.1260255,13.8695211 L19.5702789,10.3133057 L20.3133057,9.57004453 L23.8690523,13.1260255 L23.1260255,13.8695211 L23.1260255,13.8695211 Z" id="48"></path>
                </g>
            </g>
        </g>
    </g>
</svg>