<?xml version="1.0" encoding="UTF-8" standalone="no"?>
<svg width="40px" height="40px" viewBox="0 0 40 40" version="1.1" xmlns="http://www.w3.org/2000/svg" xmlns:xlink="http://www.w3.org/1999/xlink">
    <!-- Generator: Sketch 3.8.3 (29802) - http://www.bohemiancoding.com/sketch -->
    <title>Settings</title>
    <desc>Created with Sketch.</desc>
    <defs></defs>
    <g id="Symbols" stroke="none" stroke-width="1" fill="none" fill-rule="evenodd">
        <g id="Settings" fill="#FFFFFF">
            <g transform="translate(10.000000, 10.000000)" id="123">
                <path d="M10,12.5 C11.37875,12.5 12.5,11.378125 12.5,10 C12.5,8.621875 11.37875,7.5 10,7.5 C8.621875,7.5 7.5,8.621875 7.5,10 C7.5,11.378125 8.621875,12.5 10,12.5 L10,12.5 Z M10,8.75 C10.689375,8.75 11.25,9.3125 11.25,10 C11.25,10.6875 10.689375,11.25 10,11.25 C9.3109375,11.25 8.75,10.6875 8.75,10 C8.75,9.3125 9.3109375,8.75 10,8.75 L10,8.75 Z M1.25,8.75 L3.125,8.75 C3.3940625,8.75 3.6328125,8.578125 3.7184375,8.321875 L4.3434375,6.446875 C4.4178125,6.221875 4.359375,5.975 4.191875,5.809375 L2.7590625,4.375 L4.375,2.759375 L5.808125,4.190625 C5.9753125,4.359375 6.223125,4.41875 6.4478125,4.34375 L8.3228125,3.71875 C8.5778125,3.63125 8.75,3.39375 8.75,3.125 L8.75,1.25 L11.25,1.25 L11.25,3.125 C11.25,3.39375 11.4221875,3.63125 11.6775,3.71875 L13.5525,4.34375 C13.7775,4.41875 14.0246875,4.359375 14.191875,4.190625 L15.625,2.759375 L17.24125,4.375 L15.808125,5.809375 C15.6409375,5.975 15.5821875,6.221875 15.6571875,6.446875 L16.2821875,8.321875 C16.3671875,8.578125 16.6059375,8.75 16.875,8.75 L18.75,8.75 L18.75,11.25 L16.875,11.25 C16.6059375,11.25 16.3671875,11.421875 16.2821875,11.678125 L15.6571875,13.553125 C15.5821875,13.778125 15.6409375,14.025 15.808125,14.190625 L17.24125,15.625 L15.625,17.240625 L14.191875,15.809375 C14.0246875,15.640625 13.776875,15.58125 13.5525,15.65625 L11.6775,16.28125 C11.4221875,16.36875 11.25,16.60625 11.25,16.875 L11.25,18.75 L8.75,18.75 L8.75,16.875 C8.75,16.60625 8.5778125,16.36875 8.3228125,16.28125 L6.4478125,15.65625 C6.22375,15.58125 5.975625,15.640625 5.808125,15.809375 L4.375,17.240625 L2.7590625,15.625 L4.191875,14.190625 C4.359375,14.025 4.4178125,13.778125 4.3434375,13.553125 L3.7184375,11.678125 C3.6328125,11.421875 3.3940625,11.25 3.125,11.25 L1.25,11.25 L1.25,8.75 L1.25,8.75 Z M0.625,12.5 L2.6746875,12.5 L3.0353125,13.58125 L1.433125,15.184375 C1.1890625,15.428125 1.1890625,15.821875 1.433125,16.065625 L3.933125,18.565625 C4.1771875,18.809375 4.5734375,18.809375 4.816875,18.565625 L6.4190625,16.965625 L7.5,17.325 L7.5,19.375 C7.5,19.721875 7.7803125,20 8.125,20 L11.875,20 C12.2203125,20 12.5,19.721875 12.5,19.375 L12.5,17.325 L13.5815625,16.965625 L15.183125,18.565625 C15.4271875,18.809375 15.8234375,18.809375 16.066875,18.565625 L18.566875,16.065625 C18.8109375,15.821875 18.8109375,15.428125 18.566875,15.184375 L16.9653125,13.58125 L17.3253125,12.5 L19.375,12.5 C19.7203125,12.5 20,12.221875 20,11.875 L20,8.125 C20,7.78125 19.7203125,7.5 19.375,7.5 L17.3253125,7.5 L16.9653125,6.41875 L18.566875,4.815625 C18.8109375,4.571875 18.8109375,4.178125 18.566875,3.934375 L16.066875,1.434375 C15.8234375,1.190625 15.4271875,1.190625 15.183125,1.434375 L13.5815625,3.034375 L12.5,2.675 L12.5,0.625 C12.5,0.28125 12.2203125,0 11.875,0 L8.125,0 C7.7803125,0 7.5,0.28125 7.5,0.625 L7.5,2.675 L6.4190625,3.034375 L4.816875,1.434375 C4.5734375,1.190625 4.1771875,1.190625 3.933125,1.434375 L1.433125,3.934375 C1.1890625,4.178125 1.1890625,4.571875 1.433125,4.815625 L3.0353125,6.41875 L2.6746875,7.5 L0.625,7.5 C0.2803125,7.5 0,7.78125 0,8.125 L0,11.875 C0,12.221875 0.2803125,12.5 0.625,12.5 L0.625,12.5 Z"></path>
            </g>
        </g>
    </g>
</svg>