<?xml version="1.0" encoding="iso-8859-1"?>
<!-- Generator: Adobe Illustrator 19.0.0, SVG Export Plug-In . SVG Version: 6.00 Build 0)  -->
<svg version="1.1" id="Layer_1" xmlns="http://www.w3.org/2000/svg" xmlns:xlink="http://www.w3.org/1999/xlink" x="0px" y="0px"
	 viewBox="0 0 512 512" style="enable-background:new 0 0 512 512;" xml:space="preserve">
<path style="fill:#E91E63;" d="M503.102,188.926C473.627,80.078,374.173,0,256,0C114.615,0,0,114.615,0,256
	c0,117.856,79.648,217.094,188.05,246.865L503.102,188.926z"/>
<path style="fill:#880E4F;" d="M512,256c0-23.211-3.108-45.694-8.898-67.074l-90.014-90.014L98.592,413.408l89.458,89.458
	C209.691,508.809,232.471,512,256,512C397.384,512,512,397.384,512,256z"/>
<path style="fill:#B2EBF2;" d="M478.609,256c0,122.942-99.665,222.609-222.609,222.609L166.057,256L256,33.391
	C378.943,33.391,478.609,133.058,478.609,256z"/>
<path style="fill:#FFFFFF;" d="M33.391,256c0-122.942,99.665-222.609,222.609-222.609v445.217
	C133.057,478.609,33.391,378.942,33.391,256z"/>
<path style="fill:#80DEEA;" d="M397.668,114.332h-92.593L256,256l100.174,33.391L456.348,256
	C456.348,200.682,433.92,150.595,397.668,114.332z"/>
<path style="fill:#4DD0E1;" d="M256,256l49.075,141.668h92.593c36.252-36.263,58.68-86.35,58.68-141.668H256z"/>
<g>
	<path style="fill:#00BCD4;" d="M256,256l-33.391,100.174L256,456.348c55.318,0,105.405-22.428,141.668-58.68L256,256z"/>
	<path style="fill:#00BCD4;" d="M256,55.652l-33.391,100.174L256,256l141.668-141.668C361.405,78.08,311.318,55.652,256,55.652z"/>
</g>
<path style="fill:#B2EBF2;" d="M114.332,114.332h92.593L256,256l-100.174,33.391L55.652,256
	C55.652,200.682,78.08,150.595,114.332,114.332z"/>
<path style="fill:#80DEEA;" d="M256,256l-49.075,141.668h-92.593C78.08,361.405,55.652,311.318,55.652,256H256z"/>
<g>
	<path style="fill:#4DD0E1;" d="M256,256v200.348c-55.318,0-105.405-22.428-141.668-58.68L256,256z"/>
	<path style="fill:#4DD0E1;" d="M256,55.652V256L114.332,114.332C150.595,78.08,200.682,55.652,256,55.652z"/>
</g>
<path style="fill:#B2EBF2;" d="M339.478,256c0,46.103-37.375,83.478-83.478,83.478L222.271,256L256,172.522
	C302.103,172.522,339.478,209.897,339.478,256z"/>
<path style="fill:#FFFFFF;" d="M172.522,256c0-46.103,37.375-83.478,83.478-83.478v166.957
	C209.896,339.478,172.522,302.103,172.522,256z"/>
<circle style="fill:#880E4F;" cx="256" cy="256" r="38.957"/>
<g>
</g>
<g>
</g>
<g>
</g>
<g>
</g>
<g>
</g>
<g>
</g>
<g>
</g>
<g>
</g>
<g>
</g>
<g>
</g>
<g>
</g>
<g>
</g>
<g>
</g>
<g>
</g>
<g>
</g>
</svg>
