<?xml version="1.0" encoding="utf-8"?>
<!DOCTYPE svg PUBLIC "-//W3C//DTD SVG 1.1//EN" "http://www.w3.org/Graphics/SVG/1.1/DTD/svg11.dtd">
<svg xmlns="http://www.w3.org/2000/svg" xmlns:xlink="http://www.w3.org/1999/xlink" width="512px" version="1.1" height="512px" viewBox="0 0 64 64" enable-background="new 0 0 64 64">
  <g>
    <path fill="#006DF0" d="m14.754,60.041c3.269,2.399 6.476,3.607 9.567,3.607 0.77,0 1.532-0.075 2.287-0.226 5.39-1.072 8.216-5.645 8.233-5.69l15.922-21.676c0.66-0.897 0.467-2.161-0.432-2.821s-2.16-0.466-2.821,0.433l-16.021,21.825c-0.019,0.031-2.06,3.254-5.669,3.972-2.628,0.527-5.548-0.378-8.678-2.677-9.174-6.737-4.389-13.862-3.811-14.656l26.347-35.899c0.012-0.016 1.131-1.557 3.168-1.91 1.865-0.325 4.009,0.392 6.427,2.167 0.942,0.652 3.476,2.885 3.886,5.34 0.2,1.194-0.116,2.337-0.967,3.495l-23.538,32.048c-0.01,0.014-1.062,1.432-2.613,1.689-0.98,0.158-1.99-0.161-3.105-0.979-3.312-2.434-1.593-5.382-1.255-5.89l13.118-17.861c0.659-0.897 0.467-2.161-0.432-2.821-0.899-0.66-2.162-0.468-2.822,0.433l-13.149,17.903c-1.832,2.638-2.77,7.874 2.148,11.488 2.011,1.476 4.078,2.047 6.156,1.708 3.204-0.53 5.061-3.072 5.233-3.321l23.511-32.008c1.512-2.059 2.082-4.271 1.689-6.573-0.791-4.654-5.383-7.844-5.523-7.94-3.286-2.412-6.465-3.37-9.457-2.855-3.715,0.646-5.617,3.328-5.775,3.565l-26.29,35.821c-0.131,0.175-3.201,4.368-2.381,9.863 0.586,3.927 2.957,7.442 7.047,10.446z"/>
  </g>
</svg>
